<svg xmlns="http://www.w3.org/2000/svg" viewBox="0 0 448.38 65.41"><g id="black"><path d="M23,8.37v3.87H39V37.17c0,2.47-.54,3.69-2.2,4.45s-4,.81-7.11.81A18.47,18.47,0,0,0,28,37.93c1.93.09,4.18.09,4.86,0s.9-.23.9-.86v-3a11.5,11.5,0,0,0-2.39,1.71,16.44,16.44,0,0,1-2.61-5.58,18.93,18.93,0,0,1-3.06,5.58,20.23,20.23,0,0,0-2.7-2v8.64H17.89V34.56a11.65,11.65,0,0,0-1.71,1.53,16.67,16.67,0,0,1-2.75-5.76,17.79,17.79,0,0,1-3.37,5.89,15.39,15.39,0,0,0-2.34-1.84v8.1H2.59V12.24h15.3V8.37H1.1V3.1H40.39V8.37Zm-7.69,11c0,4.63.27,9.22,2.61,13.09V17.23H7.72V33.75c2.34-2.57,3.51-6.44,4.09-10.85H9.47V19.35ZM23,17.23V33.75c2.25-2.61,3.56-6.48,4.19-10.85H24.82V19.35h5.89c0,4.95.27,9.76,3,13.77V17.23Z"/><path d="M61.54,30.73c-.95.18-2,.36-3.11.5v1.93h2.34V36H58.43v1.8l2.48-.23,0,3.06c-3.24.41-6.34.72-9.13.95l-.36-3.33L55.1,38V36H52.67V33.16H55.1V31.5c-.94,0-1.8,0-2.61,0a15.81,15.81,0,0,0-.85-2.79,44.56,44.56,0,0,1-3.33,14,17.75,17.75,0,0,0-4.05-2.92c2.93-6.39,3.11-15.71,3.11-22.32V3.6H63.74a13.65,13.65,0,0,0-1.17-1.85L67.16,0A17.9,17.9,0,0,1,69.5,3.6H86.11V7.69H52.18v9.72c0,3.24-.09,7.2-.49,11.21a49.35,49.35,0,0,0,8-1.08Zm4.14,8.64a18.58,18.58,0,0,0,1.8-6.7l3.37.94c-.36,2.79-.85,5.81-2.11,7.65l-3.06-1.44v2.84H61.76V26.59H52.63V23.26H54.7V13H53.12V9.63H67.43V13H65.68ZM58.39,13v1.57h3.37V13Zm0,5.85h3.37V17.14H58.39Zm3.37,4.45V21.42H58.39v1.84ZM77.69,39c.68,0,.86-.31,1-2.88a11.46,11.46,0,0,0,3.28,1.35c-.4,3.87-1.35,4.86-3.69,4.86h-3c-3.24,0-4-1-4-4.32V32.67h3.6a17.54,17.54,0,0,0-1.71-1.89l1.53-.86H67.12V26.37H86.47v3.55H76.88a18.83,18.83,0,0,1,3.2,4.14L76.93,36A12.27,12.27,0,0,0,75,32.85V38c0,.9.14,1,.81,1Zm1-24.79v1.71H85.3v9H68V15.93h6.12V14.22H67.79v-3.6h6.35v-2h4.5v2h6.93v3.6ZM72.88,18.9H71.17v3h1.71Zm4.59,0H75.62v3h1.85Zm5.94,12.91a24.91,24.91,0,0,1,3.28,7.61l-3.55,1.3a27.55,27.55,0,0,0-3.06-7.65Zm-3.2-9.94H82v-3h-1.8Z"/><path d="M105.55,4.14c-1.17,3.78-2.66,8.28-3.92,11.79a14.65,14.65,0,0,1,3.29,9.31c0,2.93-.59,4.86-2,5.94a5.46,5.46,0,0,1-2.56,1,14.06,14.06,0,0,1-2.88.09,10.88,10.88,0,0,0-1.17-4.59,14.82,14.82,0,0,0,1.93,0,2,2,0,0,0,1.22-.36c.54-.41.76-1.4.76-2.7a12.8,12.8,0,0,0-3.1-8.24c.9-2.7,1.8-6.34,2.52-9.31H96V42.48H91.33V2.34h9.94l.77-.23Zm21.1,33.34c.68,0,.9-.76,1-5.35a13.37,13.37,0,0,0,4.37,2c-.41,6.16-1.67,7.87-4.82,7.87h-3.1c-4,0-4.86-1.53-4.86-6V26.82h-3c-.68,7.56-2.75,12.78-11.48,15.79a14,14,0,0,0-3-4.32c7.16-2.2,8.78-5.85,9.32-11.47h-5.4V22.05h25.65v4.77h-7.07V36c0,1.26.09,1.44.72,1.44ZM109.1,14.71h-3.51V5.85H116a33.42,33.42,0,0,0-1.84-4.28L119.27.13a28.81,28.81,0,0,1,2.57,5.72h9.31v8.86H127.6v4H109.1Zm1.44-4.27v3.64H126V10.44Z"/><path d="M174.94,26.19a94,94,0,0,1-8.06,5.26,25.82,25.82,0,0,0,10.17,5.4,21.68,21.68,0,0,0-3.51,4.73c-9.31-3.2-14.89-9.72-18.27-19a44.66,44.66,0,0,1-5.8,4.95v7.7l9.72-2.66a28.47,28.47,0,0,0,.9,4.77c-12.87,3.83-14.9,4.46-16.25,5.27a17.24,17.24,0,0,0-2.2-4.73,3.86,3.86,0,0,0,2.25-3.55V31a42.37,42.37,0,0,1-6.16,2.79,25.68,25.68,0,0,0-3.47-4.32,46.27,46.27,0,0,0,14.35-7.38H135.83V17.5h17.06V15H140V10.71h12.91V8.37H137.77V3.82h15.12V.58h5.4V3.82H174V8.37H158.29v2.34h13.9V15h-13.9V17.5h17.19v4.55H160.36a24.83,24.83,0,0,0,3.46,6.12,56.93,56.93,0,0,0,6.66-5.27Z"/><path d="M186.55,21.33a62.15,62.15,0,0,0-7.11-4.14l2.79-4a59.48,59.48,0,0,1,7.24,3.69Zm4.86,6.16c-1.8,4.64-4,9.72-6.12,14l-4.73-3.24a141.7,141.7,0,0,0,6.71-14ZM212.65,34a81,81,0,0,1,8.55,5.18l-4.32,3.19a76.07,76.07,0,0,0-9.45-6.16l3.1-2.21H199.42l5,2a45,45,0,0,1-11.21,6.35,36.66,36.66,0,0,0-4-3.92A32.8,32.8,0,0,0,199.24,34H193.3V17.64h9.85V15.43h-7.92v-3h-3.46V5.8l-2.7,3.65a62,62,0,0,0-7-4.32l3-3.87a53.65,53.65,0,0,1,6.75,3.64V4.14h11c-.36-1-.77-2.16-1.17-3.06L207,.22a24.33,24.33,0,0,1,1.62,3.92h11.61v8.28h-3.73v3h-8.28v2.21h10.3V34Zm-16-25.51V11.2h18.45V8.46ZM198,24h5.13V21.55H198Zm0,6h5.13V27.67H198Zm10.22-8.46V24h5.35V21.55Zm5.35,6.12h-5.35V30h5.35Z"/><path d="M262.73,23.67a.82.82,0,0,0,.5-.14c.13-.09.22-.36.31-.85a28.26,28.26,0,0,0,.18-3.06,8.82,8.82,0,0,0,2.88,1.57,16.6,16.6,0,0,1-.49,4.1,3.08,3.08,0,0,1-1.26,1.53,4.28,4.28,0,0,1-2,.45H261a3.71,3.71,0,0,1-2.66-.95c-.67-.72-.9-1.53-.9-4.23v-.31l-2,2.61a15.94,15.94,0,0,0-2.52-1.94,16,16,0,0,1-5.58,5.72,12.54,12.54,0,0,0-1.75-1.8v.45c-7.07.49-14.27.94-19.4,1.21L226,25c2.16-.09,4.86-.18,7.74-.32V23.17H228V20.56h5.76V18.27h3.55a6.06,6.06,0,0,1-.22-1.94V16h-3.11c-.72,2.43-2.56,3.83-6.93,4.59a6.32,6.32,0,0,0-1.75-2.38c3.15-.41,4.63-1,5.31-2.21h-4.32v-2.7h7.47V12.06h-5.49V9.45h5.49V8.32h4.5V9.45h5.49v2.61h-5.49v1.21h7.51V16l-5.53,0v.4c0,.68,0,.95.67.95h1.62a11.67,11.67,0,0,0,2.12-.18c0,.76.09,1.57.18,2.38a9.61,9.61,0,0,1-2.21.18H240a4.1,4.1,0,0,1-1.8-.31v1.12h5.89v2.61h-5.89v1.31c2.38-.09,4.95-.23,7.42-.36v.31a14.94,14.94,0,0,0,3.74-4.14,37.11,37.11,0,0,0-3.83-1.8l2.3-3c.94.36,1.89.81,2.88,1.26a13.73,13.73,0,0,0,.27-1.71h-4.46V11.34h4.59V8.59h4v2.75h6.57V22.05a4.23,4.23,0,0,0,.09,1.39.4.4,0,0,0,.41.23Zm-37.3,9.18h40.32v3.06H257a41.2,41.2,0,0,1,7.2,4.72L260.48,43a28.05,28.05,0,0,0-2.29-2c-23.85.9-26.77,1-28.89,1.53A27.76,27.76,0,0,0,227.81,39a10.7,10.7,0,0,0,3-1,27.41,27.41,0,0,0,4-2.07h-9.36Zm10.21-26.1h-9.85V3.06h9.85V.58h5.18V3.06h4.32V6.75h-4.32V8.19h-5.18Zm24.89,21.64v3.06H231.15V28.39Zm-7,9.63a17.91,17.91,0,0,0-2.57-1.26l1.49-.85H241.9c-1.44.94-3,1.8-4.41,2.56ZM250.4,6.75h-3.91V3.06h3.91V.58h5.27V3.06h10V6.75h-10V8.19H250.4ZM255,15.07a18.44,18.44,0,0,1-.58,3.69,18.69,18.69,0,0,1,3,2V15.07Z"/><path d="M311.65,19.57h-3.47V36.4c0,2.52-.36,3.92-2,4.82s-3.73.9-6.7.9a19.36,19.36,0,0,0-1.44-5.18c1.8.09,3.69.09,4.27.05s.77-.14.77-.68V19.57h-3.92V16h-6.57V42.43h-4.68V16H282V12.91a43.26,43.26,0,0,1-2.61,4.91V42.61h-4.9V24.66c-.86,1-1.75,1.93-2.56,2.7A34.31,34.31,0,0,0,269,22.45,35.27,35.27,0,0,0,277.76,10l4.23,1.4v-.32h5.94V.67h4.68V11.11h6.75v3.65h12.33ZM282,2.29a42,42,0,0,1-9.36,11,27.33,27.33,0,0,0-2.74-4A29.53,29.53,0,0,0,277.09.63Zm4.63,16.16c0,8.55-.49,14.22-4,17.64A10.37,10.37,0,0,0,280.1,33c2.52-2.83,2.7-7.2,2.75-14.53Zm10.08-8.19a31.29,31.29,0,0,0-3.42-5.81l3.24-1.75a31.68,31.68,0,0,1,3.65,5.62Zm1.67,24.57c-3.56,0-4.23-1.35-4.23-5.27V18.49h3.82V29.61c0,1.21,0,1.57.27,1.57h1a5.83,5.83,0,0,0,1.48-.22c.09,1,.23,2.74.36,3.6a4.08,4.08,0,0,1-1.84.27ZM311,8.68H300.31V4H311Z"/><path d="M355,2.07v40.5h-5.22V41H321.46v1.58h-4.95V2.07Zm-5.22,34.56V6.48H321.46V36.63Zm-1.35-20.21v2.93H323V16.42h10.26V15.07h-6.62V7.92h18v7.15h-6.84v1.35Zm-23.4,4.23h21.1V35.14h-21.1Zm4.09,11.52h12.69V23.58H329.15Zm1.71-19.75h9.23v-1.8h-9.23ZM331,24.88h9.13v6H331Zm2.83,3.74h3.24V27.18h-3.24Z"/><path d="M383.15,16.56v1.57h14.4v3.24h-14.4V23h17.69v3.74H360.48V23H377.8V21.37H363.62V18.13H377.8V16.56H364.61V13.45H377.8V11.74H360.52V8.05H377.8V6.39H365.11V3.28H377.8V.45h5.35V3.28h12.56V8.05h5.13v3.69h-5.13v4.82Zm-17,11.56h29.83V42.7h-5.4V41.4H371.27v1.35H366.1Zm5.17,3.42v1.62h19.26V31.54ZM390.53,38V36.27H371.27V38Zm-7.38-30h7.25V6.39h-7.25Zm0,5.4h7.25V11.74h-7.25Z"/><path d="M429.28,25.06v2.7h15.07V42.43h-4.68V41H429.28v1.53h-4.73V13.81h-2.29V6.75l-1.71,3.19c-1.44-.94-4.1-2.34-6.39-3.51-.77.9-1.49,1.76-2.34,2.61h7v3.51h-7.92V9.94a30.48,30.48,0,0,1-4.54,3.69,39.83,39.83,0,0,0-2.07-4.81A25.21,25.21,0,0,0,413.26,0l4.18,1.53c-.22.45-.49.85-.72,1.3,2,.9,4.37,2,5.76,2.84h9.77c-.59-1.22-1.31-2.52-1.89-3.65L435.08.13c.9,1.49,2,3.47,2.66,4.82l-1.53.72h9.85v8.14h-3.69V25.06Zm-11.12,5.58a96.2,96.2,0,0,1,4.28,8.78l-3.83,1.93c-.31-.9-.76-2-1.26-3.19-8,3-9.4,3.6-10.35,4.36a14,14,0,0,0-1.71-4.41,2.72,2.72,0,0,0,1.81-2.7V14.17H421V30.28h-9.31v5.54l4-1.35c-.4-.81-.76-1.58-1.12-2.25ZM411.64,18v2.3h4.63V18Zm4.63,8.42V24h-4.63v2.43ZM426.67,9.9v2.83h14.76V9.9ZM437.83,17h-8.55v3.87h8.55Zm-8.55,15.21v4.37h10.39V32.17Z"/><path d="M0,50.89H2.52l7.8,11.64h0V50.89h1.92V65.05H9.84L2,53.41h0V65.05H0Z"/><path d="M22.88,52.69H18.32v-1.8h11v1.8H24.8V65.05H22.88Z"/><path d="M45.26,54a4,4,0,0,0-1.52-1.2,4.53,4.53,0,0,0-1.9-.42,5.11,5.11,0,0,0-2.17.45A5,5,0,0,0,38,54a5.55,5.55,0,0,0-1.07,1.83,6.64,6.64,0,0,0-.38,2.25,6.25,6.25,0,0,0,.36,2.12A5.36,5.36,0,0,0,38,62a4.92,4.92,0,0,0,1.66,1.2,5.4,5.4,0,0,0,2.22.44,4.45,4.45,0,0,0,2.14-.5,4.73,4.73,0,0,0,1.56-1.4l1.62,1.22a5.77,5.77,0,0,1-.56.63,6.21,6.21,0,0,1-1.06.82A7.87,7.87,0,0,1,44,65.1a7,7,0,0,1-2.15.31,7.08,7.08,0,0,1-3-.64,7.29,7.29,0,0,1-3.75-4,7.49,7.49,0,0,1-.5-2.65,8.28,8.28,0,0,1,.54-3,7.05,7.05,0,0,1,1.51-2.4,6.61,6.61,0,0,1,2.33-1.57,7.71,7.71,0,0,1,3-.56,7.36,7.36,0,0,1,2.75.54,5.09,5.09,0,0,1,2.21,1.66Z"/><path d="M53.48,50.89H55.4v5.88h7.34V50.89h1.92V65.05H62.74V58.57H55.4v6.48H53.48Z"/><path d="M85.11,50.89h5a5.79,5.79,0,0,1,2.24.37,3.78,3.78,0,0,1,1.39.94,3.24,3.24,0,0,1,.71,1.28,4.79,4.79,0,0,1,0,2.74,3.31,3.31,0,0,1-.71,1.28,3.91,3.91,0,0,1-1.39.94,6,6,0,0,1-2.24.37H87v6.24H85.11ZM87,57.13h2.52A6.92,6.92,0,0,0,90.66,57a3.06,3.06,0,0,0,1-.33,1.9,1.9,0,0,0,.69-.69,2.76,2.76,0,0,0,0-2.34,1.9,1.9,0,0,0-.69-.69,3.06,3.06,0,0,0-1-.33,6.92,6.92,0,0,0-1.11-.09H87Z"/><path d="M101,50.89h9.14v1.8h-7.22v4.22h6.72v1.8h-6.72v4.54h7.58v1.8H101Z"/><path d="M117.19,50.89h5a5.79,5.79,0,0,1,2.24.37,3.78,3.78,0,0,1,1.39.94,3.24,3.24,0,0,1,.71,1.28,5.16,5.16,0,0,1,.2,1.37,3.66,3.66,0,0,1-.24,1.31,3.7,3.7,0,0,1-.69,1.14,4.12,4.12,0,0,1-1.1.86,3.88,3.88,0,0,1-1.45.43l4,6.46h-2.4l-3.6-6.24h-2.14v6.24h-1.92Zm1.92,6.24h2.52a6.92,6.92,0,0,0,1.11-.09,3.06,3.06,0,0,0,1-.33,1.9,1.9,0,0,0,.69-.69,2.76,2.76,0,0,0,0-2.34,1.9,1.9,0,0,0-.69-.69,3.06,3.06,0,0,0-1-.33,6.92,6.92,0,0,0-1.11-.09h-2.52Z"/><path d="M133.41,50.89h8.9v1.8h-7v4.44h6.5v1.8h-6.5v6.12h-1.92Z"/><path d="M155.39,65.41a7.61,7.61,0,0,1-3-.57,6.94,6.94,0,0,1-2.33-1.57,7.2,7.2,0,0,1-1.52-2.36,8.13,8.13,0,0,1,0-5.88,7,7,0,0,1,1.52-2.36,6.79,6.79,0,0,1,2.33-1.57,8.07,8.07,0,0,1,6,0,7,7,0,0,1,2.33,1.57A7.31,7.31,0,0,1,162.22,55a8.13,8.13,0,0,1,0,5.88,7.54,7.54,0,0,1-1.52,2.36,7.14,7.14,0,0,1-2.33,1.57A7.64,7.64,0,0,1,155.39,65.41Zm0-1.8A5.15,5.15,0,0,0,159.27,62a5.67,5.67,0,0,0,1.08-1.79,6.38,6.38,0,0,0,.38-2.19,6.3,6.3,0,0,0-.38-2.19A5.56,5.56,0,0,0,159.27,54a5.15,5.15,0,0,0-3.88-1.66,5.18,5.18,0,0,0-2.2.45A5,5,0,0,0,151.51,54a5.23,5.23,0,0,0-1.08,1.79,6.08,6.08,0,0,0-.38,2.19,6.15,6.15,0,0,0,.38,2.19A5.33,5.33,0,0,0,151.51,62a5,5,0,0,0,1.68,1.21A5.18,5.18,0,0,0,155.39,63.61Z"/><path d="M169.53,50.89h5a5.79,5.79,0,0,1,2.24.37,3.78,3.78,0,0,1,1.39.94,3.24,3.24,0,0,1,.71,1.28,5.16,5.16,0,0,1,.2,1.37,3.66,3.66,0,0,1-.24,1.31,3.7,3.7,0,0,1-.69,1.14,4.12,4.12,0,0,1-1.1.86,3.88,3.88,0,0,1-1.45.43l4,6.46h-2.4l-3.6-6.24h-2.14v6.24h-1.92Zm1.92,6.24H174a6.92,6.92,0,0,0,1.11-.09,3.06,3.06,0,0,0,1-.33,1.9,1.9,0,0,0,.69-.69,2.76,2.76,0,0,0,0-2.34,1.9,1.9,0,0,0-.69-.69,3.06,3.06,0,0,0-1-.33,6.92,6.92,0,0,0-1.11-.09h-2.52Z"/><path d="M185.61,50.89h2.86L193,61.61h.08l4.46-10.72h2.86V65.05h-1.92V53.41h0l-4.78,11.64h-1.28l-4.78-11.64h0V65.05h-1.92Z"/><path d="M207.87,50.89h1.92V65.05h-1.92Z"/><path d="M217.43,50.89H220l7.8,11.64h0V50.89h1.92V65.05h-2.44l-7.88-11.64h0V65.05h-1.92Z"/><path d="M249.41,57.13v7a6.8,6.8,0,0,1-1.18.56c-.44.16-.9.29-1.37.41a14.46,14.46,0,0,1-1.44.25,13.68,13.68,0,0,1-1.37.08,8.13,8.13,0,0,1-3.21-.6,6.89,6.89,0,0,1-3.86-4,8,8,0,0,1-.51-2.85A7.69,7.69,0,0,1,237,55a7,7,0,0,1,1.52-2.36,6.79,6.79,0,0,1,2.33-1.57,7.61,7.61,0,0,1,3-.57,8.79,8.79,0,0,1,3.2.49,5.76,5.76,0,0,1,2.08,1.35l-1.36,1.46a5.08,5.08,0,0,0-1.86-1.17,6.44,6.44,0,0,0-2.06-.33,5.18,5.18,0,0,0-2.2.45A5,5,0,0,0,240,54a5.23,5.23,0,0,0-1.08,1.79,6.08,6.08,0,0,0-.38,2.19,5.86,5.86,0,0,0,.42,2.23A5.53,5.53,0,0,0,240.09,62a5.28,5.28,0,0,0,1.74,1.19,5.54,5.54,0,0,0,2.18.43,10,10,0,0,0,1.93-.19,5.63,5.63,0,0,0,1.55-.55V58.93h-3.14v-1.8Z"/><path d="M274.15,50.89h1.74L282,65.05h-2.24l-1.42-3.5h-6.74l-1.4,3.5h-2.24Zm3.44,9L275,53.37h0l-2.68,6.5Z"/><path d="M287.79,50.89h5a5.73,5.73,0,0,1,2.24.37,3.7,3.7,0,0,1,1.39.94,3.12,3.12,0,0,1,.71,1.28,4.78,4.78,0,0,1,.2,1.37,3.66,3.66,0,0,1-.24,1.31,3.7,3.7,0,0,1-.69,1.14,4,4,0,0,1-1.1.86,3.78,3.78,0,0,1-1.45.43l4,6.46h-2.4l-3.6-6.24h-2.14v6.24h-1.92Zm1.92,6.24h2.52a6.74,6.74,0,0,0,1.11-.09,2.91,2.91,0,0,0,1-.33A1.76,1.76,0,0,0,295,56a2.76,2.76,0,0,0,0-2.34,1.76,1.76,0,0,0-.69-.69,2.91,2.91,0,0,0-1-.33,6.74,6.74,0,0,0-1.11-.09h-2.52Z"/><path d="M306.61,52.69h-4.56v-1.8h11v1.8h-4.56V65.05h-1.92Z"/><path d="M319.55,62.09a3.2,3.2,0,0,0,1.33,1.15,4.09,4.09,0,0,0,1.67.37,3.38,3.38,0,0,0,1-.15,2.87,2.87,0,0,0,.91-.45,2.37,2.37,0,0,0,.67-.74,1.94,1.94,0,0,0,.26-1,1.52,1.52,0,0,0-.52-1.25,4.18,4.18,0,0,0-1.29-.72c-.51-.2-1.07-.38-1.68-.56A7.06,7.06,0,0,1,320.2,58a4.18,4.18,0,0,1-1.29-1.29,4.08,4.08,0,0,1-.52-2.19,3.77,3.77,0,0,1,1.12-2.6,4.75,4.75,0,0,1,1.49-1,5.57,5.57,0,0,1,2.19-.39,7.36,7.36,0,0,1,2.22.32,3.78,3.78,0,0,1,1.86,1.3l-1.56,1.42a2.49,2.49,0,0,0-1-.9,3.19,3.19,0,0,0-1.5-.34,3.67,3.67,0,0,0-1.33.21,2.48,2.48,0,0,0-.85.54,2,2,0,0,0-.45.71,2.32,2.32,0,0,0-.13.7,1.81,1.81,0,0,0,.52,1.38,4.11,4.11,0,0,0,1.29.78,16.59,16.59,0,0,0,1.68.54,6.94,6.94,0,0,1,1.68.67A3.68,3.68,0,0,1,326.89,59a3.36,3.36,0,0,1,.52,2,4.24,4.24,0,0,1-.39,1.84,4,4,0,0,1-1,1.38,4.72,4.72,0,0,1-1.56.86,6,6,0,0,1-1.92.3,7,7,0,0,1-2.58-.48A4.31,4.31,0,0,1,318,63.45Z"/><path d="M347.06,50.89H349V63.25h6.5v1.8h-8.42Z"/><path d="M361.44,50.89h1.92V65.05h-1.92Z"/><path d="M371,50.89h4.92a6.26,6.26,0,0,1,1.71.22,3.82,3.82,0,0,1,1.36.65,3,3,0,0,1,.9,1.1,3.49,3.49,0,0,1,.33,1.57,2.93,2.93,0,0,1-.68,2,4,4,0,0,1-1.76,1.13v0a2.76,2.76,0,0,1,1.2.33,3.12,3.12,0,0,1,1,.76,3.59,3.59,0,0,1,.65,1.09,3.67,3.67,0,0,1,.24,1.34,3.54,3.54,0,0,1-.39,1.69A3.71,3.71,0,0,1,379.38,64a5.15,5.15,0,0,1-1.58.76,7.11,7.11,0,0,1-1.94.26H371Zm1.92,5.88h2.62a4.76,4.76,0,0,0,1-.11,2.47,2.47,0,0,0,.84-.37,2,2,0,0,0,.57-.66,2.09,2.09,0,0,0,.21-1,2.15,2.15,0,0,0-.54-1.46,2.12,2.12,0,0,0-1.7-.62h-3Zm0,6.6h2.82a5.83,5.83,0,0,0,1-.09,3,3,0,0,0,1-.36,2.36,2.36,0,0,0,.78-.73A2.14,2.14,0,0,0,378.8,61a2.23,2.23,0,0,0-.82-1.89,3.57,3.57,0,0,0-2.22-.63h-2.84Z"/><path d="M387.6,50.89h5a5.76,5.76,0,0,1,2.24.37,3.7,3.7,0,0,1,1.39.94,3.12,3.12,0,0,1,.71,1.28,5.16,5.16,0,0,1,.2,1.37,3.66,3.66,0,0,1-.24,1.31,3.7,3.7,0,0,1-.69,1.14,4.12,4.12,0,0,1-1.1.86,3.83,3.83,0,0,1-1.45.43l4,6.46h-2.4l-3.6-6.24h-2.14v6.24H387.6Zm1.92,6.24H392a6.92,6.92,0,0,0,1.11-.09,3,3,0,0,0,1-.33,1.76,1.76,0,0,0,.69-.69,2.76,2.76,0,0,0,0-2.34,1.76,1.76,0,0,0-.69-.69,3,3,0,0,0-1-.33,6.92,6.92,0,0,0-1.11-.09h-2.52Z"/><path d="M408.26,50.89H410l6.06,14.16h-2.24l-1.42-3.5h-6.74l-1.4,3.5H402Zm3.44,9-2.64-6.5h0l-2.68,6.5Z"/><path d="M421.9,50.89h5a5.76,5.76,0,0,1,2.24.37,3.7,3.7,0,0,1,1.39.94,3.12,3.12,0,0,1,.71,1.28,5.16,5.16,0,0,1,.2,1.37,3.66,3.66,0,0,1-.24,1.31,3.7,3.7,0,0,1-.69,1.14,4.12,4.12,0,0,1-1.1.86,3.83,3.83,0,0,1-1.45.43l4,6.46h-2.4L426,58.81h-2.14v6.24H421.9Zm1.92,6.24h2.52a6.92,6.92,0,0,0,1.11-.09,3,3,0,0,0,1-.33,1.76,1.76,0,0,0,.69-.69,2.76,2.76,0,0,0,0-2.34,1.76,1.76,0,0,0-.69-.69,3,3,0,0,0-1-.33,6.92,6.92,0,0,0-1.11-.09h-2.52Z"/><path d="M441.1,59l-5.36-8.12h2.46l3.86,6.22,4-6.22h2.34L443,59v6H441.1Z"/></g></svg>