<?xml version="1.0" encoding="utf-8"?>
<!-- Generator: Adobe Illustrator 25.1.0, SVG Export Plug-In . SVG Version: 6.00 Build 0)  -->
<svg version="1.1" id="F1" xmlns="http://www.w3.org/2000/svg" xmlns:xlink="http://www.w3.org/1999/xlink" x="0px" y="0px"
	 viewBox="0 0 484 242" style="enable-background:new 0 0 484 242;" xml:space="preserve">
<style type="text/css">
	.st0{fill:#DB4848;}
	.st1{fill:#93C589;fill-opacity:0.8;}
	.st2{fill:#434343;}
</style>
<rect id="Bg" class="st0" width="242" height="242"/>
<circle id="item" class="st1" cx="273.5" cy="31.5" r="31.5"/>
<g id="itemGroup">
	<circle class="st2" cx="170" cy="175" r="3"/>
	<circle class="st2" cx="170" cy="190" r="3"/>
	<circle class="st2" cx="170" cy="206" r="3"/>
	<circle class="st2" cx="186" cy="175" r="3"/>
	<circle class="st2" cx="186" cy="190" r="3"/>
	<circle class="st2" cx="186" cy="206" r="3"/>
	<circle class="st2" cx="202" cy="175" r="3"/>
	<circle class="st2" cx="202" cy="190" r="3"/>
	<circle class="st2" cx="202" cy="206" r="3"/>
	<circle class="st2" cx="217" cy="175" r="3"/>
	<circle class="st2" cx="217" cy="190" r="3"/>
	<circle class="st2" cx="217" cy="206" r="3"/>
	<circle class="st2" cx="233" cy="175" r="3"/>
	<circle class="st2" cx="233" cy="190" r="3"/>
	<circle class="st2" cx="233" cy="206" r="3"/>
	<circle class="st2" cx="249" cy="175" r="3"/>
	<circle class="st2" cx="249" cy="190" r="3"/>
	<circle class="st2" cx="249" cy="206" r="3"/>
	<circle class="st2" cx="265" cy="175" r="3"/>
	<circle class="st2" cx="265" cy="190" r="3"/>
	<circle class="st2" cx="265" cy="206" r="3"/>
	<circle class="st2" cx="281" cy="175" r="3"/>
	<circle class="st2" cx="281" cy="190" r="3"/>
	<circle class="st2" cx="281" cy="206" r="3"/>
	<circle class="st2" cx="296" cy="175" r="3"/>
	<circle class="st2" cx="296" cy="190" r="3"/>
	<circle class="st2" cx="296" cy="206" r="3"/>
	<circle class="st2" cx="312" cy="175" r="3"/>
	<circle class="st2" cx="312" cy="190" r="3"/>
	<circle class="st2" cx="312" cy="206" r="3"/>
</g>
</svg>
