<?xml version="1.0" encoding="utf-8"?>
<!-- Generator: Adobe Illustrator 25.1.0, SVG Export Plug-In . SVG Version: 6.00 Build 0)  -->
<svg version="1.1" id="F8" xmlns="http://www.w3.org/2000/svg" xmlns:xlink="http://www.w3.org/1999/xlink" x="0px" y="0px"
	 viewBox="0 0 484 242" style="enable-background:new 0 0 484 242;" xml:space="preserve">
<style type="text/css">
	.st0{fill:#E89696;}
	.st1{fill:#C1E781;}
</style>
<rect id="Bg" x="242" class="st0" width="242" height="242"/>
<g id="items">
	<path class="st1" d="M122.9,172.6h3.7L111.7,242H108L122.9,172.6z"/>
	<path class="st1" d="M134.9,172.6h3.7L123.7,242h-3.7L134.9,172.6z"/>
	<path class="st1" d="M146.8,172.6h3.7L135.6,242h-3.7L146.8,172.6z"/>
	<path class="st1" d="M158.7,172.6h3.7L147.6,242h-3.7L158.7,172.6z"/>
	<path class="st1" d="M170.7,172.6h3.7L159.5,242h-3.7L170.7,172.6z"/>
	<path class="st1" d="M182.6,172.6h3.7L171.4,242h-3.7L182.6,172.6z"/>
	<path class="st1" d="M194.6,172.6h3.7L183.4,242h-3.7L194.6,172.6z"/>
	<path class="st1" d="M206.5,172.6h3.7L195.3,242h-3.7L206.5,172.6z"/>
	<path class="st1" d="M218.4,172.6h3.7L207.3,242h-3.7L218.4,172.6z"/>
	<path class="st1" d="M230.4,172.6h3.7L219.2,242h-3.7L230.4,172.6z"/>
	<path class="st1" d="M242.3,172.6h3.7L231.1,242h-3.7L242.3,172.6z"/>
	<path class="st1" d="M254.3,172.6h3.7L243.1,242h-3.7L254.3,172.6z"/>
</g>
</svg>
