<svg width="20" height="119" viewBox="0 0 20 119" fill="none" xmlns="http://www.w3.org/2000/svg">
<rect x="11" y="3" width="31" height="2" transform="rotate(90 11 3)" fill="#D04B00"/>
<path d="M10 0L14.3301 4.5H5.66987L10 0Z" fill="#D04B00"/>
<path d="M6 42.9902L14.5312 42.9902L14.5312 45.7793C14.5312 46.7051 14.3398 47.4004 13.957 47.8652C13.5742 48.334 13.0078 48.5684 12.2578 48.5684C11.8594 48.5684 11.5059 48.4551 11.1973 48.2285C10.8926 48.002 10.6562 47.6934 10.4883 47.3027C10.3594 47.7637 10.1133 48.127 9.75 48.3926C9.39062 48.6621 8.96094 48.7969 8.46094 48.7969C7.69531 48.7969 7.09375 48.5488 6.65625 48.0527C6.21875 47.5566 6 46.8555 6 45.9492L6 42.9902ZM9.99023 44.1152L6.91992 44.1152L6.91992 45.9727C6.91992 46.4961 7.05469 46.9082 7.32422 47.209C7.59766 47.5137 7.97266 47.666 8.44922 47.666C9.47656 47.666 9.99023 47.1074 9.99023 45.9902L9.99023 44.1152ZM10.8926 44.1152L10.8926 45.8145C10.8926 46.3066 11.0156 46.6992 11.2617 46.9922C11.5078 47.2891 11.8418 47.4375 12.2637 47.4375C12.7324 47.4375 13.0723 47.3008 13.2832 47.0273C13.498 46.7539 13.6055 46.3379 13.6055 45.7793L13.6055 44.1152L10.8926 44.1152ZM8.22656 55.4177L8.22656 51.8435L6 51.0408L6 49.8806L14.5312 53.1384L14.5312 54.1228L6 57.3865L6 56.2322L8.22656 55.4177ZM9.15234 52.1834L9.15234 55.0837L13.1426 53.6306L9.15234 52.1834ZM8.70703 64.98C7.80469 64.8745 7.10742 64.5405 6.61523 63.978C6.12695 63.4195 5.88281 62.6753 5.88281 61.7456C5.88281 60.7378 6.24414 59.9292 6.9668 59.3198C7.68945 58.7144 8.65625 58.4116 9.86719 58.4116L10.6875 58.4116C11.4805 58.4116 12.1777 58.5523 12.7793 58.8335C13.3809 59.1187 13.8418 59.521 14.1621 60.0405C14.4863 60.5601 14.6484 61.1616 14.6484 61.8452C14.6484 62.7515 14.3945 63.478 13.8867 64.0249C13.3828 64.5718 12.6836 64.8902 11.7891 64.98L11.7891 63.8491C12.4687 63.7515 12.9609 63.5386 13.2656 63.2105C13.5703 62.8862 13.7227 62.4312 13.7227 61.8452C13.7227 61.1265 13.457 60.562 12.9258 60.1519C12.3945 59.7456 11.6387 59.5425 10.6582 59.5425L9.83203 59.5425C8.90625 59.5425 8.16992 59.7359 7.62305 60.1226C7.07617 60.5093 6.80273 61.0503 6.80273 61.7456C6.80273 62.3706 6.94336 62.8491 7.22461 63.1812C7.50976 63.5171 8.00391 63.7398 8.70703 63.8491L8.70703 64.98ZM9.9668 68.929L8.88281 67.886L6 67.886L6 66.761L14.5312 66.761L14.5312 67.886L10.3125 67.886L14.5312 71.677L14.5312 73.0364L10.7637 69.679L6 73.3001L6 71.9524L9.9668 68.929ZM13.6055 83.4012L13.6055 80.659L6 80.659L6 79.5398L13.6055 79.5398L13.6055 76.8035L14.5312 76.8035L14.5312 83.4012L13.6055 83.4012ZM9.99023 91.3052C9.15429 91.3052 8.42383 91.1646 7.79883 90.8834C7.17773 90.6021 6.70312 90.2037 6.375 89.688C6.04687 89.1724 5.88281 88.5709 5.88281 87.8834C5.88281 87.2115 6.04687 86.6158 6.375 86.0962C6.70703 85.5767 7.17773 85.1724 7.78711 84.8834C8.40039 84.5982 9.10937 84.4517 9.91406 84.4439L10.5293 84.4439C11.3496 84.4439 12.0742 84.5865 12.7031 84.8716C13.332 85.1568 13.8125 85.5591 14.1445 86.0787C14.4805 86.6021 14.6484 87.1998 14.6484 87.8716C14.6484 88.5552 14.4824 89.1568 14.1504 89.6763C13.8223 90.1998 13.3437 90.6021 12.7148 90.8834C12.0898 91.1646 11.3613 91.3052 10.5293 91.3052L9.99023 91.3052ZM10.541 90.1861C11.5527 90.1861 12.3281 89.983 12.8672 89.5767C13.4102 89.1705 13.6816 88.6021 13.6816 87.8716C13.6816 87.1607 13.4102 86.6002 12.8672 86.19C12.3281 85.7837 11.5781 85.5748 10.6172 85.563L9.99023 85.563C9.00976 85.563 8.23828 85.7681 7.67578 86.1783C7.11719 86.5923 6.83789 87.1607 6.83789 87.8834C6.83789 88.6099 7.10156 89.1724 7.6289 89.5709C8.16015 89.9693 8.91992 90.1744 9.9082 90.1861L10.541 90.1861ZM13.6055 102.109L13.6055 99.3673L6 99.3673L6 98.2481L13.6055 98.2481L13.6055 95.5118L14.5312 95.5118L14.5312 102.109L13.6055 102.109ZM9.99023 110.014C9.15429 110.014 8.42383 109.873 7.79883 109.592C7.17773 109.31 6.70312 108.912 6.375 108.396C6.04687 107.881 5.88281 107.279 5.88281 106.592C5.88281 105.92 6.04687 105.324 6.375 104.805C6.70703 104.285 7.17773 103.881 7.78711 103.592C8.40039 103.306 9.10937 103.16 9.91406 103.152L10.5293 103.152C11.3496 103.152 12.0742 103.295 12.7031 103.58C13.332 103.865 13.8125 104.267 14.1445 104.787C14.4805 105.31 14.6484 105.908 14.6484 106.58C14.6484 107.264 14.4824 107.865 14.1504 108.385C13.8223 108.908 13.3437 109.31 12.7148 109.592C12.0898 109.873 11.3613 110.014 10.5293 110.014L9.99023 110.014ZM10.541 108.894C11.5527 108.894 12.3281 108.691 12.8672 108.285C13.4102 107.879 13.6816 107.31 13.6816 106.58C13.6816 105.869 13.4102 105.308 12.8672 104.898C12.3281 104.492 11.5781 104.283 10.6172 104.271L9.99023 104.271C9.00976 104.271 8.23828 104.476 7.67578 104.887C7.11718 105.301 6.83789 105.869 6.83789 106.592C6.83789 107.318 7.10156 107.881 7.6289 108.279C8.16015 108.678 8.91992 108.883 9.9082 108.894L10.541 108.894ZM9.33984 113.066L6 113.066L6 111.941L14.5312 111.941L14.5312 115.088C14.5312 116.021 14.293 116.752 13.8164 117.279C13.3398 117.81 12.709 118.076 11.9238 118.076C11.0957 118.076 10.457 117.816 10.0078 117.296C9.5625 116.781 9.33984 116.041 9.33984 115.076L9.33984 113.066ZM10.2598 113.066L10.2598 115.088C10.2598 115.689 10.4004 116.15 10.6816 116.47C10.9668 116.791 11.3769 116.951 11.9121 116.951C12.4199 116.951 12.8262 116.791 13.1309 116.47C13.4355 116.15 13.5937 115.711 13.6055 115.152L13.6055 113.066L10.2598 113.066Z" fill="#D04B00"/>
</svg>
