<?xml version="1.0" encoding="utf-8"?>
<!-- Generator: Adobe Illustrator 25.1.0, SVG Export Plug-In . SVG Version: 6.00 Build 0)  -->
<svg version="1.1" id="Creat_by_Flysheet" xmlns="http://www.w3.org/2000/svg" xmlns:xlink="http://www.w3.org/1999/xlink" x="0px"
	 y="0px" viewBox="0 0 130 158" style="enable-background:new 0 0 130 158;" xml:space="preserve">
<style type="text/css">
	.st0{fill:#E0E0E0;}
	.st1{opacity:0.3;}
</style>
<rect id="bg" class="st0" width="130" height="158"/>
<g id="text" class="st1">
	<path d="M46.8,70.6c-0.5,0.6-1.1,1.1-1.6,1.6c-0.2-0.3-0.7-1-1-1.3c1.1-0.8,2.3-2,2.9-3.3l1.4,0.5c-0.2,0.4-0.4,0.8-0.7,1.2h8.8
		v1.5h-9.8C46.8,70.8,46.8,70.6,46.8,70.6z M44.3,80.2c0.5-0.7,1.2-1.8,1.6-2.7l1.6,0.4c-0.4,1-1,2.2-1.6,3L44.3,80.2z M55.3,73.9
		v1.8H57v1.5H44.5v-1.5h1.9v-1.8H45v-1.5h1.5v-1.3H48v1.3h1v-1.3h1.4v1.3h1.1v-1.3h1.3v1.3h1v-1.3h1.5v1.3h1.5v1.5H55.3z M47.9,75.7
		h1v-1.8h-1V75.7z M49.8,77.8c0.2,0.8,0.3,1.9,0.4,2.6l-1.6,0.1c0-0.7-0.1-1.8-0.3-2.7H49.8z M50.2,73.9v1.8h1.1v-1.8H50.2z
		 M52.8,77.7c0.4,0.8,0.7,1.9,0.8,2.6l-1.7,0.3c-0.1-0.7-0.4-1.8-0.7-2.7L52.8,77.7z M53.8,73.9h-1v1.8h1V73.9z M55.6,77.3
		c0.6,0.8,1.3,2,1.6,2.8l-1.6,0.7c-0.3-0.7-1-1.9-1.5-2.9L55.6,77.3z"/>
	<path d="M61.1,77.9c-0.4,0.8-1,1.8-1.5,2.4c-0.3-0.2-0.8-0.7-1.1-0.9c0.5-0.5,1-1.3,1.3-2L61.1,77.9z M66.2,74.1h-7.8v-1.3h3.2
		c-0.1-0.2-0.1-0.3-0.2-0.4l1.1-0.2h-3.4v-4h6.7v4h-2.7c0.1,0.2,0.2,0.4,0.3,0.6h2.9L66.2,74.1L66.2,74.1z M63.1,77.4v1.8
		c0,0.7-0.1,1-0.6,1.2c-0.4,0.2-1,0.2-1.8,0.2c-0.1-0.4-0.3-1-0.5-1.3c0.4,0,0.9,0,1,0s0.2,0,0.2-0.2v-1.8h-2.3v-2.9h6.3v2.9
		L63.1,77.4C63.1,77.3,63.1,77.4,63.1,77.4z M60.6,69.7h3.5v-0.5h-3.5V69.7z M60.6,71.2h3.5v-0.5h-3.5V71.2z M60.8,76.4h3.1v-0.7
		h-3.1V76.4z M71.2,76.2c-1.1,1.9-2.7,3.4-4.5,4.5c-0.3-0.4-0.7-0.9-1.1-1.3c0,0.1,0.1,0.2,0.1,0.3l-1.2,0.6
		c-0.2-0.6-0.7-1.6-1.1-2.3l1.2-0.5c0.4,0.5,0.8,1.3,1.1,1.8c1.7-0.8,3.3-2.1,4.1-3.7L71.2,76.2z M70.8,68.6c-1,1.3-2.4,2.6-3.7,3.4
		c-0.3-0.4-0.8-0.9-1.2-1.2c1.2-0.6,2.6-1.8,3.3-2.9L70.8,68.6z M71.1,72.3c-1,1.4-2.5,2.7-4,3.6c-0.3-0.4-0.7-0.9-1.1-1.2
		c1.3-0.7,2.8-1.9,3.6-3.1L71.1,72.3z"/>
	<path d="M84.8,75c-0.4,0.2-0.9,0.5-1.3,0.7c0.4,1.2,1.1,2.4,2,3c-0.3,0.3-0.8,0.8-1,1.2c-1-0.8-1.8-2.2-2.2-3.7l-0.4,0.2
		c0.5,1.5,0.2,3.1-0.4,3.7c-0.5,0.4-0.9,0.5-1.5,0.5c-0.3,0-0.6,0-0.9,0c0-0.4-0.1-1-0.4-1.4c0.4,0,0.7,0.1,0.9,0.1
		c0.3,0,0.5,0,0.6-0.3c0.2-0.2,0.3-0.7,0.3-1.3c-1.2,1-2.7,1.8-4,2.3c-0.2-0.3-0.6-0.9-0.9-1.2c1.7-0.5,3.7-1.5,4.7-2.5
		c-0.1-0.2-0.1-0.3-0.2-0.4c-1,0.8-2.4,1.6-3.6,2c-0.2-0.3-0.6-0.8-0.9-1c1.3-0.4,3-1.1,3.9-1.8c-0.1-0.1-0.3-0.3-0.4-0.4
		c-0.9,0.6-1.8,1.1-2.7,1.4c-0.2-0.3-0.6-0.8-0.9-1c0.9-0.3,1.9-0.7,2.7-1.1h-1.5v-2c-0.1,0.1-0.3,0.3-0.4,0.4
		c-0.2-0.3-0.6-0.9-1-1.1l0,0v9.5h-1.6v-7c-0.3,0.4-0.5,0.7-0.8,1c-0.2-0.4-0.6-1.3-0.9-1.7c1.2-1.3,2.4-3.3,3-5.2l1.6,0.5
		c-0.3,1-0.8,1.9-1.3,2.9c1.4-1,2.4-2.3,3-3.4l1.5,0.3c-0.1,0.2-0.3,0.5-0.4,0.7h2.2l0.3-0.1l0.9,0.7c-0.3,0.4-0.6,0.9-1,1.3h2.6V74
		h-4.1l0,0c0.5,0.4,0.9,0.9,1.2,1.4c0.8-0.4,1.7-0.9,2.2-1.4L84.8,75z M78.6,69.9c-0.2,0.3-0.4,0.5-0.6,0.7h2.1
		c0.2-0.2,0.4-0.5,0.6-0.7H78.6z M78.1,72.7h1.5v-0.9h-1.5V72.7z M82.8,71.8h-1.7v0.9h1.7V71.8z"/>
	<path d="M46.8,93.9h-2l-3.1-5.4l0,0v5.4h-2v-8.5h2l3.1,5.4l0,0v-5.4h2V93.9z"/>
	<path d="M47.8,90.7c0-1,0.3-1.7,0.8-2.3s1.3-0.9,2.3-0.9s1.7,0.3,2.3,0.9s0.8,1.4,0.8,2.3v0.1c0,1-0.3,1.7-0.8,2.3S51.8,94,50.9,94
		c-1,0-1.7-0.3-2.3-0.9S47.8,91.7,47.8,90.7L47.8,90.7z M49.8,90.7c0,0.5,0.1,0.9,0.2,1.3s0.4,0.5,0.8,0.5c0.4,0,0.7-0.2,0.8-0.5
		s0.3-0.7,0.3-1.2v-0.1c0-0.5-0.1-0.9-0.3-1.2c-0.2-0.3-0.4-0.5-0.8-0.5c-0.4,0-0.7,0.2-0.8,0.5S49.8,90.2,49.8,90.7L49.8,90.7z"/>
	<path d="M59.9,93.9h-2v-8.5h2V93.9z"/>
	<path d="M63.1,87.6l0.1,0.8c0.2-0.3,0.5-0.5,0.8-0.7s0.6-0.2,1-0.2s0.7,0.1,1,0.3c0.3,0.2,0.5,0.4,0.6,0.8c0.2-0.3,0.4-0.6,0.8-0.8
		c0.4-0.2,0.7-0.3,1.1-0.3c0.6,0,1.1,0.2,1.5,0.6s0.5,1.1,0.5,2V94h-2v-3.9c0-0.4-0.1-0.7-0.2-0.8c-0.1-0.1-0.3-0.2-0.6-0.2
		c-0.2,0-0.4,0-0.5,0.1s-0.3,0.2-0.4,0.3c0,0.1,0,0.1,0,0.2s0,0.1,0,0.1V94h-2v-3.9c0-0.4-0.1-0.7-0.2-0.8c-0.1-0.1-0.3-0.2-0.6-0.2
		c-0.2,0-0.3,0-0.5,0.1s-0.3,0.2-0.4,0.3V94h-2v-6.3L63.1,87.6C63.2,87.7,63.2,87.6,63.1,87.6z"/>
	<path d="M75.2,93.9c-0.1-0.1-0.1-0.2-0.1-0.3S75,93.3,75,93.2c-0.2,0.3-0.4,0.5-0.7,0.6c-0.3,0.1-0.6,0.2-1,0.2
		c-0.6,0-1.1-0.2-1.5-0.5s-0.6-0.8-0.6-1.4s0.2-1.1,0.7-1.5s1.2-0.5,2.1-0.5h0.7v-0.6c0-0.3-0.1-0.5-0.2-0.6s-0.3-0.2-0.6-0.2
		c-0.2,0-0.4,0.1-0.5,0.2s-0.2,0.3-0.2,0.5h-1.9l0,0c0-0.6,0.2-1.1,0.7-1.5s1.2-0.6,2-0.6s1.4,0.2,1.9,0.6s0.7,0.9,0.7,1.7V92
		c0,0.3,0,0.7,0.1,0.9c0.1,0.2,0.1,0.6,0.3,0.9L75.2,93.9z M73.9,92.6c0.2,0,0.4,0,0.5-0.1s0.3-0.2,0.4-0.3v-1h-0.7
		c-0.3,0-0.5,0.1-0.7,0.2s-0.2,0.3-0.2,0.6c0,0.2,0.1,0.3,0.2,0.4C73.6,92.4,73.8,92.6,73.9,92.6z"/>
	<path d="M77.8,90.7c0-1,0.2-1.8,0.6-2.4s1-0.9,1.8-0.9c0.3,0,0.6,0.1,0.9,0.2s0.5,0.4,0.7,0.7l0.1-0.8h1.7v6.1c0,0.8-0.3,1.5-0.9,2
		s-1.4,0.8-2.3,0.8c-0.3,0-0.7,0-1-0.1s-0.7-0.2-1-0.4l0.3-1.5c0.3,0.1,0.6,0.2,0.8,0.3c0.2,0.1,0.6,0.1,0.9,0.1
		c0.4,0,0.7-0.1,0.9-0.3c0.2-0.2,0.3-0.5,0.3-0.9v-0.3c-0.2,0.2-0.4,0.4-0.6,0.5S80.6,94,80.2,94c-0.8,0-1.4-0.3-1.8-0.9
		C77.9,92.5,77.8,91.8,77.8,90.7L77.8,90.7z M79.8,90.9c0,0.5,0.1,0.9,0.2,1.2c0.1,0.3,0.4,0.4,0.8,0.4c0.2,0,0.4,0,0.6-0.1
		s0.3-0.2,0.4-0.3v-2.7c-0.1-0.1-0.2-0.3-0.4-0.3c-0.2,0-0.3-0.1-0.5-0.1c-0.4,0-0.6,0.2-0.8,0.5C79.9,89.8,79.8,90.2,79.8,90.9
		C79.8,90.8,79.8,90.9,79.8,90.9z"/>
	<path d="M87.6,94.1c-0.9,0-1.7-0.3-2.2-0.9s-0.8-1.3-0.8-2.2v-0.2c0-1,0.3-1.8,0.8-2.4s1.2-0.9,2.2-0.9c0.9,0,1.5,0.3,2,0.8
		s0.7,1.2,0.7,2.1v1h-3.6l0,0c0,0.3,0.2,0.6,0.4,0.8c0.2,0.2,0.5,0.3,0.9,0.3s0.7,0,0.9-0.1c0.2-0.1,0.5-0.2,0.9-0.3l0.5,1.2
		c-0.3,0.2-0.6,0.4-1.1,0.5C88.8,93.9,88.1,94.1,87.6,94.1z M87.6,89c-0.3,0-0.5,0.1-0.6,0.3c-0.1,0.2-0.2,0.5-0.3,0.8l0,0h1.7v-0.2
		c0-0.3-0.1-0.6-0.2-0.7C88.1,89.1,87.8,89,87.6,89z"/>
</g>
</svg>
