<?xml version="1.0" encoding="utf-8"?>
<!-- Generator: Adobe Illustrator 25.1.0, SVG Export Plug-In . SVG Version: 6.00 Build 0)  -->
<svg version="1.1" id="Creat_by_Flysheet" xmlns="http://www.w3.org/2000/svg" xmlns:xlink="http://www.w3.org/1999/xlink" x="0px"
	 y="0px" viewBox="0 0 130 158" style="enable-background:new 0 0 130 158;" xml:space="preserve">
<style type="text/css">
	.st0{fill:#E0E0E0;}
	.st1{fill-opacity:0.3;}
</style>
<rect id="bg" class="st0" width="130" height="158"/>
<path id="text" class="st1" d="M23,56.9L22.7,57h-3.1v11.6h1.4V58.4h1.1c-0.2,0.9-0.5,2.1-0.8,2.9c0.8,0.9,1,1.7,1,2.3
	c0,0.4-0.1,0.6-0.2,0.7c-0.1,0.1-0.2,0.1-0.4,0.1c-0.2,0-0.4,0-0.6,0c0.2,0.4,0.3,1,0.4,1.4c0.3,0,0.6,0,0.9,0
	c0.3-0.1,0.6-0.1,0.8-0.3c0.4-0.3,0.6-0.8,0.6-1.7c0-0.8-0.2-1.7-1-2.7c0.4-1,0.8-2.4,1.2-3.6L23,56.9z M25.9,60.6h3v1.1h-3V60.6z
	 M28.9,58.3v1h-3v-1H28.9z M29.8,63.1c-0.3,0.4-0.7,0.9-1.2,1.3c-0.2-0.4-0.4-0.9-0.5-1.4h2.3v-6h-6v9.7c-0.5,0.1-1,0.2-1.4,0.2
	l0.5,1.5c1.2-0.3,2.8-0.6,4.3-0.9l-0.1-1.4c-0.6,0.1-1.3,0.2-1.9,0.3V63h0.9c0.6,2.5,1.6,4.5,3.5,5.5c0.2-0.4,0.7-1,1-1.3
	c-0.8-0.4-1.5-1-2-1.7c0.6-0.4,1.2-1,1.8-1.5L29.8,63.1z M44.4,58.2h-2.8v-1.8H40v1.8h-2.8v1.4h7.2V58.2z M37.3,63.6
	c-0.2-0.4-1.3-1.9-1.6-2.4v-0.7h1.4v-1.4h-1.4v-2.7h-1.4v2.7h-1.6v1.4h1.5c-0.4,1.5-1.1,3.3-1.8,4.4c0.2,0.4,0.6,1,0.7,1.4
	c0.5-0.7,0.9-1.6,1.2-2.6v4.9h1.4v-5.4c0.3,0.6,0.6,1.2,0.8,1.6L37.3,63.6z M44.6,62.4c-0.4-0.8-1.2-1.9-2-2.7l-1.2,0.7
	c0.5,0.6,1.1,1.3,1.5,2l-1.3-0.3c-0.2,0.7-0.5,1.4-0.8,2.1c-0.4-0.6-0.8-1.3-1-2l-1,0.3c0.5-0.6,1.1-1.4,1.4-2.1l-1.4-0.6
	c-0.4,0.9-1.1,1.9-1.9,2.5c0.3,0.2,0.8,0.7,1.1,1c0.2-0.2,0.4-0.3,0.6-0.5c0.4,1,0.8,1.9,1.4,2.7c-0.8,0.8-1.8,1.5-3.2,1.9
	c0.3,0.3,0.6,0.9,0.8,1.2c1.3-0.5,2.4-1.2,3.3-2c0.8,0.9,1.8,1.5,2.9,2c0.2-0.4,0.7-1.1,1.1-1.4c-1.2-0.4-2.1-1-3-1.8
	c0.6-0.8,1-1.7,1.3-2.7c0.1,0.2,0.2,0.4,0.3,0.6L44.6,62.4z M55.4,60.8v3.2c-1.2-0.7-2-1.8-2.5-3.2H55.4z M48.1,60.8h2.5
	c-0.4,1.5-1.2,2.7-2.5,3.4V60.8z M57,59.3h-4.4c-0.1-0.7-0.2-1.5-0.2-2.4h-3.5v1.4H51c0,0.3,0.1,0.7,0.1,1h-4.6v9.3h1.6v-3.9
	c0.3,0.3,0.6,0.7,0.7,0.9c1.5-0.8,2.4-2,3-3.6c0.5,1.5,1.4,2.7,2.8,3.5c0.2-0.3,0.6-0.8,0.9-1.1v2.3c0,0.2-0.1,0.3-0.3,0.3
	c-0.2,0-1.1,0-1.8,0c0.2,0.4,0.5,1.1,0.5,1.6c1.1,0,2,0,2.5-0.3c0.6-0.3,0.7-0.7,0.7-1.5V59.3z M59.3,64c-0.1,1.1-0.3,2.2-0.7,3
	c0.3,0.1,0.9,0.4,1.1,0.5c0.4-0.8,0.6-2.1,0.8-3.4L59.3,64z M67.3,65.4c-0.2,0-0.2-0.1-0.2-0.4v-1.1H69v-1.2h-1.2v-1H69v-1.2h-0.6
	c0.2-0.4,0.5-1,0.7-1.6l-1.2-0.3c-0.1,0.5-0.3,1.3-0.5,1.8l0.5,0.2h-1.6l0.6-0.2c-0.1-0.4-0.3-1.1-0.5-1.7L65.5,59
	c0.2,0.5,0.4,1.1,0.4,1.5h-0.5v1.2h1.1v1h-1.1v1.2h0.4V65c0,1.2,0.3,1.7,1.5,1.7h0.9c0.3,0,0.6,0,0.8-0.1c0-0.3-0.1-0.9-0.1-1.2
	c-0.2,0.1-0.5,0.1-0.7,0.1H67.3z M70.7,57h-7v5.3c-0.2-0.6-0.5-1.2-0.8-1.7l-1.1,0.5c0.1,0.3,0.3,0.5,0.4,0.8L61.1,62
	c0.8-1,1.7-2.3,2.4-3.4L62.3,58c-0.3,0.6-0.7,1.4-1.2,2.1c-0.1-0.2-0.3-0.3-0.4-0.5c0.5-0.7,1-1.8,1.5-2.7l-1.3-0.5
	c-0.2,0.7-0.6,1.5-0.9,2.2c-0.1-0.1-0.2-0.2-0.3-0.3l-0.8,1c0.5,0.5,1.1,1.2,1.5,1.8c-0.2,0.3-0.4,0.5-0.6,0.8l-0.9,0.1l0.2,1.3
	l1.8-0.1v5.3h1.3v-5.4l0.7-0.1c0.1,0.3,0.2,0.5,0.2,0.8l0.8-0.4v1.8c-0.1-0.5-0.3-0.9-0.5-1.4l-1.1,0.3c0.3,0.7,0.5,1.7,0.6,2.3
	l0.9-0.3v2.3h1.4V58.3h4.2V67c0,0.2-0.1,0.2-0.2,0.3c-0.2,0-0.8,0-1.3,0c0.2,0.4,0.4,0.9,0.4,1.3c0.9,0,1.5,0,2-0.2
	c0.4-0.2,0.6-0.6,0.6-1.3V57z M75.7,63.7l-0.9,0.4V61h1v-1.5h-1v-2.9h-1.4v2.9h-1.2V61h1.2v3.9c-0.5,0.2-0.9,0.4-1.3,0.6l0.6,1.6
	c1.1-0.6,2.3-1.3,3.5-2L75.7,63.7z M82.6,60.5c-0.2,0.9-0.4,1.7-0.7,2.4c-0.1-1-0.2-2.1-0.2-3.3h2.5v-1.4h-0.6l0.6-0.5
	c-0.3-0.4-0.9-0.9-1.4-1.3l-0.9,0.8c0.4,0.3,0.8,0.7,1.1,1h-1.4c0-0.6,0-1.2,0-1.8h-1.5c0,0.6,0,1.2,0,1.8H76v1.4h4.2
	c0.1,2,0.2,3.9,0.5,5.5c-0.2,0.2-0.4,0.5-0.5,0.7l-0.1-1c-1.6,0.4-3.3,0.8-4.5,1l0.4,1.4c1.1-0.3,2.6-0.7,4-1c-0.5,0.5-1,1-1.7,1.4
	c0.3,0.2,0.9,0.7,1.1,1c0.7-0.5,1.3-1.1,1.8-1.7c0.4,1.1,0.9,1.8,1.7,1.8c1,0,1.4-0.5,1.6-2.2c-0.3-0.2-0.8-0.5-1-0.9
	c0,1.2-0.1,1.6-0.3,1.6c-0.3,0-0.6-0.7-0.8-1.9c0.8-1.3,1.3-2.8,1.7-4.5L82.6,60.5z M78.5,63.3h-1v-1.6h1V63.3z M76.4,60.5v4h3.3v-4
	H76.4z M92.5,57.4c0.9,1.8,2.4,3.8,3.7,5.1c0.3-0.4,0.9-1,1.3-1.4c-1.2-1.1-2.7-2.9-3.4-4.4L92.5,57.4z M88.8,56.7
	c-0.7,1.8-1.9,3.6-3.2,4.6c0.4,0.2,1.2,0.8,1.5,1.2c1.3-1.2,2.7-3.2,3.5-5.3L88.8,56.7z M92.7,64c0.5,0.6,1,1.4,1.5,2.1
	c-1.5,0.1-3,0.2-4.4,0.2c0.8-1.4,1.6-3.1,2.3-4.7l-1.9-0.4c-0.5,1.6-1.4,3.7-2.2,5.3l-1.8,0.1l0.2,1.6c2.3-0.1,5.6-0.3,8.7-0.5
	c0.2,0.4,0.4,0.7,0.5,1l1.6-0.8c-0.6-1.2-1.9-3.1-3-4.5L92.7,64z M102.9,58v0.7h-2V58H102.9z M100.8,60.4v-0.7h2v0.7H100.8z
	 M104.3,61.5v-4.6h-5v11.6h1.5v-7H104.3z M104.1,64.4v-1h1.2v1H104.1z M108.1,65.6v-1.3h-1.4v-1h1.2v-1.2h-6.3v1.2h1.2v1h-1.4v1.3
	h1.3c-0.1,0.7-0.5,1.5-1.3,2c0.3,0.2,0.8,0.6,1,0.9c1.1-0.8,1.5-2,1.7-2.9h1.2v2.7h1.4v-2.7H108.1z M106.6,60.4v-0.7h2.1v0.7H106.6z
	 M108.7,58v0.7h-2.1V58H108.7z M110.3,56.9h-5.1v4.6h3.6v5.2c0,0.2-0.1,0.3-0.3,0.3c-0.2,0-0.8,0-1.4,0c0.2,0.4,0.4,1.1,0.5,1.5
	c1,0,1.7,0,2.1-0.3c0.5-0.2,0.6-0.7,0.6-1.5V56.9z M18.1,80.9v2.5h-1.5v-7.1h2.8c0.5,0,1,0.1,1.4,0.3c0.4,0.2,0.7,0.5,0.9,0.8
	c0.2,0.4,0.3,0.8,0.3,1.2c0,0.7-0.2,1.2-0.7,1.7c-0.5,0.4-1.1,0.6-2,0.6H18.1z M18.1,79.7h1.3c0.4,0,0.7-0.1,0.9-0.3
	c0.2-0.2,0.3-0.4,0.3-0.8c0-0.3-0.1-0.6-0.3-0.8c-0.2-0.2-0.5-0.3-0.8-0.3h-1.3V79.7z M26.4,82.9c-0.3,0.4-0.8,0.6-1.4,0.6
	c-0.6,0-1-0.2-1.3-0.5c-0.3-0.3-0.4-0.8-0.5-1.4v-3.5h1.4v3.4c0,0.6,0.3,0.8,0.8,0.8c0.5,0,0.8-0.2,1-0.5v-3.7h1.4v5.3h-1.3
	L26.4,82.9z M33.7,80.8c0,0.8-0.2,1.5-0.5,2c-0.4,0.5-0.9,0.7-1.5,0.7c-0.6,0-1-0.2-1.4-0.7l-0.1,0.6H29v-7.5h1.4v2.7
	c0.3-0.4,0.8-0.6,1.3-0.6c0.6,0,1.1,0.2,1.5,0.7C33.6,79.2,33.7,79.9,33.7,80.8L33.7,80.8z M32.3,80.7c0-0.5-0.1-0.9-0.3-1.2
	c-0.2-0.2-0.4-0.4-0.8-0.4c-0.4,0-0.8,0.2-0.9,0.6v2.1c0.2,0.4,0.5,0.6,0.9,0.6c0.5,0,0.8-0.2,0.9-0.7
	C32.3,81.5,32.3,81.2,32.3,80.7z M36.3,83.4h-1.4v-7.5h1.4V83.4z M39.2,83.4h-1.4v-5.3h1.4V83.4z M37.7,76.8c0-0.2,0.1-0.4,0.2-0.5
	c0.1-0.1,0.3-0.2,0.6-0.2c0.2,0,0.4,0.1,0.6,0.2c0.1,0.1,0.2,0.3,0.2,0.5c0,0.2-0.1,0.4-0.2,0.5c-0.1,0.1-0.3,0.2-0.6,0.2
	s-0.4-0.1-0.6-0.2C37.7,77.2,37.7,77,37.7,76.8z M42.7,82.4c0.3,0,0.5-0.1,0.6-0.2c0.2-0.1,0.2-0.3,0.3-0.6h1.3c0,0.4-0.1,0.7-0.3,1
	c-0.2,0.3-0.5,0.5-0.8,0.7c-0.3,0.2-0.7,0.2-1.1,0.2c-0.8,0-1.4-0.2-1.8-0.7c-0.4-0.5-0.7-1.1-0.7-2v-0.1c0-0.8,0.2-1.5,0.6-1.9
	c0.4-0.5,1-0.7,1.8-0.7c0.7,0,1.2,0.2,1.6,0.6c0.4,0.4,0.6,0.9,0.6,1.5h-1.3c0-0.3-0.1-0.5-0.3-0.7c-0.2-0.2-0.4-0.3-0.6-0.3
	c-0.3,0-0.6,0.1-0.7,0.4c-0.2,0.2-0.2,0.6-0.2,1.2v0.1c0,0.5,0.1,0.9,0.2,1.2S42.4,82.4,42.7,82.4z M50.1,83.4h-1.4v-5.3h1.4V83.4z
	 M48.6,76.8c0-0.2,0.1-0.4,0.2-0.5c0.1-0.1,0.3-0.2,0.6-0.2c0.2,0,0.4,0.1,0.6,0.2c0.1,0.1,0.2,0.3,0.2,0.5c0,0.2-0.1,0.4-0.2,0.5
	c-0.1,0.1-0.3,0.2-0.6,0.2c-0.2,0-0.4-0.1-0.6-0.2C48.7,77.2,48.6,77,48.6,76.8z M52.8,78.2l0,0.6c0.4-0.5,0.9-0.7,1.5-0.7
	c0.6,0,1,0.2,1.2,0.5c0.3,0.3,0.4,0.8,0.4,1.5v3.4h-1.4v-3.4c0-0.3-0.1-0.5-0.2-0.6c-0.1-0.1-0.3-0.2-0.6-0.2
	c-0.4,0-0.7,0.2-0.9,0.5v3.7h-1.4v-5.3H52.8z M61.7,76.9v1.3h0.9v1h-0.9v2.6c0,0.2,0,0.3,0.1,0.4c0.1,0.1,0.2,0.1,0.4,0.1
	c0.2,0,0.3,0,0.4,0v1.1c-0.3,0.1-0.6,0.1-0.9,0.1c-1,0-1.5-0.5-1.5-1.5v-2.8h-0.8v-1h0.8v-1.3H61.7z M64.9,78.7
	c0.4-0.4,0.8-0.7,1.4-0.7c1.1,0,1.7,0.7,1.7,2v3.4h-1.4v-3.3c0-0.3-0.1-0.5-0.2-0.7c-0.1-0.1-0.3-0.2-0.6-0.2
	c-0.4,0-0.7,0.2-0.9,0.5v3.8h-1.4v-7.5h1.4V78.7z M71.8,83.5c-0.8,0-1.4-0.2-1.9-0.7c-0.5-0.5-0.7-1.1-0.7-1.9v-0.1
	c0-0.5,0.1-1,0.3-1.4c0.2-0.4,0.5-0.7,0.9-1c0.4-0.2,0.8-0.3,1.3-0.3c0.7,0,1.3,0.2,1.7,0.7c0.4,0.5,0.6,1.1,0.6,1.9v0.6h-3.4
	c0,0.3,0.2,0.6,0.4,0.8c0.2,0.2,0.5,0.3,0.9,0.3c0.5,0,1-0.2,1.3-0.6l0.7,0.8c-0.2,0.3-0.5,0.5-0.9,0.7
	C72.6,83.5,72.2,83.5,71.8,83.5z M71.6,79.2c-0.3,0-0.5,0.1-0.7,0.3c-0.2,0.2-0.3,0.5-0.3,0.8h2v-0.1c0-0.3-0.1-0.6-0.3-0.7
	C72.2,79.3,71.9,79.2,71.6,79.2z M79.9,82.4c0.3,0,0.5-0.1,0.6-0.2c0.2-0.1,0.2-0.3,0.3-0.6h1.3c0,0.4-0.1,0.7-0.3,1
	c-0.2,0.3-0.5,0.5-0.8,0.7c-0.3,0.2-0.7,0.2-1.1,0.2c-0.8,0-1.4-0.2-1.8-0.7c-0.4-0.5-0.7-1.1-0.7-2v-0.1c0-0.8,0.2-1.5,0.6-1.9
	s1-0.7,1.8-0.7c0.7,0,1.2,0.2,1.6,0.6c0.4,0.4,0.6,0.9,0.6,1.5h-1.3c0-0.3-0.1-0.5-0.3-0.7c-0.2-0.2-0.4-0.3-0.6-0.3
	c-0.3,0-0.6,0.1-0.7,0.4c-0.2,0.2-0.2,0.6-0.2,1.2v0.1c0,0.5,0.1,0.9,0.2,1.2C79.3,82.3,79.5,82.4,79.9,82.4z M86.1,83.4
	C86.1,83.3,86,83.2,86,83c-0.3,0.4-0.8,0.6-1.3,0.6c-0.5,0-0.9-0.1-1.3-0.4c-0.3-0.3-0.5-0.7-0.5-1.1c0-0.6,0.2-1,0.6-1.3
	c0.4-0.3,1-0.5,1.8-0.5h0.6v-0.3c0-0.2-0.1-0.4-0.2-0.6c-0.1-0.1-0.3-0.2-0.6-0.2c-0.2,0-0.4,0.1-0.6,0.2c-0.1,0.1-0.2,0.3-0.2,0.5
	H83c0-0.3,0.1-0.6,0.3-0.8c0.2-0.3,0.5-0.5,0.8-0.6c0.3-0.1,0.7-0.2,1.2-0.2c0.7,0,1.2,0.2,1.5,0.5c0.4,0.3,0.6,0.8,0.6,1.4v2.3
	c0,0.5,0.1,0.9,0.2,1.1v0.1H86.1z M85,82.5c0.2,0,0.4,0,0.6-0.1c0.2-0.1,0.3-0.2,0.4-0.4V81h-0.5c-0.7,0-1.1,0.2-1.1,0.7l0,0.1
	c0,0.2,0.1,0.3,0.2,0.4C84.6,82.4,84.8,82.5,85,82.5z M90,78.2l0,0.6c0.4-0.5,0.9-0.7,1.5-0.7c0.7,0,1.1,0.3,1.4,0.8
	c0.4-0.5,0.9-0.8,1.6-0.8c0.6,0,1,0.2,1.3,0.5c0.3,0.3,0.4,0.8,0.4,1.5v3.4h-1.4v-3.4c0-0.3-0.1-0.5-0.2-0.7
	c-0.1-0.1-0.3-0.2-0.6-0.2c-0.4,0-0.7,0.2-0.9,0.6l0,3.6h-1.4v-3.4c0-0.3-0.1-0.5-0.2-0.7c-0.1-0.1-0.3-0.2-0.6-0.2
	c-0.4,0-0.7,0.2-0.9,0.5v3.7h-1.4v-5.3H90z M102.3,80.8c0,0.8-0.2,1.5-0.6,2c-0.4,0.5-0.9,0.7-1.5,0.7c-0.5,0-1-0.2-1.3-0.6v2.5
	h-1.4v-7.3h1.3l0,0.5c0.3-0.4,0.8-0.6,1.3-0.6c0.7,0,1.2,0.2,1.5,0.7C102.1,79.3,102.3,79.9,102.3,80.8L102.3,80.8z M100.9,80.7
	c0-0.5-0.1-0.9-0.3-1.1c-0.2-0.3-0.4-0.4-0.8-0.4c-0.4,0-0.7,0.2-0.9,0.5v2.2c0.2,0.3,0.5,0.5,0.9,0.5
	C100.5,82.4,100.9,81.8,100.9,80.7z M106.5,82.9c-0.3,0.4-0.8,0.6-1.4,0.6c-0.6,0-1-0.2-1.3-0.5c-0.3-0.3-0.4-0.8-0.5-1.4v-3.5h1.4
	v3.4c0,0.6,0.3,0.8,0.8,0.8c0.5,0,0.8-0.2,1-0.5v-3.7h1.4v5.3h-1.3L106.5,82.9z M112,82c0-0.2-0.1-0.3-0.3-0.4
	c-0.2-0.1-0.4-0.2-0.8-0.3c-1.3-0.3-1.9-0.8-1.9-1.6c0-0.5,0.2-0.9,0.6-1.2c0.4-0.3,0.9-0.5,1.5-0.5c0.7,0,1.2,0.2,1.6,0.5
	c0.4,0.3,0.6,0.7,0.6,1.2h-1.4c0-0.2-0.1-0.4-0.2-0.5c-0.1-0.1-0.3-0.2-0.6-0.2c-0.2,0-0.4,0.1-0.6,0.2c-0.1,0.1-0.2,0.2-0.2,0.4
	c0,0.2,0.1,0.3,0.2,0.4c0.1,0.1,0.4,0.2,0.8,0.2c0.4,0.1,0.6,0.1,0.9,0.2c0.7,0.3,1.1,0.7,1.1,1.4c0,0.5-0.2,0.9-0.6,1.2
	c-0.4,0.3-0.9,0.4-1.6,0.4c-0.4,0-0.8-0.1-1.2-0.2c-0.3-0.2-0.6-0.4-0.8-0.6c-0.2-0.3-0.3-0.6-0.3-0.9h1.3c0,0.3,0.1,0.4,0.3,0.6
	c0.2,0.1,0.4,0.2,0.7,0.2c0.3,0,0.5-0.1,0.6-0.2C111.9,82.3,112,82.1,112,82z M36.8,96.8c0-0.8,0.2-1.5,0.6-2
	c0.4-0.5,0.9-0.7,1.5-0.7c0.5,0,0.9,0.2,1.3,0.6v-2.7h1.4v7.5h-1.3l-0.1-0.6c-0.4,0.4-0.8,0.7-1.4,0.7c-0.6,0-1.1-0.2-1.5-0.7
	C37,98.3,36.8,97.6,36.8,96.8z M38.2,96.9c0,0.5,0.1,0.9,0.3,1.1c0.2,0.3,0.4,0.4,0.8,0.4c0.4,0,0.7-0.2,0.9-0.6v-2.1
	c-0.2-0.4-0.5-0.6-0.9-0.6C38.5,95.2,38.2,95.8,38.2,96.9z M42.6,96.7c0-0.5,0.1-1,0.3-1.4c0.2-0.4,0.5-0.7,0.9-1
	c0.4-0.2,0.8-0.3,1.3-0.3c0.7,0,1.3,0.2,1.7,0.7c0.5,0.4,0.7,1,0.8,1.8l0,0.4c0,0.8-0.2,1.5-0.7,2c-0.5,0.5-1.1,0.7-1.8,0.7
	s-1.4-0.2-1.8-0.7C42.9,98.3,42.6,97.7,42.6,96.7L42.6,96.7z M44,96.9c0,0.5,0.1,0.9,0.3,1.2c0.2,0.3,0.5,0.4,0.8,0.4
	c0.3,0,0.6-0.1,0.8-0.4c0.2-0.3,0.3-0.7,0.3-1.3c0-0.5-0.1-0.9-0.3-1.1c-0.2-0.3-0.5-0.4-0.8-0.4c-0.3,0-0.6,0.1-0.8,0.4
	C44.1,95.9,44,96.3,44,96.9z M50,94.2l0,0.6c0.4-0.5,0.9-0.7,1.5-0.7c0.7,0,1.1,0.3,1.4,0.8c0.4-0.5,0.9-0.8,1.6-0.8
	c0.6,0,1,0.2,1.3,0.5c0.3,0.3,0.4,0.8,0.4,1.5v3.4h-1.4v-3.4c0-0.3-0.1-0.5-0.2-0.7c-0.1-0.1-0.3-0.2-0.6-0.2
	c-0.4,0-0.7,0.2-0.9,0.6l0,3.6h-1.4v-3.4c0-0.3-0.1-0.5-0.2-0.7c-0.1-0.1-0.3-0.2-0.6-0.2c-0.4,0-0.7,0.2-0.9,0.5v3.7h-1.4v-5.3H50z
	 M60.6,99.4c-0.1-0.1-0.1-0.3-0.1-0.5c-0.3,0.4-0.8,0.6-1.3,0.6c-0.5,0-0.9-0.1-1.3-0.4c-0.3-0.3-0.5-0.7-0.5-1.1
	c0-0.6,0.2-1,0.6-1.3c0.4-0.3,1-0.5,1.8-0.5h0.6v-0.3c0-0.2-0.1-0.4-0.2-0.6c-0.1-0.1-0.3-0.2-0.6-0.2c-0.2,0-0.4,0.1-0.6,0.2
	c-0.1,0.1-0.2,0.3-0.2,0.5h-1.4c0-0.3,0.1-0.6,0.3-0.8s0.5-0.5,0.8-0.6c0.3-0.1,0.7-0.2,1.2-0.2c0.7,0,1.2,0.2,1.5,0.5
	c0.4,0.3,0.6,0.8,0.6,1.4v2.3c0,0.5,0.1,0.9,0.2,1.1v0.1H60.6z M59.5,98.5c0.2,0,0.4,0,0.6-0.1c0.2-0.1,0.3-0.2,0.4-0.4V97h-0.5
	c-0.7,0-1.1,0.2-1.1,0.7l0,0.1c0,0.2,0.1,0.3,0.2,0.4C59.1,98.4,59.2,98.5,59.5,98.5z M64.6,99.4h-1.4v-5.3h1.4V99.4z M63.1,92.8
	c0-0.2,0.1-0.4,0.2-0.5c0.1-0.1,0.3-0.2,0.6-0.2c0.2,0,0.4,0.1,0.6,0.2c0.1,0.1,0.2,0.3,0.2,0.5c0,0.2-0.1,0.4-0.2,0.5
	c-0.1,0.1-0.3,0.2-0.6,0.2c-0.2,0-0.4-0.1-0.6-0.2C63.2,93.2,63.1,93,63.1,92.8z M67.3,94.2l0,0.6c0.4-0.5,0.9-0.7,1.5-0.7
	c0.6,0,1,0.2,1.2,0.5c0.3,0.3,0.4,0.8,0.4,1.5v3.4h-1.4v-3.4c0-0.3-0.1-0.5-0.2-0.6c-0.1-0.1-0.3-0.2-0.6-0.2
	c-0.4,0-0.7,0.2-0.9,0.5v3.7h-1.4v-5.3H67.3z M74.3,96.7c0-0.5,0.1-1,0.3-1.4c0.2-0.4,0.5-0.7,0.9-1c0.4-0.2,0.8-0.3,1.3-0.3
	c0.7,0,1.3,0.2,1.7,0.7c0.5,0.4,0.7,1,0.8,1.8l0,0.4c0,0.8-0.2,1.5-0.7,2c-0.5,0.5-1.1,0.7-1.8,0.7c-0.8,0-1.4-0.2-1.8-0.7
	C74.5,98.3,74.3,97.7,74.3,96.7L74.3,96.7z M75.7,96.9c0,0.5,0.1,0.9,0.3,1.2c0.2,0.3,0.5,0.4,0.8,0.4c0.3,0,0.6-0.1,0.8-0.4
	c0.2-0.3,0.3-0.7,0.3-1.3c0-0.5-0.1-0.9-0.3-1.1c-0.2-0.3-0.5-0.4-0.8-0.4c-0.3,0-0.6,0.1-0.8,0.4C75.8,95.9,75.7,96.3,75.7,96.9z
	 M81.6,94.2l0,0.6c0.4-0.5,0.9-0.7,1.5-0.7c0.6,0,1,0.2,1.2,0.5c0.3,0.3,0.4,0.8,0.4,1.5v3.4h-1.4v-3.4c0-0.3-0.1-0.5-0.2-0.6
	c-0.1-0.1-0.3-0.2-0.6-0.2c-0.4,0-0.7,0.2-0.9,0.5v3.7h-1.4v-5.3H81.6z M87.6,99.4h-1.4v-7.5h1.4V99.4z M91,97.4l1-3.3h1.5l-2.1,6.1
	l-0.1,0.3c-0.3,0.7-0.8,1-1.6,1c-0.2,0-0.4,0-0.6-0.1v-1.1l0.2,0c0.3,0,0.5,0,0.6-0.1c0.1-0.1,0.2-0.2,0.3-0.4l0.2-0.4l-1.9-5.3H90
	L91,97.4z"/>
</svg>
