<?xml version="1.0" encoding="utf-8"?>
<!-- Generator: Adobe Illustrator 25.1.0, SVG Export Plug-In . SVG Version: 6.00 Build 0)  -->
<svg version="1.1" id="Creat_by_Flysheet" xmlns="http://www.w3.org/2000/svg" xmlns:xlink="http://www.w3.org/1999/xlink" x="0px"
	 y="0px" viewBox="0 0 150 113" style="enable-background:new 0 0 150 113;" xml:space="preserve">
<style type="text/css">
	.st0{fill:#E0E0E0;}
	.st1{fill-opacity:0.3;}
</style>
<rect id="bg" class="st0" width="150" height="113"/>
<path id="text" class="st1" d="M33.1,37.5l-0.3,0.1h-3.1v11.6h1.4V39h1.1c-0.2,0.9-0.5,2.1-0.8,2.9c0.8,0.9,1,1.7,1,2.3
	c0,0.4-0.1,0.6-0.2,0.7C32.1,45,32,45,31.8,45c-0.2,0-0.4,0-0.6,0c0.2,0.4,0.3,1,0.4,1.4c0.3,0,0.6,0,0.9,0c0.3-0.1,0.6-0.1,0.8-0.3
	c0.4-0.3,0.6-0.8,0.6-1.7c0-0.8-0.2-1.7-1-2.7c0.4-1,0.8-2.4,1.2-3.6L33.1,37.5z M36,41.2h3v1.1h-3V41.2z M39,38.9v1h-3v-1H39z
	 M39.9,43.7c-0.3,0.4-0.7,0.9-1.2,1.3c-0.2-0.4-0.4-0.9-0.5-1.4h2.3v-6h-6v9.7c-0.5,0.1-1,0.2-1.4,0.2l0.5,1.5
	c1.2-0.3,2.8-0.6,4.3-0.9l-0.1-1.4c-0.6,0.1-1.3,0.2-1.9,0.3v-3.4h0.9c0.6,2.5,1.6,4.5,3.5,5.5c0.2-0.4,0.7-1,1-1.3
	c-0.8-0.4-1.5-1-2-1.7c0.6-0.4,1.2-1,1.8-1.5L39.9,43.7z M54.5,38.8h-2.8V37h-1.6v1.8h-2.8v1.4h7.2V38.8z M47.4,44.2
	c-0.2-0.4-1.3-1.9-1.6-2.4V41h1.4v-1.4h-1.4v-2.7h-1.4v2.7h-1.6V41h1.5c-0.4,1.5-1.1,3.3-1.8,4.4c0.2,0.4,0.6,1,0.7,1.4
	c0.5-0.7,0.9-1.6,1.2-2.6v4.9h1.4v-5.4c0.3,0.6,0.6,1.2,0.8,1.6L47.4,44.2z M54.7,43c-0.4-0.8-1.2-1.9-2-2.7L51.5,41
	c0.5,0.6,1.1,1.3,1.5,2l-1.3-0.3c-0.2,0.7-0.5,1.4-0.8,2.1c-0.4-0.6-0.8-1.3-1-2l-1,0.3c0.5-0.6,1.1-1.4,1.4-2.1l-1.4-0.6
	c-0.4,0.9-1.1,1.9-1.9,2.5c0.3,0.2,0.8,0.7,1.1,1c0.2-0.2,0.4-0.3,0.6-0.5c0.4,1,0.8,1.9,1.4,2.7c-0.8,0.8-1.8,1.5-3.2,1.9
	c0.3,0.3,0.6,0.9,0.8,1.2c1.3-0.5,2.4-1.2,3.3-2c0.8,0.9,1.8,1.5,2.9,2c0.2-0.4,0.7-1.1,1.1-1.4c-1.2-0.4-2.1-1-3-1.8
	c0.6-0.8,1-1.7,1.3-2.7c0.1,0.2,0.2,0.4,0.3,0.6L54.7,43z M65.5,41.4v3.2c-1.2-0.7-2-1.8-2.5-3.2H65.5z M58.2,41.4h2.5
	c-0.4,1.5-1.2,2.7-2.5,3.4V41.4z M67.1,39.9h-4.4c-0.1-0.7-0.2-1.5-0.2-2.4H59v1.4h2.1c0,0.3,0.1,0.7,0.1,1h-4.6v9.3h1.6v-3.9
	c0.3,0.3,0.6,0.7,0.7,0.9c1.5-0.8,2.4-2,3-3.6c0.5,1.5,1.4,2.7,2.8,3.5c0.2-0.3,0.6-0.8,0.9-1.1v2.3c0,0.2-0.1,0.3-0.3,0.3
	c-0.2,0-1.1,0-1.8,0c0.2,0.4,0.5,1.1,0.5,1.6c1.1,0,2,0,2.5-0.3c0.6-0.3,0.7-0.7,0.7-1.5L67.1,39.9L67.1,39.9z M69.3,44.6
	c-0.1,1.1-0.3,2.2-0.7,3c0.3,0.1,0.9,0.4,1.1,0.5c0.4-0.8,0.6-2.1,0.8-3.4L69.3,44.6z M77.4,46c-0.2,0-0.2-0.1-0.2-0.4v-1.1h1.9
	v-1.2h-1.2v-1h1.2v-1.2h-0.6c0.2-0.4,0.5-1,0.7-1.6L78,39.2c-0.1,0.5-0.3,1.3-0.5,1.8l0.5,0.2h-1.6L77,41c-0.1-0.4-0.3-1.1-0.5-1.7
	l-0.9,0.3c0.2,0.5,0.4,1.1,0.4,1.5h-0.5v1.2h1.1v1h-1.1v1.2h0.4v1.1c0,1.2,0.3,1.7,1.5,1.7h0.9c0.3,0,0.6,0,0.8-0.1
	c0-0.3-0.1-0.9-0.1-1.2c-0.2,0.1-0.5,0.1-0.7,0.1L77.4,46L77.4,46z M80.8,37.6h-7v5.3c-0.2-0.6-0.5-1.2-0.8-1.7l-1.1,0.5
	c0.1,0.3,0.3,0.5,0.4,0.8l-1.1,0.1c0.8-1,1.7-2.3,2.4-3.4l-1.2-0.6c-0.3,0.6-0.7,1.4-1.2,2.1c-0.1-0.2-0.3-0.3-0.4-0.5
	c0.5-0.7,1-1.8,1.5-2.7L70.9,37c-0.2,0.7-0.6,1.5-0.9,2.2c-0.1-0.1-0.2-0.2-0.3-0.3l-0.8,1c0.5,0.5,1.1,1.2,1.5,1.8
	c-0.2,0.3-0.4,0.5-0.6,0.8l-0.9,0.1l0.2,1.3l1.8-0.1v5.3h1.3v-5.4l0.7-0.1c0.1,0.3,0.2,0.5,0.2,0.8l0.8-0.4v1.8
	c-0.1-0.5-0.3-0.9-0.5-1.4l-1.1,0.3c0.3,0.7,0.5,1.7,0.6,2.3l0.9-0.3V49h1.4V38.9h4.2v8.7c0,0.2-0.1,0.2-0.2,0.3c-0.2,0-0.8,0-1.3,0
	c0.2,0.4,0.4,0.9,0.4,1.3c0.9,0,1.5,0,2-0.2c0.4-0.2,0.6-0.6,0.6-1.3V37.6H80.8z M85.8,44.3l-0.9,0.4v-3.1h1v-1.5h-1v-2.9h-1.4v2.9
	h-1.2v1.5h1.2v3.9c-0.5,0.2-0.9,0.4-1.3,0.6l0.6,1.6c1.1-0.6,2.3-1.3,3.5-2L85.8,44.3z M92.7,41.1c-0.2,0.9-0.4,1.7-0.7,2.4
	c-0.1-1-0.2-2.1-0.2-3.3h2.5v-1.4h-0.6l0.6-0.5c-0.3-0.4-0.9-0.9-1.4-1.3L92,37.8c0.4,0.3,0.8,0.7,1.1,1h-1.4c0-0.6,0-1.2,0-1.8
	h-1.5c0,0.6,0,1.2,0,1.8h-4.1v1.4h4.2c0.1,2,0.2,3.9,0.5,5.5c-0.2,0.2-0.4,0.5-0.5,0.7l-0.1-1c-1.6,0.4-3.3,0.8-4.5,1l0.4,1.4
	c1.1-0.3,2.6-0.7,4-1c-0.5,0.5-1,1-1.7,1.4c0.3,0.2,0.9,0.7,1.1,1c0.7-0.5,1.3-1.1,1.8-1.7c0.4,1.1,0.9,1.8,1.7,1.8
	c1,0,1.4-0.5,1.6-2.2c-0.3-0.2-0.8-0.5-1-0.9c0,1.2-0.1,1.6-0.3,1.6c-0.3,0-0.6-0.7-0.8-1.9c0.8-1.3,1.3-2.8,1.7-4.5L92.7,41.1z
	 M88.6,43.9h-1v-1.6h1V43.9z M86.5,41.1v4h3.3v-4H86.5z M102.6,38c0.9,1.8,2.4,3.8,3.7,5.1c0.3-0.4,0.9-1,1.3-1.4
	c-1.2-1.1-2.7-2.9-3.4-4.4L102.6,38z M98.9,37.3c-0.7,1.8-1.9,3.6-3.2,4.6c0.4,0.2,1.2,0.8,1.5,1.2c1.3-1.2,2.7-3.2,3.5-5.3
	L98.9,37.3z M102.8,44.6c0.5,0.6,1,1.4,1.5,2.1c-1.5,0.1-3,0.2-4.4,0.2c0.8-1.4,1.6-3.1,2.3-4.7l-1.9-0.4c-0.5,1.6-1.4,3.7-2.2,5.3
	l-1.8,0.1l0.2,1.6c2.3-0.1,5.6-0.3,8.7-0.5c0.2,0.4,0.4,0.7,0.5,1l1.6-0.8c-0.6-1.2-1.9-3.1-3-4.5L102.8,44.6z M113,38.6v0.7h-2
	v-0.7H113z M110.9,41v-0.7h2V41H110.9z M114.4,42.1v-4.6h-5v11.6h1.5v-7H114.4z M114.2,45v-1h1.2v1H114.2z M118.2,46.2v-1.3h-1.4v-1
	h1.2v-1.2h-6.3v1.2h1.2v1h-1.4v1.3h1.3c-0.1,0.7-0.5,1.5-1.3,2c0.3,0.2,0.8,0.6,1,0.9c1.1-0.8,1.5-2,1.7-2.9h1.2v2.7h1.4v-2.7H118.2
	z M116.7,41v-0.7h2.1V41H116.7z M118.8,38.6v0.7h-2.1v-0.7H118.8z M120.4,37.5h-5.1v4.6h3.6v5.2c0,0.2-0.1,0.3-0.3,0.3
	c-0.2,0-0.8,0-1.4,0c0.2,0.4,0.4,1.1,0.5,1.5c1,0,1.7,0,2.1-0.3c0.5-0.2,0.6-0.7,0.6-1.5C120.3,47.2,120.3,37.5,120.4,37.5z
	 M28.2,61.5V64h-1.5v-7.1h2.8c0.5,0,1,0.1,1.4,0.3c0.4,0.2,0.7,0.5,0.9,0.8c0.2,0.4,0.3,0.8,0.3,1.2c0,0.7-0.2,1.2-0.7,1.7
	c-0.5,0.4-1.1,0.6-2,0.6H28.2z M28.2,60.2h1.3c0.4,0,0.7-0.1,0.9-0.3c0.2-0.2,0.3-0.4,0.3-0.8c0-0.3-0.1-0.6-0.3-0.8
	c-0.2-0.2-0.5-0.3-0.8-0.3h-1.3v2.2H28.2z M36.5,63.5c-0.3,0.4-0.8,0.6-1.4,0.6c-0.6,0-1-0.2-1.3-0.5s-0.4-0.8-0.5-1.4v-3.5h1.4v3.4
	c0,0.6,0.3,0.8,0.8,0.8s0.8-0.2,1-0.5v-3.7h1.4V64h-1.3L36.5,63.5z M43.8,61.4c0,0.8-0.2,1.5-0.5,2c-0.4,0.5-0.9,0.7-1.5,0.7
	c-0.6,0-1-0.2-1.4-0.7L40.3,64h-1.2v-7.5h1.4v2.7c0.3-0.4,0.8-0.6,1.3-0.6c0.6,0,1.1,0.2,1.5,0.7C43.7,59.8,43.8,60.5,43.8,61.4
	L43.8,61.4z M42.4,61.2c0-0.5-0.1-0.9-0.3-1.2c-0.2-0.2-0.4-0.4-0.8-0.4c-0.4,0-0.8,0.2-0.9,0.6v2.1c0.2,0.4,0.5,0.6,0.9,0.6
	c0.5,0,0.8-0.2,0.9-0.7C42.4,62.1,42.4,61.8,42.4,61.2z M46.4,64H45v-7.5h1.4V64z M49.3,64h-1.4v-5.3h1.4V64z M47.8,57.4
	c0-0.2,0.1-0.4,0.2-0.5c0.1-0.1,0.3-0.2,0.6-0.2c0.2,0,0.4,0.1,0.6,0.2c0.1,0.1,0.2,0.3,0.2,0.5s-0.1,0.4-0.2,0.5
	c-0.1,0.1-0.3,0.2-0.6,0.2S48.2,58,48,57.9C47.8,57.8,47.8,57.6,47.8,57.4z M52.8,63c0.3,0,0.5-0.1,0.6-0.2c0.2-0.1,0.2-0.3,0.3-0.6
	H55c0,0.4-0.1,0.7-0.3,1s-0.5,0.5-0.8,0.7s-0.7,0.2-1.1,0.2c-0.8,0-1.4-0.2-1.8-0.7c-0.4-0.5-0.7-1.1-0.7-2v-0.1
	c0-0.8,0.2-1.5,0.6-1.9c0.4-0.5,1-0.7,1.8-0.7c0.7,0,1.2,0.2,1.6,0.6c0.4,0.4,0.6,0.9,0.6,1.5h-1.3c0-0.3-0.1-0.5-0.3-0.7
	s-0.4-0.3-0.6-0.3c-0.3,0-0.6,0.1-0.7,0.4c-0.2,0.2-0.2,0.6-0.2,1.2v0.1c0,0.5,0.1,0.9,0.2,1.2S52.5,63,52.8,63z M60.2,64h-1.4v-5.3
	h1.4V64z M58.7,57.4c0-0.2,0.1-0.4,0.2-0.5c0.1-0.1,0.3-0.2,0.6-0.2c0.2,0,0.4,0.1,0.6,0.2c0.1,0.1,0.2,0.3,0.2,0.5
	s-0.1,0.4-0.2,0.5c-0.1,0.1-0.3,0.2-0.6,0.2c-0.2,0-0.4-0.1-0.6-0.2C58.8,57.8,58.7,57.6,58.7,57.4z M62.9,58.8v0.6
	c0.4-0.5,0.9-0.7,1.5-0.7c0.6,0,1,0.2,1.2,0.5c0.3,0.3,0.4,0.8,0.4,1.5v3.4h-1.4v-3.4c0-0.3-0.1-0.5-0.2-0.6
	c-0.1-0.1-0.3-0.2-0.6-0.2c-0.4,0-0.7,0.2-0.9,0.5v3.7h-1.4v-5.3H62.9z M71.8,57.5v1.3h0.9v1h-0.9v2.6c0,0.2,0,0.3,0.1,0.4
	s0.2,0.1,0.4,0.1c0.2,0,0.3,0,0.4,0V64c-0.3,0.1-0.6,0.1-0.9,0.1c-1,0-1.5-0.5-1.5-1.5v-2.8h-0.8v-1h0.8v-1.3
	C70.2,57.4,71.8,57.4,71.8,57.5z M75,59.2c0.4-0.4,0.8-0.7,1.4-0.7c1.1,0,1.7,0.7,1.7,2V64h-1.4v-3.3c0-0.3-0.1-0.5-0.2-0.7
	c-0.1-0.1-0.3-0.2-0.6-0.2c-0.4,0-0.7,0.2-0.9,0.5v3.8h-1.4v-7.5H75V59.2z M81.9,64.1c-0.8,0-1.4-0.2-1.9-0.7s-0.7-1.1-0.7-1.9v-0.1
	c0-0.5,0.1-1,0.3-1.4c0.2-0.4,0.5-0.7,0.9-1c0.4-0.2,0.8-0.3,1.3-0.3c0.7,0,1.3,0.2,1.7,0.7c0.4,0.5,0.6,1.1,0.6,1.9v0.6h-3.4
	c0,0.3,0.2,0.6,0.4,0.8c0.2,0.2,0.5,0.3,0.9,0.3c0.5,0,1-0.2,1.3-0.6l0.7,0.8c-0.2,0.3-0.5,0.5-0.9,0.7
	C82.7,64.1,82.2,64.1,81.9,64.1z M81.7,59.8c-0.3,0-0.5,0.1-0.7,0.3c-0.2,0.2-0.3,0.5-0.3,0.8h2v-0.1c0-0.3-0.1-0.6-0.3-0.7
	C82.2,59.9,82,59.8,81.7,59.8z M90,63c0.3,0,0.5-0.1,0.6-0.2c0.2-0.1,0.2-0.3,0.3-0.6h1.3c0,0.4-0.1,0.7-0.3,1
	c-0.2,0.3-0.5,0.5-0.8,0.7s-0.7,0.2-1.1,0.2c-0.8,0-1.4-0.2-1.8-0.7s-0.7-1.1-0.7-2v-0.1c0-0.8,0.2-1.5,0.6-1.9s1-0.7,1.8-0.7
	c0.7,0,1.2,0.2,1.6,0.6s0.6,0.9,0.6,1.5h-1.3c0-0.3-0.1-0.5-0.3-0.7c-0.2-0.2-0.4-0.3-0.6-0.3c-0.3,0-0.6,0.1-0.7,0.4
	C89,60.4,89,60.8,89,61.4v0.1c0,0.5,0.1,0.9,0.2,1.2C89.4,62.9,89.6,63,90,63z M96.2,64c0-0.1-0.1-0.2-0.1-0.4
	c-0.3,0.4-0.8,0.6-1.3,0.6s-0.9-0.1-1.3-0.4c-0.3-0.3-0.5-0.7-0.5-1.1c0-0.6,0.2-1,0.6-1.3s1-0.5,1.8-0.5h0.6v-0.3
	c0-0.2-0.1-0.4-0.2-0.6c-0.1-0.1-0.3-0.2-0.6-0.2c-0.2,0-0.4,0.1-0.6,0.2c-0.1,0.1-0.2,0.3-0.2,0.5h-1.3c0-0.3,0.1-0.6,0.3-0.8
	c0.2-0.3,0.5-0.5,0.8-0.6s0.7-0.2,1.2-0.2c0.7,0,1.2,0.2,1.5,0.5c0.4,0.3,0.6,0.8,0.6,1.4v2.3c0,0.5,0.1,0.9,0.2,1.1v0.1h-1.5V64z
	 M95.1,63.1c0.2,0,0.4,0,0.6-0.1s0.3-0.2,0.4-0.4v-1h-0.5c-0.7,0-1.1,0.2-1.1,0.7v0.1c0,0.2,0.1,0.3,0.2,0.4
	C94.7,63,94.9,63.1,95.1,63.1z M100.1,58.8v0.6c0.4-0.5,0.9-0.7,1.5-0.7c0.7,0,1.1,0.3,1.4,0.8c0.4-0.5,0.9-0.8,1.6-0.8
	c0.6,0,1,0.2,1.3,0.5s0.4,0.8,0.4,1.5v3.4h-1.4v-3.4c0-0.3-0.1-0.5-0.2-0.7c-0.1-0.1-0.3-0.2-0.6-0.2c-0.4,0-0.7,0.2-0.9,0.6V64
	h-1.4v-3.4c0-0.3-0.1-0.5-0.2-0.7c-0.1-0.1-0.3-0.2-0.6-0.2c-0.4,0-0.7,0.2-0.9,0.5v3.7h-1.4v-5.3h1.4V58.8z M112.4,61.4
	c0,0.8-0.2,1.5-0.6,2s-0.9,0.7-1.5,0.7c-0.5,0-1-0.2-1.3-0.6V66h-1.4v-7.3h1.3v0.5c0.3-0.4,0.8-0.6,1.3-0.6c0.7,0,1.2,0.2,1.5,0.7
	C112.2,59.9,112.4,60.5,112.4,61.4L112.4,61.4z M111,61.2c0-0.5-0.1-0.9-0.3-1.1c-0.2-0.3-0.4-0.4-0.8-0.4s-0.7,0.2-0.9,0.5v2.2
	c0.2,0.3,0.5,0.5,0.9,0.5C110.6,63,111,62.4,111,61.2z M116.6,63.5c-0.3,0.4-0.8,0.6-1.4,0.6s-1-0.2-1.3-0.5s-0.4-0.8-0.5-1.4v-3.5
	h1.4v3.4c0,0.6,0.3,0.8,0.8,0.8s0.8-0.2,1-0.5v-3.7h1.4V64h-1.3L116.6,63.5z M122.1,62.6c0-0.2-0.1-0.3-0.3-0.4
	c-0.2-0.1-0.4-0.2-0.8-0.3c-1.3-0.3-1.9-0.8-1.9-1.6c0-0.5,0.2-0.9,0.6-1.2c0.4-0.3,0.9-0.5,1.5-0.5c0.7,0,1.2,0.2,1.6,0.5
	s0.6,0.7,0.6,1.2h-1.4c0-0.2-0.1-0.4-0.2-0.5s-0.3-0.2-0.6-0.2c-0.2,0-0.4,0.1-0.6,0.2c-0.1,0.1-0.2,0.2-0.2,0.4
	c0,0.2,0.1,0.3,0.2,0.4s0.4,0.2,0.8,0.2c0.4,0.1,0.6,0.1,0.9,0.2c0.7,0.3,1.1,0.7,1.1,1.4c0,0.5-0.2,0.9-0.6,1.2
	c-0.4,0.3-0.9,0.4-1.6,0.4c-0.4,0-0.8-0.1-1.2-0.2c-0.3-0.2-0.6-0.4-0.8-0.6c-0.2-0.3-0.3-0.6-0.3-0.9h1.3c0,0.3,0.1,0.4,0.3,0.6
	c0.2,0.1,0.4,0.2,0.7,0.2c0.3,0,0.5-0.1,0.6-0.2C122,62.9,122.1,62.7,122.1,62.6z M46.9,77.4c0-0.8,0.2-1.5,0.6-2
	c0.4-0.5,0.9-0.7,1.5-0.7c0.5,0,0.9,0.2,1.3,0.6v-2.7h1.4v7.5h-1.3l-0.1-0.6c-0.4,0.4-0.8,0.7-1.4,0.7c-0.6,0-1.1-0.2-1.5-0.7
	C47.1,78.9,46.9,78.2,46.9,77.4z M48.3,77.5c0,0.5,0.1,0.9,0.3,1.1c0.2,0.3,0.4,0.4,0.8,0.4c0.4,0,0.7-0.2,0.9-0.6v-2.1
	c-0.2-0.4-0.5-0.6-0.9-0.6C48.6,75.8,48.3,76.4,48.3,77.5z M52.7,77.2c0-0.5,0.1-1,0.3-1.4s0.5-0.7,0.9-1c0.4-0.2,0.8-0.3,1.3-0.3
	c0.7,0,1.3,0.2,1.7,0.7c0.5,0.4,0.7,1,0.8,1.8v0.4c0,0.8-0.2,1.5-0.7,2s-1.1,0.7-1.8,0.7s-1.4-0.2-1.8-0.7
	C53,78.9,52.7,78.2,52.7,77.2L52.7,77.2z M54.1,77.5c0,0.5,0.1,0.9,0.3,1.2c0.2,0.3,0.5,0.4,0.8,0.4s0.6-0.1,0.8-0.4
	s0.3-0.7,0.3-1.3c0-0.5-0.1-0.9-0.3-1.1c-0.2-0.3-0.5-0.4-0.8-0.4s-0.6,0.1-0.8,0.4C54.2,76.5,54.1,76.9,54.1,77.5z M60.1,74.8v0.6
	c0.4-0.5,0.9-0.7,1.5-0.7c0.7,0,1.1,0.3,1.4,0.8c0.4-0.5,0.9-0.8,1.6-0.8c0.6,0,1,0.2,1.3,0.5c0.3,0.3,0.4,0.8,0.4,1.5v3.4h-1.4
	v-3.4c0-0.3-0.1-0.5-0.2-0.7c-0.1-0.1-0.3-0.2-0.6-0.2c-0.4,0-0.7,0.2-0.9,0.6V80h-1.4v-3.4c0-0.3-0.1-0.5-0.2-0.7
	c-0.1-0.1-0.3-0.2-0.6-0.2c-0.4,0-0.7,0.2-0.9,0.5v3.7h-1.4v-5.3h1.4V74.8z M70.7,80c-0.1-0.1-0.1-0.3-0.1-0.5
	c-0.3,0.4-0.8,0.6-1.3,0.6S68.3,80,68,79.7c-0.3-0.3-0.5-0.7-0.5-1.1c0-0.6,0.2-1,0.6-1.3s1-0.5,1.8-0.5h0.6v-0.3
	c0-0.2-0.1-0.4-0.2-0.6c-0.1-0.1-0.3-0.2-0.6-0.2c-0.2,0-0.4,0.1-0.6,0.2c-0.1,0.1-0.2,0.3-0.2,0.5h-1.4c0-0.3,0.1-0.6,0.3-0.8
	c0.2-0.2,0.5-0.5,0.8-0.6c0.3-0.1,0.7-0.2,1.2-0.2c0.7,0,1.2,0.2,1.5,0.5c0.4,0.3,0.6,0.8,0.6,1.4V79c0,0.5,0.1,0.9,0.2,1.1v0.1
	h-1.4V80z M69.6,79.1c0.2,0,0.4,0,0.6-0.1s0.3-0.2,0.4-0.4v-1h-0.5c-0.7,0-1.1,0.2-1.1,0.7v0.1c0,0.2,0.1,0.3,0.2,0.4
	C69.2,79,69.2,79.1,69.6,79.1z M74.7,80h-1.4v-5.3h1.4V80z M73.2,73.4c0-0.2,0.1-0.4,0.2-0.5s0.3-0.2,0.6-0.2c0.2,0,0.4,0.1,0.6,0.2
	c0.1,0.1,0.2,0.3,0.2,0.5s-0.1,0.4-0.2,0.5s-0.3,0.2-0.6,0.2c-0.2,0-0.4-0.1-0.6-0.2C73.2,73.8,73.2,73.6,73.2,73.4z M77.4,74.8v0.6
	c0.4-0.5,0.9-0.7,1.5-0.7s1,0.2,1.2,0.5c0.3,0.3,0.4,0.8,0.4,1.5v3.4h-1.4v-3.4c0-0.3-0.1-0.5-0.2-0.6s-0.3-0.2-0.6-0.2
	c-0.4,0-0.7,0.2-0.9,0.5v3.7H76v-5.3H77.4z M84.4,77.2c0-0.5,0.1-1,0.3-1.4c0.2-0.4,0.5-0.7,0.9-1c0.4-0.2,0.8-0.3,1.3-0.3
	c0.7,0,1.3,0.2,1.7,0.7c0.5,0.4,0.7,1,0.8,1.8v0.4c0,0.8-0.2,1.5-0.7,2s-1.1,0.7-1.8,0.7c-0.8,0-1.4-0.2-1.8-0.7
	C84.6,78.9,84.4,78.2,84.4,77.2L84.4,77.2z M85.8,77.5c0,0.5,0.1,0.9,0.3,1.2c0.2,0.3,0.5,0.4,0.8,0.4s0.6-0.1,0.8-0.4
	c0.2-0.3,0.3-0.7,0.3-1.3c0-0.5-0.1-0.9-0.3-1.1c-0.2-0.3-0.5-0.4-0.8-0.4s-0.6,0.1-0.8,0.4C85.9,76.5,85.8,76.9,85.8,77.5z
	 M91.7,74.8v0.6c0.4-0.5,0.9-0.7,1.5-0.7s1,0.2,1.2,0.5c0.3,0.3,0.4,0.8,0.4,1.5v3.4h-1.4v-3.4c0-0.3-0.1-0.5-0.2-0.6
	s-0.3-0.2-0.6-0.2c-0.4,0-0.7,0.2-0.9,0.5v3.7h-1.4v-5.3H91.7z M97.7,80h-1.4v-7.5h1.4V80z M101.1,78l1-3.3h1.5l-2.1,6.1l-0.1,0.3
	c-0.3,0.7-0.8,1-1.6,1c-0.2,0-0.4,0-0.6-0.1v-1.1h0.2c0.3,0,0.5,0,0.6-0.1s0.2-0.2,0.3-0.4l0.2-0.4l-1.9-5.3h1.5L101.1,78z"/>
</svg>
