<?xml version="1.0" encoding="utf-8"?>
<!-- Generator: Adobe Illustrator 25.1.0, SVG Export Plug-In . SVG Version: 6.00 Build 0)  -->
<svg version="1.1" id="Creat_by_Flysheet" xmlns="http://www.w3.org/2000/svg" xmlns:xlink="http://www.w3.org/1999/xlink" x="0px"
	 y="0px" viewBox="0 0 150 113" style="enable-background:new 0 0 150 113;" xml:space="preserve">
<style type="text/css">
	.st0{fill:#E0E0E0;}
	.st1{opacity:0.3;}
</style>
<rect id="bg" class="st0" width="150" height="113"/>
<g id="text" class="st1">
	<path d="M56.7,48.1c-0.5,0.6-1.1,1.1-1.6,1.6c-0.2-0.3-0.7-1-1-1.3c1.1-0.8,2.3-2,2.9-3.3l1.4,0.5c-0.2,0.4-0.4,0.8-0.7,1.2h8.8
		v1.5h-9.8V48.1z M54.3,57.7c0.5-0.7,1.2-1.8,1.6-2.7l1.6,0.4c-0.4,1-1,2.2-1.6,3L54.3,57.7z M65.3,51.4v1.8H67v1.5H54.5v-1.5h1.9
		v-1.8H55v-1.5h1.5v-1.3H58v1.3h1v-1.3h1.4v1.3h1.1v-1.3h1.3v1.3h1v-1.3h1.5v1.3h1.5v1.5H65.3z M57.9,53.2h1v-1.8h-1V53.2z
		 M59.8,55.3c0.2,0.8,0.3,1.9,0.4,2.6L58.6,58c0-0.7-0.1-1.8-0.3-2.7L59.8,55.3z M60.2,51.4v1.8h1.1v-1.8H60.2z M62.7,55.2
		c0.4,0.8,0.7,1.9,0.8,2.6l-1.7,0.3c-0.1-0.7-0.4-1.8-0.7-2.7L62.7,55.2z M63.7,51.4h-1v1.8h1V51.4z M65.6,54.8
		c0.6,0.8,1.3,2,1.6,2.8l-1.6,0.7c-0.3-0.7-1-1.9-1.5-2.9L65.6,54.8z"/>
	<path d="M71.1,55.4c-0.4,0.8-1,1.8-1.5,2.4c-0.3-0.2-0.8-0.7-1.1-0.9c0.5-0.5,1-1.3,1.3-2L71.1,55.4z M76.2,51.6h-7.8v-1.3h3.2
		c-0.1-0.2-0.1-0.3-0.2-0.4l1.1-0.2h-3.4v-4h6.7v4h-2.7c0.1,0.2,0.2,0.4,0.3,0.6h2.9L76.2,51.6L76.2,51.6z M73.1,54.9v1.8
		c0,0.7-0.1,1-0.6,1.2c-0.4,0.2-1,0.2-1.8,0.2c-0.1-0.4-0.3-1-0.5-1.3c0.4,0,0.9,0,1,0c0.1,0,0.2,0,0.2-0.2v-1.8h-2.3v-2.9h6.3v2.9
		h-2.3V54.9z M70.6,47.2h3.5v-0.5h-3.5V47.2z M70.6,48.7h3.5v-0.5h-3.5V48.7z M70.8,53.9h3.1v-0.7h-3.1V53.9z M81.2,53.7
		c-1.1,1.9-2.7,3.4-4.5,4.5c-0.3-0.4-0.7-0.9-1.1-1.3c0,0.1,0.1,0.2,0.1,0.3l-1.2,0.6c-0.2-0.6-0.7-1.6-1.1-2.3l1.2-0.5
		c0.4,0.5,0.8,1.3,1.1,1.8c1.7-0.8,3.3-2.1,4.1-3.7L81.2,53.7z M80.8,46.1c-1,1.3-2.4,2.6-3.7,3.4c-0.3-0.4-0.8-0.9-1.2-1.2
		c1.2-0.6,2.6-1.8,3.3-2.9L80.8,46.1z M81.1,49.8c-1,1.4-2.5,2.7-4,3.6c-0.3-0.4-0.7-0.9-1.1-1.2c1.3-0.7,2.8-1.9,3.6-3.1L81.1,49.8
		z"/>
	<path d="M94.8,52.5c-0.4,0.2-0.9,0.5-1.3,0.7c0.4,1.2,1.1,2.4,2,3c-0.3,0.3-0.8,0.8-1,1.2c-1-0.8-1.8-2.2-2.2-3.7l-0.4,0.2
		c0.5,1.5,0.2,3.1-0.4,3.7C91,58,90.6,58.1,90,58.1c-0.3,0-0.6,0-0.9,0c0-0.4-0.1-1-0.4-1.4c0.4,0,0.7,0.1,0.9,0.1
		c0.3,0,0.5,0,0.6-0.3c0.2-0.2,0.3-0.7,0.3-1.3c-1.2,1-2.7,1.8-4,2.3c-0.2-0.3-0.6-0.9-0.9-1.2c1.7-0.5,3.7-1.5,4.7-2.5
		c-0.1-0.2-0.1-0.3-0.2-0.4c-1,0.8-2.4,1.6-3.6,2c-0.2-0.3-0.6-0.8-0.9-1c1.3-0.4,3-1.1,3.9-1.8c-0.1-0.1-0.3-0.3-0.4-0.4
		c-0.9,0.6-1.8,1.1-2.7,1.4c-0.2-0.3-0.6-0.8-0.9-1c0.9-0.3,1.9-0.7,2.7-1.1h-1.5v-2c-0.1,0.1-0.3,0.3-0.4,0.4
		c-0.2-0.3-0.6-0.9-1-1.1l0,0v9.5h-1.6v-7c-0.3,0.4-0.5,0.7-0.8,1c-0.2-0.4-0.6-1.3-0.9-1.7c1.2-1.3,2.4-3.3,3-5.2l1.6,0.5
		c-0.3,1-0.8,1.9-1.3,2.9c1.4-1,2.4-2.3,3-3.4l1.5,0.3c-0.1,0.2-0.3,0.5-0.4,0.7h2.2l0.3-0.1l0.9,0.7c-0.3,0.4-0.6,0.9-1,1.3h2.6
		v3.2h-4.1l0,0c0.5,0.4,0.9,0.9,1.2,1.4c0.8-0.4,1.7-0.9,2.2-1.4L94.8,52.5z M88.6,47.4c-0.2,0.3-0.4,0.5-0.6,0.7h2.1
		c0.2-0.2,0.4-0.5,0.6-0.7H88.6z M88.1,50.2h1.5v-0.9h-1.5V50.2z M92.8,49.3h-1.7v0.9h1.7V49.3z"/>
	<path d="M56.7,71.4h-2l-3.1-5.4l0,0v5.4h-2v-8.5h2l3.1,5.4l0,0v-5.4h2V71.4z"/>
	<path d="M57.7,68.2c0-1,0.3-1.7,0.8-2.3s1.3-0.9,2.3-0.9s1.7,0.3,2.3,0.9c0.6,0.6,0.8,1.4,0.8,2.3v0.1c0,1-0.3,1.7-0.8,2.3
		s-1.3,0.9-2.2,0.9c-1,0-1.7-0.3-2.3-0.9C58,70,57.7,69.2,57.7,68.2L57.7,68.2z M59.7,68.2c0,0.5,0.1,0.9,0.2,1.3
		c0.1,0.4,0.4,0.5,0.8,0.5s0.7-0.2,0.8-0.5s0.3-0.7,0.3-1.2v-0.1c0-0.5-0.1-0.9-0.3-1.2c-0.2-0.3-0.4-0.5-0.8-0.5s-0.7,0.2-0.8,0.5
		S59.7,67.7,59.7,68.2L59.7,68.2z"/>
	<path d="M69.9,71.4h-2v-8.5h2V71.4z"/>
	<path d="M73.1,65.1l0.1,0.8c0.2-0.3,0.5-0.5,0.8-0.7s0.6-0.2,1-0.2c0.4,0,0.7,0.1,1,0.3c0.3,0.2,0.5,0.4,0.6,0.8
		c0.2-0.3,0.4-0.6,0.8-0.8c0.4-0.2,0.7-0.3,1.1-0.3c0.6,0,1.1,0.2,1.5,0.6c0.4,0.4,0.5,1.1,0.5,2v3.9h-2v-3.9c0-0.4-0.1-0.7-0.2-0.8
		c-0.1-0.1-0.3-0.2-0.6-0.2c-0.2,0-0.4,0-0.5,0.1c-0.1,0.1-0.3,0.2-0.4,0.3c0,0.1,0,0.1,0,0.2c0,0.1,0,0.1,0,0.1v4.2h-2v-3.9
		c0-0.4-0.1-0.7-0.2-0.8c-0.1-0.1-0.3-0.2-0.6-0.2c-0.2,0-0.3,0-0.5,0.1c-0.2,0.1-0.3,0.2-0.4,0.3v4.5h-2v-6.3h2V65.1z"/>
	<path d="M85.2,71.4c-0.1-0.1-0.1-0.2-0.1-0.3s-0.1-0.3-0.1-0.4c-0.2,0.3-0.4,0.5-0.7,0.6c-0.3,0.1-0.6,0.2-1,0.2
		c-0.6,0-1.1-0.2-1.5-0.5c-0.4-0.3-0.6-0.8-0.6-1.4c0-0.6,0.2-1.1,0.7-1.5c0.5-0.4,1.2-0.5,2.1-0.5h0.7V67c0-0.3-0.1-0.5-0.2-0.6
		c-0.1-0.1-0.3-0.2-0.6-0.2c-0.2,0-0.4,0.1-0.5,0.2c-0.1,0.1-0.2,0.3-0.2,0.5h-1.9l0,0c0-0.6,0.2-1.1,0.7-1.5c0.5-0.4,1.2-0.6,2-0.6
		s1.4,0.2,1.9,0.6c0.5,0.4,0.7,0.9,0.7,1.7v2.4c0,0.3,0,0.7,0.1,0.9c0.1,0.2,0.1,0.6,0.3,0.9L85.2,71.4z M83.9,70.1
		c0.2,0,0.4,0,0.5-0.1c0.1-0.1,0.3-0.2,0.4-0.3v-1h-0.7c-0.3,0-0.5,0.1-0.7,0.2c-0.2,0.1-0.2,0.3-0.2,0.6c0,0.2,0.1,0.3,0.2,0.4
		C83.6,69.9,83.8,70.1,83.9,70.1z"/>
	<path d="M87.8,68.2c0-1,0.2-1.8,0.6-2.4c0.4-0.6,1-0.9,1.8-0.9c0.3,0,0.6,0.1,0.9,0.2c0.3,0.1,0.5,0.4,0.7,0.7l0.1-0.8h1.7v6.1
		c0,0.8-0.3,1.5-0.9,2c-0.6,0.5-1.4,0.8-2.3,0.8c-0.3,0-0.7,0-1-0.1c-0.3-0.1-0.7-0.2-1-0.4l0.3-1.5c0.3,0.1,0.6,0.2,0.8,0.3
		c0.2,0.1,0.6,0.1,0.9,0.1c0.4,0,0.7-0.1,0.9-0.3c0.2-0.2,0.3-0.5,0.3-0.9v-0.3c-0.2,0.2-0.4,0.4-0.6,0.5c-0.2,0.1-0.5,0.2-0.8,0.2
		c-0.8,0-1.4-0.3-1.8-0.9C87.9,70,87.8,69.3,87.8,68.2L87.8,68.2z M89.8,68.4c0,0.5,0.1,0.9,0.2,1.2c0.1,0.3,0.4,0.4,0.8,0.4
		c0.2,0,0.4,0,0.6-0.1c0.2-0.1,0.3-0.2,0.4-0.3v-2.7c-0.1-0.1-0.2-0.3-0.4-0.3c-0.2,0-0.3-0.1-0.5-0.1c-0.4,0-0.6,0.2-0.8,0.5
		c-0.2,0.3-0.3,0.7-0.3,1.3V68.4z"/>
	<path d="M97.6,71.6c-0.9,0-1.7-0.3-2.2-0.9c-0.5-0.6-0.8-1.3-0.8-2.2v-0.2c0-1,0.3-1.8,0.8-2.4c0.5-0.6,1.2-0.9,2.2-0.9
		c0.9,0,1.5,0.3,2,0.8s0.7,1.2,0.7,2.1v1h-3.6l0,0c0,0.3,0.2,0.6,0.4,0.8c0.2,0.2,0.5,0.3,0.9,0.3c0.4,0,0.7,0,0.9-0.1
		c0.2-0.1,0.5-0.2,0.9-0.3l0.5,1.2c-0.3,0.2-0.6,0.4-1.1,0.5C98.8,71.4,98.1,71.6,97.6,71.6z M97.6,66.5c-0.3,0-0.5,0.1-0.6,0.3
		c-0.1,0.2-0.2,0.5-0.3,0.8l0,0h1.7v-0.2c0-0.3-0.1-0.6-0.2-0.7C98.1,66.6,97.8,66.5,97.6,66.5z"/>
</g>
</svg>
