<?xml version="1.0" encoding="utf-8"?>
<!-- Generator: Adobe Illustrator 25.1.0, SVG Export Plug-In . SVG Version: 6.00 Build 0)  -->
<svg version="1.1" id="圖層_1" xmlns="http://www.w3.org/2000/svg" xmlns:xlink="http://www.w3.org/1999/xlink" x="0px" y="0px"
	 viewBox="0 0 74 18" style="enable-background:new 0 0 74 18;" xml:space="preserve">
<style type="text/css">
	.st0{fill:#D04B00;}
</style>
<path class="st0" d="M14.9,2.8h-3.8V0.6H9.4v2.3H7.1V0.6H5.5v2.3H1.6v8.4H0v1.6h16.5v-1.6h-1.6V2.8z M3.3,11.2V8.5h2.2v2.7H3.3z
	 M7.1,11.2V8.5h2.3v2.7H7.1z M11.1,11.2V8.5h2.2v2.7H11.1z M3.3,6.9V4.4h2.2v2.5H3.3z M7.1,4.4h2.3v2.5H7.1V4.4z M11.1,4.4h2.2v2.5
	h-2.2V4.4z M10.8,13.1l-0.9,1.3c1.9,0.7,3.7,1.7,5.5,3l0.9-1.4C14.6,14.8,12.8,13.9,10.8,13.1z M5.7,13.1c-1.4,1.1-3.2,2.1-5.4,2.8
	L1,17.4c2.2-0.8,4.1-1.9,5.7-3.1L5.7,13.1z M19.4,4.4v4.2h2.7v1.5h-3.4v1.4h1c-0.1,1.9-0.5,3.3-1.1,4l1.2,0.9
	c0.8-0.9,1.2-2.6,1.3-4.9h1.1c0,2-0.3,3.5-0.9,4.6l1.2,1.1c0.8-1.5,1.2-3.4,1.2-5.8V6.2h6.6c0.1,2.3,0.3,4.2,0.5,5.6
	c0.1,0.6,0.2,1.1,0.4,1.5c-0.4,0.7-1,1.4-1.6,1.9v-0.6h-1.4v-1.4h1.4V9.6h-1.4V8.4h1.4V7.1h-5.2V16h4.4l0.7,1.2
	c0.9-0.5,1.6-1.2,2.3-2c0.1,0.3,0.3,0.5,0.4,0.7c0.6,0.9,1.1,1.3,1.6,1.3c0.6,0,1.2-1.1,1.5-3.4l-1.2-0.7c-0.2,1.4-0.3,2.2-0.5,2.2
	c-0.1,0-0.3-0.3-0.6-1c-0.1-0.2-0.1-0.4-0.2-0.6c0.8-1.6,1.4-3.7,1.7-6.2L33,7.2c-0.2,1.5-0.4,2.9-0.8,4c0,0,0,0,0-0.1
	c-0.2-1.1-0.3-2.8-0.4-5H35V4.8h-0.8c-0.2-0.5-0.3-1-0.5-1.4l-1.4,0.2c0.2,0.4,0.4,0.7,0.5,1.2h-1.1c0-0.3,0-0.6,0-0.8H31V3.2h3.8
	V1.7H31V0.7h-1.6v1.1h-2v1.5h2v1.1h0.8v0.4h-8.1v2.4h-1.3V4.4H19.4z M19.2,1.7v1.5h3.8v1.1h1.6V3.2h2V1.7h-2V0.7h-1.6v1.1H19.2z
	 M27,8.4v1.2h-1.2V8.4H27z M25.8,10.9h2.6v1.2h-2.6V10.9z M25.8,13.3H27v1.4h-1.2V13.3z M42.4,0.7v4.8h-4.5v1.6h4.5v7.3
	c-1.6,0.4-3.2,0.6-4.9,0.8l0.4,1.6c2.7-0.4,5.1-1,7.5-1.6v-1.6c-0.4,0.1-0.8,0.2-1.3,0.3V0.7H42.4z M51.2,16.6c1,0,1.6-0.2,2-0.6
	c0.4-0.4,0.6-1.6,0.7-3.5L52.3,12c-0.1,1.5-0.2,2.4-0.4,2.7c-0.2,0.2-0.5,0.4-1,0.4h-1.6c-0.5,0-0.7-0.2-0.7-0.5V7.3L53.4,7V5.3
	l-4.8,0.3v-5h-1.7v14c0,1.3,0.7,1.9,2,1.9H51.2z M56.6,1.5v1.3h3.7v0.6H62V2.8h2V1.5h-2V0.6h-1.6v0.8H56.6z M66.9,0.6v0.8h-2v1.3h2
	v0.6h1.6V2.8h3.7V1.5h-3.7V0.6H66.9z M58.8,6.8c-0.4,0.5-1.1,0.8-2.2,1.1l0.5,1c1.4-0.5,2.3-1.2,2.8-2.1h1.8v0.8
	c0,0.4,0.3,0.5,1,0.5h1.8V7.4h-1.4c-0.2,0-0.3-0.1-0.3-0.3V6.8h1.8v-1h-3.2V5.2H64V4.1h-2.5V3.6H60v0.6h-2.6v1.1H60v0.6h-3.2v1H58.8
	z M57.9,8.6v0.9H60v0.6l-3.3,0.1l0.1,1.1c2.7-0.1,5.1-0.2,7.2-0.3v-1c-0.8,0-1.7,0.1-2.7,0.1V9.5h2.1V8.6h-2.1V7.6H60v0.9H57.9z
	 M71.2,11.4c0.4,0,0.6-0.2,0.9-0.5c0.3-0.4,0.5-1.2,0.7-2.3l-1.2-0.5c0,0.5-0.1,1-0.2,1.2c-0.1,0.3-0.2,0.4-0.4,0.5
	c-0.1,0-0.2-0.2-0.3-0.5c-0.1-0.3-0.1-0.8-0.1-1.4c0-1,0.1-2.2,0.2-3.4h-2.7V3.6h-1.4v0.9h-1.9v1.3h1.9c0,0.6-0.1,1.2-0.3,1.7
	c-0.4-0.2-0.7-0.4-1.1-0.5l-0.8,0.9c0.5,0.2,1,0.5,1.4,0.8c-0.4,0.7-0.9,1.3-1.6,1.7l1.1,1c0.7-0.5,1.3-1.1,1.7-1.9
	c0.3,0.3,0.7,0.6,1,0.9l1-1c-0.5-0.4-0.9-0.8-1.4-1.1c0.3-0.8,0.4-1.6,0.4-2.5h1.3c-0.1,0.8-0.1,1.5-0.1,2.1c0,0.8,0.1,1.5,0.2,2.1
	c0.1,0.5,0.4,0.8,0.6,1.1C70.6,11.3,70.9,11.4,71.2,11.4z M58.1,11.8v1.1h12.6v-1.1H58.1z M56.4,13.5v1.2h4.1
	c-0.7,0.4-1.3,0.8-1.8,1.1c-0.2,0.1-0.4,0.1-0.7,0.2l0.3,1.2c4.6-0.2,8.2-0.4,11.1-0.7c0.5,0.3,0.8,0.6,1.2,0.9l1-1
	c-0.8-0.5-1.7-1.1-2.8-1.7h3.6v-1.2H56.4z M62.5,14.7h4.8L67,14.9c0.3,0.2,0.6,0.3,1,0.5c-2.1,0.2-4.6,0.3-7.5,0.4
	C61,15.6,61.7,15.2,62.5,14.7z"/>
</svg>
