<?xml version="1.0" encoding="utf-8"?>
<!-- Generator: Adobe Illustrator 25.1.0, SVG Export Plug-In . SVG Version: 6.00 Build 0)  -->
<svg version="1.1" id="圖層_1" xmlns="http://www.w3.org/2000/svg" xmlns:xlink="http://www.w3.org/1999/xlink" x="0px" y="0px"
	 viewBox="0 0 41 48" style="enable-background:new 0 0 41 48;" xml:space="preserve">
<style type="text/css">
	.st0{fill:#D04B00;}
</style>
<path class="st0" d="M17.1,3h-4.3V0.5h-2V3H8.5V0.5h-2V3H2.2v9.3H0.4v2h18.4v-2h-1.7V3z M4.2,12.3V9.4h2.3v2.9H4.2z M8.5,12.3V9.4
	h2.4v2.9H8.5z M12.8,12.3V9.4h2.3v2.9H12.8z M4.2,7.5V4.9h2.3v2.6H4.2z M8.5,4.9h2.4v2.6H8.5V4.9z M12.8,4.9h2.3v2.6h-2.3V4.9z
	 M12.5,14.4L11.4,16c2.1,0.8,4.1,1.9,6,3.3l1.1-1.8C16.8,16.3,14.7,15.2,12.5,14.4z M6.7,14.4c-1.5,1.2-3.5,2.2-5.9,3l0.9,1.9
	c2.5-0.9,4.6-2.1,6.3-3.4L6.7,14.4z M22.8,4.8v4.7h3v1.6h-3.7v1.7h1c-0.1,2.1-0.5,3.5-1.2,4.3l1.4,1.1c0.8-1,1.3-2.8,1.4-5.4h1.1
	c0,2.1-0.4,3.7-1,4.9l1.5,1.4c0.8-1.6,1.3-3.8,1.3-6.5V6.9h7.2c0.1,2.5,0.3,4.6,0.6,6.2c0.1,0.6,0.2,1.1,0.4,1.6
	c-0.5,0.8-1,1.4-1.6,2v-0.6h-1.4v-1.4h1.4v-4.1h-1.4V9.3h1.4V7.7h-5.9v10h5l0.8,1.3c0.9-0.5,1.8-1.3,2.5-2.2
	c0.1,0.3,0.2,0.5,0.4,0.7c0.6,1,1.2,1.4,1.8,1.4c0.8,0,1.3-1.3,1.7-3.8L39,14.4c-0.2,1.5-0.4,2.3-0.5,2.3c-0.1,0-0.3-0.3-0.6-1
	l-0.2-0.5c0.9-1.8,1.5-4.1,1.9-6.9l-1.7-0.4c-0.2,1.6-0.4,2.9-0.8,4.2c-0.2-1.2-0.3-2.9-0.4-5.2h3.5V5.2h-0.8
	c-0.2-0.5-0.3-1-0.5-1.5L37.1,4c0.2,0.4,0.4,0.8,0.6,1.2h-1.1V4.3h-0.8V3.6H40V1.7h-4.1V0.6h-2v1.1h-2.2v1.9h2.2v1.2h0.9v0.4h-9v2.6
	h-1.2v-3H22.8z M22.5,1.7v1.9h4.1v1.2h2V3.6h2.2V1.7h-2.2V0.6h-2v1.1H22.5z M31.2,9.3v1.2H30V9.3H31.2z M30,12h2.7v1.2H30V12z
	 M30,14.7h1.2v1.4H30V14.7z M5.9,28.6V34H1v2h4.9v7.9c-1.8,0.4-3.6,0.7-5.4,0.9l0.5,2c3-0.5,5.7-1.1,8.3-1.8v-2
	C8.9,43,8.4,43.2,8,43.3V28.6H5.9z M15.8,46.4c1.1,0,1.8-0.2,2.2-0.7c0.4-0.5,0.7-1.8,0.8-3.9l-1.9-0.6c-0.1,1.6-0.2,2.6-0.4,2.9
	c-0.2,0.3-0.6,0.4-1,0.4h-1.7c-0.4,0-0.7-0.2-0.7-0.5v-7.8l5.3-0.4v-2L13,34.1v-5.4h-2.1v15.6c0,1.5,0.8,2.2,2.3,2.2H15.8z
	 M22.6,29.5v1.6h4.1v0.6h1.9v-0.6h2.2v-1.6h-2.2v-0.9h-1.9v0.9H22.6z M33.9,28.6v0.9h-2.2v1.6h2.2v0.6h1.9v-0.6h4.1v-1.6h-4.1v-0.9
	H33.9z M24.9,35.5c-0.4,0.5-1.2,0.8-2.3,1.2l0.6,1.1c0.3-0.1,0.6-0.2,0.9-0.4v1h2.3v0.6l-3.6,0.1l0.2,1.3c3-0.1,5.7-0.2,8-0.3v-1.2
	C30,39,29,39,27.9,39v-0.6h2.2v-1.1h-2.2v-1h-1.6v1h-2.2c1-0.5,1.7-1.1,2.1-1.9h1.9v0.8c0,0.4,0.4,0.6,1.2,0.6h2V36h-1.5
	c-0.2,0-0.3-0.1-0.3-0.3v-0.3h2v-1.2H28v-0.6h2.8v-1.3H28v-0.6h-1.8v0.6h-2.8v1.3h2.8v0.6h-3.5v1.2H24.9z M38.8,40.6
	c0.4,0,0.8-0.2,1-0.6c0.3-0.4,0.6-1.3,0.8-2.6l-1.4-0.6c0,0.6-0.1,1-0.2,1.3c-0.1,0.3-0.2,0.4-0.4,0.5c-0.1,0-0.2-0.2-0.2-0.5
	c-0.1-0.4-0.1-0.9-0.1-1.5c0-1.2,0.1-2.4,0.3-3.7h-3.1v-1h-1.7v1h-2v1.6h2c0,0.6-0.1,1.2-0.3,1.8c-0.4-0.2-0.8-0.4-1.1-0.6l-0.9,1
	c0.5,0.3,1,0.6,1.5,0.9c-0.4,0.7-1,1.3-1.7,1.8l1.3,1.2c0.7-0.5,1.3-1.2,1.8-2c0.4,0.3,0.7,0.6,1.1,0.9l1.2-1.2
	c-0.5-0.5-1-0.9-1.6-1.2c0.3-0.8,0.4-1.7,0.5-2.7h1.3c-0.1,0.8-0.1,1.6-0.1,2.2c0,0.9,0.1,1.7,0.3,2.4c0.2,0.6,0.4,1,0.7,1.2
	C38,40.5,38.4,40.6,38.8,40.6z M24.2,40.9v1.3h14.1v-1.3H24.2z M22.3,42.8v1.4h4.5c-0.7,0.4-1.3,0.8-1.8,1.1
	c-0.2,0.1-0.5,0.2-0.8,0.2l0.4,1.5c5-0.2,9.1-0.5,12.3-0.8c0.5,0.3,0.9,0.7,1.3,1l1.2-1.2c-0.8-0.6-1.8-1.2-3-1.7h3.8v-1.4H22.3z
	 M29.1,44.2h5.2l-0.3,0.3c0.3,0.2,0.6,0.3,0.9,0.5c-2.3,0.2-5,0.3-8,0.5C27.6,45.2,28.3,44.7,29.1,44.2z"/>
</svg>
