<svg id="red" xmlns="http://www.w3.org/2000/svg" viewBox="0 0 157.5 105"><defs><style>.cls-1{fill:#cf3339;}</style></defs><path class="cls-1" d="M40.58,39.45V105H53.35V38.91a79.24,79.24,0,0,1-9.68.6C42.64,39.51,41.6,39.49,40.58,39.45Z"/><path class="cls-1" d="M60.52,105h7.76V35.58a77.15,77.15,0,0,1-7.76,2.12Z"/><path class="cls-1" d="M92.11,22.85a78.85,78.85,0,0,1-16.65,10V105H96.22V19.73c-1.14.82-2.26,1.66-3.36,2.53Z"/><path class="cls-1" d="M103.4,15v90h54.1V0A104.49,104.49,0,0,0,103.4,15Z"/><path class="cls-1" d="M0,26.3V105H33.4V38.84A78.37,78.37,0,0,1,0,26.3Z"/></svg>