<svg xmlns="http://www.w3.org/2000/svg" xmlns:xlink="http://www.w3.org/1999/xlink" width="50" height="22" viewBox="0 0 50 22">
  <defs>
    <clipPath id="clip-path">
      <rect id="Rectangle_1073" data-name="Rectangle 1073" width="50" height="22" transform="translate(261 456)" fill="#fff" stroke="#707070" stroke-width="1"/>
    </clipPath>
    <clipPath id="clip-path-2">
      <rect id="Rectangle_1038" data-name="Rectangle 1038" width="50" height="50" fill="#fff"/>
    </clipPath>
  </defs>
  <g id="Mask_Group_505" data-name="Mask Group 505" transform="translate(-261 -456)" clip-path="url(#clip-path)">
    <g id="Mask_Group_495" data-name="Mask Group 495" transform="translate(261 442)" clip-path="url(#clip-path-2)">
      <g id="Group_1030" data-name="Group 1030" transform="translate(0 14)">
        <path id="Path_139414" data-name="Path 139414" d="M25,62.884c.1-.379.158-.58.206-.783A12.536,12.536,0,0,1,37.4,52.381a12.7,12.7,0,0,1,12.246,9.771,18.612,18.612,0,0,1,.347,2.5c.059.646-.212.986-.683,1s-.73-.317-.756-.952a11.269,11.269,0,0,0-8.687-10.583,11.076,11.076,0,0,0-13.426,9.248c-.042.339-.079.679-.1,1.02-.059.8-.456,1.162-1.3,1.169-.907.007-1.317-.329-1.372-1.15a10.777,10.777,0,0,0-3.981-7.966A10.593,10.593,0,0,0,8.534,54.618a10.688,10.688,0,0,0-6.977,8.892c-.063.416-.079.84-.1,1.261-.033.58-.305.927-.755.885-.561-.053-.72-.433-.7-.939A12.2,12.2,0,0,1,7.237,53.6,12.508,12.508,0,0,1,24.8,62.1c.048.2.108.4.209.78" transform="translate(0 -43.918)" fill="#911f27"/>
        <path id="Path_139415" data-name="Path 139415" d="M186.637,76.4A8.8,8.8,0,0,1,195.6,84.44a5.255,5.255,0,0,1,.017.543c-.013.531-.3.866-.74.834a.719.719,0,0,1-.707-.81,7.245,7.245,0,0,0-14.485-.187c-.016.459-.084.858-.6.984-.484.12-.853-.271-.861-.885a8.7,8.7,0,0,1,8.412-8.517" transform="translate(-149.474 -64.078)" fill="#911f27"/>
        <path id="Path_139416" data-name="Path 139416" d="M32.69,76.417a8.709,8.709,0,0,1,8.661,8.018c.013.16.018.322.017.482,0,.578-.275.936-.726.908-.521-.033-.671-.375-.733-.858a11.46,11.46,0,0,0-.436-2.3,7.117,7.117,0,0,0-7.624-4.746,7.2,7.2,0,0,0-6.418,6.95c-.025.638-.288.971-.753.954s-.7-.357-.7-1a8.711,8.711,0,0,1,8.708-8.41" transform="translate(-20.113 -64.089)" fill="#911f27"/>
        <path id="Path_139417" data-name="Path 139417" d="M85.463,6.964a12.485,12.485,0,0,1,22.419.045,8.891,8.891,0,0,1-1.29.2c-.146,0-.332-.236-.438-.4A10.67,10.67,0,0,0,98.8,1.693a10.819,10.819,0,0,0-11.353,4.68c-.709.978-.739,1.014-1.98.59" transform="translate(-71.676 0)" fill="#911f27"/>
        <path id="Path_139418" data-name="Path 139418" d="M124.3,28.053l-1.3.592a7.324,7.324,0,0,0-5.991-3.244c-2.643-.079-4.452,1.357-6.048,3.275l-1.342-.61c1.7-2.207,3.69-3.842,6.547-4.079a8.634,8.634,0,0,1,8.133,4.066" transform="translate(-91.934 -20.092)" fill="#911f27"/>
        <path id="Path_139419" data-name="Path 139419" d="M52.819,100.381a4.848,4.848,0,0,1,4.819,4.409c.014.16.071.37,0,.472-.185.249-.405.57-.669.638-.393.1-.669-.2-.748-.606a9.513,9.513,0,0,0-.208-1.18,3.362,3.362,0,0,0-3.574-2.268,3.408,3.408,0,0,0-2.984,3.081c-.011.12,0,.243-.021.361a.685.685,0,0,1-.749.633c-.417-.022-.738-.3-.666-.7a8.863,8.863,0,0,1,.648-2.407,4.627,4.627,0,0,1,4.157-2.433" transform="translate(-40.26 -84.188)" fill="#911f27"/>
        <path id="Path_139420" data-name="Path 139420" d="M207.009,100.2a4.9,4.9,0,0,1,4.806,4.4,2.447,2.447,0,0,1,.01.482.68.68,0,0,1-.7.684.69.69,0,0,1-.732-.656,7.9,7.9,0,0,0-.207-1.181,3.355,3.355,0,0,0-3.647-2.248,3.412,3.412,0,0,0-2.905,3.03c-.01.1-.007.2-.014.3-.032.474-.279.775-.76.75s-.678-.353-.688-.825a4.843,4.843,0,0,1,3.766-4.588c.353-.074.714-.1,1.072-.154" transform="translate(-169.557 -84.034)" fill="#911f27"/>
        <path id="Path_139421" data-name="Path 139421" d="M138.453,50.264l-1.075.9a3.446,3.446,0,0,0-2.912-1.572,3.378,3.378,0,0,0-2.854,1.581l-1.079-.9a4.777,4.777,0,0,1,7.92-.008" transform="translate(-109.476 -40.393)" fill="#911f27"/>
      </g>
    </g>
  </g>
</svg>
