<svg xmlns="http://www.w3.org/2000/svg" xmlns:xlink="http://www.w3.org/1999/xlink" width="329.226" height="81.455" viewBox="0 0 329.226 81.455" preserveAspectRatio="xMinYMid">
  <defs>
    <linearGradient id="linear-gradient" y1="1" x2="1" gradientUnits="objectBoundingBox">
      <stop offset="0" stop-color="#de9f0e"/>
      <stop offset="1" stop-color="#fbcd00"/>
    </linearGradient>
  </defs>
  <g id="Group_1028" data-name="Group 1028" transform="translate(-59 -1686.616)">
    <path id="Path_139410" data-name="Path 139410" d="M1420.721,160.609a1.538,1.538,0,0,0-.11.32c-.056.486-.079.977-.153,1.46a1.646,1.646,0,0,1-.248.643,2.928,2.928,0,0,0-.284.631,6.312,6.312,0,0,1-.4.888.465.465,0,0,1-.6.222,5.85,5.85,0,0,1-.65-.26.447.447,0,0,0-.612.168,1.322,1.322,0,0,1-1.2.545,4.324,4.324,0,0,1-1.248-.027c-.089-.023-.216.008-.272-.043-.242-.223-.539-.127-.787-.107a13.322,13.322,0,0,1-1.368-.126,4.859,4.859,0,0,0-1.589.218c-.244.079-.469.208-.733.053a1.388,1.388,0,0,1-.754-.787,1.9,1.9,0,0,1-.1-.477c-.006-.582.009-1.165.015-1.748,0-.255,0-.511.006-.766.011-.42.022-.84.044-1.259.022-.442.083-.884.076-1.325a3.609,3.609,0,0,1,.166-1.1,5.126,5.126,0,0,0,.2-.814,6.958,6.958,0,0,1,.532-1.883,2.668,2.668,0,0,0,.2-.952c.018-.4.06-.789.09-1.184a6.42,6.42,0,0,0-.007-.762,6.875,6.875,0,0,1-.031-1.669.966.966,0,0,1,.5-.749.827.827,0,0,1,.322.768.554.554,0,0,0,.258.556l.335-.808c.721-.063,1.44-.124,2.16-.188a2.645,2.645,0,0,1,1.436.23,1.584,1.584,0,0,0,1.345-.036.617.617,0,0,1,.336.655c-.015.4-.034.791-.047,1.186a2.2,2.2,0,0,1-.23,1.152c-.034.64-.4,1.19-.492,1.813a.716.716,0,0,1-.594.607.533.533,0,0,1-.622-.182c-.185-.226-.328-.234-.514-.085-.073.058-.133.131-.2.195-.051.048-.106.092-.174.15-.87.137-1.759-.16-2.634.017a2.518,2.518,0,0,0-.464,1.344,1.7,1.7,0,0,0,.446.118c.348,0,.7-.046,1.044-.067.163-.01.327-.005.49-.011a3.038,3.038,0,0,0,.766-.044,3.655,3.655,0,0,1,2.061.075c.718.188,1.441.354,2.185.535a1.591,1.591,0,0,1,.968-.7,1.013,1.013,0,0,1,.944.166.865.865,0,0,1,.046.195c.007.627.005,1.255.014,1.882a2.239,2.239,0,0,0,.136,1.1Zm-2.244-.675a2.454,2.454,0,0,0-.833-.567c-.292-.078-.574-.2-.869-.26-.57-.12-1.142-.234-1.719-.3a2.946,2.946,0,0,0-.756.086,3.926,3.926,0,0,1-.9.13,3.4,3.4,0,0,0-1.955.332,1.135,1.135,0,0,1-.164.06c0,.253,0,.481,0,.709.009.629.018,1.257.034,1.886a1.181,1.181,0,0,0,.219.77c.526.042,1.079.114,1.634.124a10.2,10.2,0,0,0,1.929.149,1.387,1.387,0,0,1,.477.1c.2.046.405.106.611.137a1.171,1.171,0,0,0,1.292-.429,2.655,2.655,0,0,1,.657-.618.747.747,0,0,0,.338-.649c.006-.535,0-1.07,0-1.652m-2.429-7.994c-.479-.1-.932-.2-1.39-.282a1.486,1.486,0,0,0-.414.044c-.37.046-.739.1-1.11.134-.136.012-.28-.049-.416-.036a2.032,2.032,0,0,0-.407.131l-.3-.47c.066.892.125,1.7.187,2.514a.4.4,0,0,0,.058.124,18.957,18.957,0,0,0,3.456-.008,4.327,4.327,0,0,0,.338-2.15" transform="translate(-1032.496 1570.687)" fill="#1a1311"/>
    <path id="Path_139389" data-name="Path 139389" d="M1169.266,132.2l-.8,1.134c.089.28.18.567.271.854a4.541,4.541,0,0,1,.165,1.312,21.405,21.405,0,0,0,.157,2.364,4.975,4.975,0,0,1,.012,1.244c-.073.623-.112,1.251-.217,1.868a10,10,0,0,0-.215,1.639,3.639,3.639,0,0,0,.009.464,7.791,7.791,0,0,1,.112,2,3.873,3.873,0,0,0,.058,1.015c.086.689.184,1.376.276,2.064a.891.891,0,0,1,0,.14,8.564,8.564,0,0,1-.441,1.744c-.163,0-.344,0-.526,0a3.466,3.466,0,0,0-.48.019c-.558.087-.771-.051-.948-.636a.364.364,0,0,0-.065-.091c-.026.212-.052.418-.077.624-.313.139-.607.276-.906.4a2.413,2.413,0,0,1-1.174.118c-.418-.039-.839-.056-1.257-.094-.651-.06-1.305-.1-1.95-.2a14.483,14.483,0,0,0-2.928-.193,2.011,2.011,0,0,0-.541.123,2.356,2.356,0,0,1-1.314.1,4.487,4.487,0,0,0-2.277.1,3.251,3.251,0,0,1-1.521.079,1.961,1.961,0,0,0-1.078.227.832.832,0,0,1-.948-.057l-.444-1.087-.6.444-.58-.189-.462-.154a4.531,4.531,0,0,1-.11-2.053,27.675,27.675,0,0,0,.029-3.416,3.542,3.542,0,0,0-.061-1.382.09.09,0,0,1,0-.069c.167-.3.039-.634.1-.939s-.027-.617.165-.884c-.052-.539.171-1.056.146-1.586a12.552,12.552,0,0,0-.213-1.449,4.7,4.7,0,0,1,0-1.382,9.358,9.358,0,0,0,.125-2.16,8.986,8.986,0,0,1-.028-1.051,1.616,1.616,0,0,1,.25-.934.376.376,0,0,1,.6-.08.3.3,0,0,1,.087.109c.041.108.07.221.113.359a.866.866,0,0,0,.323-.874c.215.018.412.05.609.048s.37-.041.555-.061a4.339,4.339,0,0,1,1.24.169c.366.065.735.114,1.1.177a.935.935,0,0,0,.7-.166,2.442,2.442,0,0,1,1.008-.25c.6-.064,1.214-.079,1.822-.118a7.743,7.743,0,0,1,2.5.3,2.368,2.368,0,0,0,1.108.035c.641-.13,1.29-.228,1.927-.376a6.794,6.794,0,0,1,2.786.076,4.139,4.139,0,0,0,.623.079,2.491,2.491,0,0,1,1.335.372.993.993,0,0,0,.929.123,1.389,1.389,0,0,1,.917,0m-2.019.789c-.175.116-.255.141-.285.194a.851.851,0,0,1-1.033.36c-.3-.056-.6-.092-.9-.133a3.742,3.742,0,0,1-.486-.058,4.707,4.707,0,0,0-2.222.008,13.055,13.055,0,0,0-1.566.38,3.511,3.511,0,0,1-1.8.037,9.483,9.483,0,0,0-4.439.144,3.212,3.212,0,0,1-2.128-.068c-.085-.037-.182-.046-.269-.079a1.958,1.958,0,0,0-.828-.086c-.369.021-.74-.015-1.111-.017-.149,0-.249-.264-.445-.057.032.169.055.354.1.532a7.938,7.938,0,0,1,.17,2.575,6.85,6.85,0,0,0,.471,2.611c.31.06.613.1.9.181a3.653,3.653,0,0,0,2.008-.018,4.726,4.726,0,0,1,1.735-.167,4.882,4.882,0,0,0,1.763-.237.762.762,0,0,0,.017-.173c-.07-.394-.135-.449-.494-.407-.627.073-1.252.162-1.88.222a.975.975,0,0,1-.747-.09c-.22-.182-.474-.12-.712-.145a2.4,2.4,0,0,1-.178-1.322,1.217,1.217,0,0,0-.319-1.171c-.4-.352-.257-.761-.206-1.16.013-.1.168-.231.283-.269a1.6,1.6,0,0,1,.554-.059,5.654,5.654,0,0,0,1.111-.115,23.835,23.835,0,0,1,3.358-.159c.069,0,.139.019.209.022.3.012.605.04.906.028a1.815,1.815,0,0,1,1.087.2,1.6,1.6,0,0,0,.943.2c.445-.009.889-.027,1.333-.015a1.017,1.017,0,0,0,.887-.3.569.569,0,0,1,.687-.1.7.7,0,0,1-.037.162,3.756,3.756,0,0,0-.633,1.961,5.908,5.908,0,0,1-.505,1.737.642.642,0,0,1-.16.227c-.2.212-.591.355-.748.186-.2-.212-.364-.112-.558-.11-.4,0-.794.006-1.19-.018a2.758,2.758,0,0,0-1.17.172.566.566,0,0,0-.122.1c.014.118.029.247.045.391.32.042.6.06.872.117a3.752,3.752,0,0,0,1.6-.028,7.716,7.716,0,0,1,2.774-.036,4.264,4.264,0,0,0,1.32-.029c.569-.1,1.123-.29,1.712-.45a1.479,1.479,0,0,0,.107-.719c.01-.771,0-1.542,0-2.313a6.572,6.572,0,0,1,.2-2.083,2.17,2.17,0,0,0,.007-.557m-17.1,15.441c.275.412.7.252,1.051.331a1.459,1.459,0,0,0,1.02-.192c.035-.212.085-.417.1-.624a5.56,5.56,0,0,0,.027-1.81,11.607,11.607,0,0,1-.192-1.871,1.581,1.581,0,0,1,.186-.95c.21-.381.479-.637.961-.479.033.011.082-.024.125-.038v-.438a2.3,2.3,0,0,0,1.532-.092c.068-.016.132-.047.2-.065a5.392,5.392,0,0,1,2.222-.2,11.97,11.97,0,0,0,2.309.1c.374-.014.75-.029,1.123-.01a8.392,8.392,0,0,1,1.039.125c.412.073.82.174,1.262.27l.567-.458c.4-.144.668.151.983.267a.556.556,0,0,1,.371.545,5.888,5.888,0,0,1-.046.975,11.794,11.794,0,0,0-.148,2.368c.012.256.013.513.006.769-.016.547-.042,1.094-.065,1.682a1.588,1.588,0,0,0,1.009-.182,8.489,8.489,0,0,1,1.082-.241,1.366,1.366,0,0,0,.083-.812c-.043-.723-.085-1.445-.111-2.169-.019-.537.006-1.075-.021-1.611a14.2,14.2,0,0,1,.028-3.074,1.43,1.43,0,0,0-.027-.768c-.22.131-.4.226-.569.342a3.86,3.86,0,0,1-2.853.673,6.294,6.294,0,0,0-2.639.1,3.836,3.836,0,0,1-1.731.1,5.26,5.26,0,0,0-2.022-.026,7.942,7.942,0,0,1-2.5.148,2.032,2.032,0,0,0-1.163.176,2.107,2.107,0,0,1-1.018.183,6.521,6.521,0,0,1-1.225-.251c-.7-.154-.8-.093-.843.635a.482.482,0,0,0,.005.07c.107,1.207-.176,2.416.021,3.624a3.5,3.5,0,0,1,0,.489,4.4,4.4,0,0,0,.034.768,2.58,2.58,0,0,1-.085,1.243c-.038.132-.06.27-.084.38m4.077-12.5c.214.4.065.861.27,1.313a17.019,17.019,0,0,0,2.1-.149,1.664,1.664,0,0,1,.627-.057,16.115,16.115,0,0,0,2.93.079c.163,0,.326.025.489.027.417,0,.834,0,1.282,0,.163-.448.009-.918.135-1.338-.078-.051-.117-.1-.155-.1a7.678,7.678,0,0,0-1.161.021,2.66,2.66,0,0,1-1.847-.166,1.259,1.259,0,0,0-.823-.078,3.683,3.683,0,0,1-.836.035,13.042,13.042,0,0,0-2.785.264c-.041,0-.076.047-.228.146m8.95,12.588a15.045,15.045,0,0,0,.049-2.137,14.272,14.272,0,0,1,.068-2.441,1.585,1.585,0,0,0-.052-.4,1.465,1.465,0,0,1-1.224.25c-.137-.022-.269-.083-.406-.106-.179-.03-.361-.041-.587-.064-.066.475-.135.908-.182,1.344a.966.966,0,0,0,.068.339,2.877,2.877,0,0,1,.1,1.245,3.575,3.575,0,0,0,.3,1.938,6.03,6.03,0,0,0,1.867.031m-7.943-.225a1.428,1.428,0,0,0,.049-.225,12.94,12.94,0,0,1,.337-3.312,4.776,4.776,0,0,0-.119-1.11,14.481,14.481,0,0,0-1.8.342,11.477,11.477,0,0,0,.033,2.264,4.686,4.686,0,0,1,.034,1.935c-.028.106-.1.22.04.337.485.077.912-.268,1.427-.231m4.454-.036c-.038-.751-.073-1.457-.112-2.225a1.431,1.431,0,0,1-1.248.544c-.28.005-.561-.008-.841-.011a2.077,2.077,0,0,0-.881.064,5.52,5.52,0,0,0-.1,1.785l3.18-.157m-2.773-4.731a2.857,2.857,0,0,0-.061,1.49,23.819,23.819,0,0,0,2.506.027c.017-.26.038-.486.046-.712a1.757,1.757,0,0,0-.016-.78c-.408.025-.8.07-1.187.065-.416,0-.832-.056-1.288-.09" transform="translate(-830.235 1584.843)" fill="#1a1311"/>
    <path id="Path_139350" data-name="Path 139350" d="M812.773,139.266c.306-.292.621-.6.943-.893a1.076,1.076,0,0,1,.244-.132q.966-.494,1.932-.987c.082-.042.16-.093.26-.151.091-.556.489-1.02.6-1.614l-1.946-.055a1.191,1.191,0,0,0-.675.148c-.318.192-.722.169-1.03.408-.065.05-.218-.015-.355-.029a1.539,1.539,0,0,1-.053-.281,2.463,2.463,0,0,0-.2-1.092.432.432,0,0,1-.058-.267c.029-.1.109-.239.189-.256a.71.71,0,0,1,.659.107.5.5,0,0,0,.577.125,5.069,5.069,0,0,1,2.221-.153,2.306,2.306,0,0,0,.553-.041c.6-.105,1.195-.223,1.792-.335a.7.7,0,0,1,.208-.025c1.118.137,2.246-.121,3.362.1a2.206,2.206,0,0,0,.379,0c.027-.212.049-.39.072-.568.076-.579.157-1.158.229-1.737.03-.24-.081-.385-.308-.35-.411.064-.843-.109-1.235.121-.815-.009-1.618.2-2.436.125-.182-.018-.378.045-.532-.111a.159.159,0,0,0-.124-.044c-.58.137-1.139-.136-1.729-.063a15.938,15.938,0,0,0-1.731.239,2.24,2.24,0,0,1-.553.087,1.208,1.208,0,0,0-.824.277c-.231-.12-.434-.232-.642-.331a.683.683,0,0,1-.42-.664c0-.271-.169-.581.073-.8a1.428,1.428,0,0,1,.953-.384.969.969,0,0,1,.348.024,3.209,3.209,0,0,0,1.713,0,6.651,6.651,0,0,1,1.8,0,3.912,3.912,0,0,0,1.457.09c.6-.06,1.2-.155,1.808-.188a11.689,11.689,0,0,1,3.208.137,3.588,3.588,0,0,0,.559.033c.208.012.415.036.623.037a1.46,1.46,0,0,0,.331-.054c.066-.015.134-.079.19-.068.708.149,1.438-.01,2.148.176a1.5,1.5,0,0,0,1.1-.057c.218-.109.514.008.738-.162a.093.093,0,0,1,.068-.012c.254.055.5.3.764.011l.866.085.148-.467a2.821,2.821,0,0,1,.56,1.134.542.542,0,0,1-.113.385.8.8,0,0,0-.135.53,17.557,17.557,0,0,0,.137,2.518,2.83,2.83,0,0,1,.03.489,12.087,12.087,0,0,0,.12,1.814,2.032,2.032,0,0,1-.039,1.1c.127.392-.1.767-.056,1.156a.97.97,0,0,1-.019.348,4.683,4.683,0,0,0-.013,2.278,3.967,3.967,0,0,1,.014,1.521,11.461,11.461,0,0,0-.147,3,6.591,6.591,0,0,1-.719,3.194,2.661,2.661,0,0,0-1.32-.634,2.567,2.567,0,0,1-.53-.268,2.87,2.87,0,0,0-.322.182,2.889,2.889,0,0,1-1.761.578c-.778,0-1.533-.169-2.3-.216-.607-.038-1.211-.123-1.819-.15a2.413,2.413,0,0,0-.757.121,4.214,4.214,0,0,1-1.175.133,22.89,22.89,0,0,1-2.924-.3,8.78,8.78,0,0,0-1.68-.023,11.241,11.241,0,0,1-1.186.013,2.028,2.028,0,0,0-1.087.2.61.61,0,0,1-.657,0c-.235-.132-.545-.081-.746-.338a.983.983,0,0,1-.256-.962,1.526,1.526,0,0,1,.4-.852,1.06,1.06,0,0,1,.888.13.915.915,0,0,0,.672.121c.583-.05,1.168-.07,1.749-.139a14.013,14.013,0,0,1,1.892-.026,2.911,2.911,0,0,1,.689.106,4.866,4.866,0,0,0,1.52.209.786.786,0,0,1,.279.011,2.031,2.031,0,0,0,1.04-.033c.3-.056.594-.1.926-.162a1.718,1.718,0,0,1,.522-1.091,8.134,8.134,0,0,0,1.461-2.37c.213-.613.4-1.235.617-1.845a.917.917,0,0,0-.052-.8c-.285-.534-.549-1.08-.807-1.628-.129-.274-.218-.566-.335-.847-.18-.431-.38-.853-.548-1.289s-.306-.879-.46-1.328a6.961,6.961,0,0,0-2.971.043,5.109,5.109,0,0,0,.831,1.357,3.518,3.518,0,0,1,.822,1.184c-.175.035-.322.06-.466.093s-.312.077-.467.12-.31.091-.475.14a6.446,6.446,0,0,0-1.359-1.479,1.141,1.141,0,0,0-.188.272,1.709,1.709,0,0,1-.624.9,2.168,2.168,0,0,0-.64.886c.355.046.653.1.952.12.233.019.468.005.7.007,1.048.008.808.116,1.81-.561l.313-.214c.266.183.47.373.309.74a.27.27,0,0,0,0,.2c.241.488-.075.842-.323,1.175a1.37,1.37,0,0,1-1.116.617c-.934,0-1.87-.013-2.8.051s-1.85.212-2.774.332c-.252.033-.5.1-.766.151a1.7,1.7,0,0,0-.221-.286,1.137,1.137,0,0,1-.338-.952c0-.275-.023-.549-.035-.83m14.579-2.317c-.491.244-.5.7-.56,1.134a2.66,2.66,0,0,1-.116.4c-.139.443-.279.884-.409,1.294.2.344.377.666.563.984a1.469,1.469,0,0,0,.233.345q.87.813,1.757,1.607a.284.284,0,0,0,.485-.16,1.67,1.67,0,0,0,.039-.269c.044-.345.061-.7.139-1.034a1.334,1.334,0,0,0-.023-.608,6.022,6.022,0,0,1-.177-1.593,9.318,9.318,0,0,0,.032-1.042,3.114,3.114,0,0,1,.088-.9,3.96,3.96,0,0,0-.078-2.373,2.345,2.345,0,0,1-1.754.233,3.143,3.143,0,0,0-.977-.006,5.579,5.579,0,0,1-1.814-.009.5.5,0,0,0-.552.131,2.207,2.207,0,0,0,.345.866,1.037,1.037,0,0,1,.239.494,1.97,1.97,0,0,0,.2.436,5.2,5.2,0,0,1,.237.57.3.3,0,0,0,.37.244,2.756,2.756,0,0,0,.183-.66,1.935,1.935,0,0,1,.293-.774.643.643,0,0,1,.71-.366l.544,1.05m1.907,6.3c-.436.2-.8.353-1.138.537a.492.492,0,0,1-.528,0,3.155,3.155,0,0,1-.433-.352c-.383-.344-.758-.7-1.143-1.038a1.982,1.982,0,0,0-.3-.18,3.5,3.5,0,0,0-.182.429,12.486,12.486,0,0,1-.977,2.237,1.866,1.866,0,0,1-.68.786,5.006,5.006,0,0,0-.6.479,1.228,1.228,0,0,0-.16.261c1.021.114,1.971.221,2.921.325a4.378,4.378,0,0,0,1.534-.081,2.749,2.749,0,0,1,1.3-.126.324.324,0,0,0,.368-.259c.035-.135.046-.276.069-.414a10.351,10.351,0,0,0-.055-2.6m-5.274-9.6a4.356,4.356,0,0,0,1.38-.016.762.762,0,0,0,.708-.673.458.458,0,0,1,.365-.447.614.614,0,0,1,.6.1,1.156,1.156,0,0,1,.385.564.942.942,0,0,0,.383.555,1.849,1.849,0,0,0,1.37.168c.053-.819-.049-1.605-.071-2.393,0-.032-.055-.062-.11-.121-.069.025-.176.032-.229.089a.8.8,0,0,1-.911.175,6.83,6.83,0,0,0-1.367-.252,1.942,1.942,0,0,0-1.443.245l-.447-.309-.459.19c-.051.718-.1,1.384-.152,2.122" transform="translate(-569.823 1586.555)" fill="#1a1311"/>
    <path id="Path_139396" data-name="Path 139396" d="M1269.357,130.414v-.406c.179-.114.346-.23.523-.331a.374.374,0,0,1,.553.107c.2.261.371.536.586.85.16,0,.343.009.524,0,.28-.017.559-.049.839-.072a3.905,3.905,0,0,1,1.909.343,4.293,4.293,0,0,0,.873.24c.5.1,1.013.178,1.52.264a3.985,3.985,0,0,0,1.043.092.624.624,0,0,1,.743.388c.225-.132.164-.486.485-.561a3.4,3.4,0,0,1,.168,1.072c.023.345.092.688.145,1.067a14.39,14.39,0,0,1,1.645.542c-.224.347-.435.675-.647,1a.394.394,0,0,1-.356.182h-.775c-.192.269-.392.544-.586.823a.559.559,0,0,0-.127.244c-.035.5-.428.675-.773.9-.076.049-.18.071-.231.137a.9.9,0,0,1-1.02.251,5.766,5.766,0,0,0-.615-.092c-.552-.049-.56.15-.638.541-.086.432-.113.876-.165,1.308.034.036.065.1.094.1,1.055-.03,2.094.151,3.142.218a2.727,2.727,0,0,0,.7-.041c.617-.123,1.229-.274,1.845-.406a3,3,0,0,1,.415-.03c-.169.424-.524.722-.455,1.2a3.521,3.521,0,0,1-2.216.941c-.371.009-.741.059-1.112.082a.66.66,0,0,1-.273-.042c-.2-.079-.388-.172-.592,0a.3.3,0,0,1-.2.035,28.842,28.842,0,0,1-2.988-.2,1.942,1.942,0,0,0-.545.06,2.016,2.016,0,0,1-.472-.089c-.159-.03-.319-.054-.478-.084a3.246,3.246,0,0,0-1.544.18,1.569,1.569,0,0,1-.958-.013,1.251,1.251,0,0,0-.262-.078,13.008,13.008,0,0,0-2.362.157,3.913,3.913,0,0,1-.69.039,12.01,12.01,0,0,0-1.446.177,14.745,14.745,0,0,0-2.077.564,3.8,3.8,0,0,1-1.024.014,1.742,1.742,0,0,1,.262-1.982l.335.129,2.289-.837a1.014,1.014,0,0,0,.055-.933c.206-.193.391-.362.572-.537.3-.293.5-.265.686.126a6.269,6.269,0,0,1,.266.722c.065.2.113.4.169.609a1.449,1.449,0,0,0,1.035.023,4.224,4.224,0,0,1,1.531-.039c.038.006.082-.028.161-.058.078-.348-.145-.7-.054-1.078a4.266,4.266,0,0,0-.019-1.074,7.877,7.877,0,0,0-1.349-.027c-.536.041-1.071.1-1.606.15-.327.028-.654.054-.982.057a9.816,9.816,0,0,0-2.287.325,2.069,2.069,0,0,0-.891.388,2.128,2.128,0,0,1-.459.227l-.552-.428c-.027-.429-.053-.843-.079-1.246a1.97,1.97,0,0,1,.932-.343,1.346,1.346,0,0,0,.412-.078,7.473,7.473,0,0,1,2.6-.478c1-.082,2-.146,3-.248a3.31,3.31,0,0,1,.835,0,3.724,3.724,0,0,0,.516,0c.019-.187.043-.368.054-.549.009-.159,0-.318,0-.49-.116-.041-.2-.1-.285-.1a4.276,4.276,0,0,0-1.31.178,4.16,4.16,0,0,1-.96.193,7.776,7.776,0,0,1-.964.139,2.891,2.891,0,0,1-.894-.079,1.377,1.377,0,0,0-.818-.006,6.469,6.469,0,0,1-.759.14c-.068.012-.175,0-.2.039-.27.442-.852.318-1.182.662-.134.139-.307.08-.418-.08s-.238-.344-.352-.519a.946.946,0,0,1-.012-.853,2.461,2.461,0,0,0,.154-.969,3.835,3.835,0,0,1,.521-.343.8.8,0,0,1,.8-.013,1.05,1.05,0,0,0,.747.1,3.672,3.672,0,0,1,1.323.015,2.227,2.227,0,0,0,.768-.007c.534-.064,1.062-.174,1.6-.225.6-.058,1.213-.075,1.819-.1.207-.01.414,0,.622,0a1.138,1.138,0,0,0,.144-.946,10.913,10.913,0,0,0-3.269.084,6.73,6.73,0,0,1-1.871.253,16.94,16.94,0,0,0-2.154.258,1.324,1.324,0,0,0-.66.372.28.28,0,0,1-.467-.2c-.054-.337-.093-.677-.139-1.025a3.281,3.281,0,0,1,1.3-.392c.909-.074,1.821-.123,2.73-.2a9.751,9.751,0,0,0,1.248-.181,9.118,9.118,0,0,1,2.374-.171,3.789,3.789,0,0,0,1-.018m8.131,4.518a2.039,2.039,0,0,0-.305-.127,6.841,6.841,0,0,0-2.231-.124,3.5,3.5,0,0,1-.761.01c-.742-.076-1.481-.181-2.223-.259a2.419,2.419,0,0,0-1.207.095c.022.285.044.554.068.863a3.528,3.528,0,0,0,.5.07c.37,0,.74-.039,1.11-.034.4,0,.792.04,1.187.062a4.157,4.157,0,0,1,1.036.068c.692.225,1.415.279,2.114.45a.408.408,0,0,0,.5-.271c.081-.24.133-.489.216-.8m-6.45-3.09c-.028.148-.051.26-.071.373-.022.132-.042.263-.064.4a3.791,3.791,0,0,0,1.272.162c.233.009.468-.008.7.023a18.421,18.421,0,0,0,2.722.16,8.333,8.333,0,0,1,1.814.123.534.534,0,0,0,.187-.028l.4-.74c-.044-.012-.1-.048-.129-.033a1.4,1.4,0,0,1-.884.057,7.714,7.714,0,0,0-1.522-.183,8.114,8.114,0,0,1-2.457-.473,2.7,2.7,0,0,0-.684-.1,3.475,3.475,0,0,0-1.287.257m.027,5.344a4.1,4.1,0,0,0-.072,2.1h2.317a3.783,3.783,0,0,0,.567-2.042,5.051,5.051,0,0,0-2.812-.053" transform="translate(-917.079 1586.263)" fill="#1a1311"/>
    <path id="Path_139336" data-name="Path 139336" d="M589.652,138.412c-.443.026-.885.055-1.328.078a2.734,2.734,0,0,0-.49.013,4.209,4.209,0,0,1-1.462.007.877.877,0,0,1-.649-.344l-.348-.438.554-.373a3.5,3.5,0,0,0,1.362.016,8.4,8.4,0,0,1,.981-.027,1.322,1.322,0,0,0,.91-.279c-.146-.578-.172-.622-.958-1.636-.151.023-.33.052-.509.079a.728.728,0,0,1-.823-.379c-.067-.122-.151-.235-.223-.355a.575.575,0,0,1,.081-.816.953.953,0,0,1,.76-.292c.327,0,.655-.007.982,0,.988.031,1.94-.277,2.924-.3a3.579,3.579,0,0,0,.819-.181c.384-.1.763-.222,1.148-.322a1.717,1.717,0,0,0,1.082-.587.354.354,0,0,1,.235-.111c.267-.024.216-.189.173-.376a2.14,2.14,0,0,0-1.075-.2,7.457,7.457,0,0,1-1.88-.165c-.254-.038-.507-.086-.755-.147a8.8,8.8,0,0,0-3-.055,1.973,1.973,0,0,0-.725.223,2.454,2.454,0,0,1-1.213.282,11.848,11.848,0,0,0-1.679.056,20.646,20.646,0,0,1-2.153.087,2.74,2.74,0,0,0-1.231.218.835.835,0,0,1-.544.057,1.976,1.976,0,0,0-.964,0,.635.635,0,0,1-.45-.129A1.312,1.312,0,0,1,579.2,130c.33-.26.33-.26.391-.673a2.905,2.905,0,0,0,.4,0c.137-.019.267-.079.4-.1a1.757,1.757,0,0,1,.408-.026c.466.033.931.086,1.4.113.294.017.59,0,.934,0-.078-.458-.139-.871-.223-1.279a.638.638,0,0,1,.047-.472.525.525,0,0,1,.711-.27,3.669,3.669,0,0,1,1.245.774,5.2,5.2,0,0,0,1.5.888,1.412,1.412,0,0,0,.752.045c.764-.1,1.52-.272,2.286-.334a6.993,6.993,0,0,1,2.37.085,2.024,2.024,0,0,0,1.56-.192,9.557,9.557,0,0,0,2.77-1.988,1.22,1.22,0,0,1,.924.446.537.537,0,0,1,.055.533c-.3.329-.768.415-1.081.746a10.844,10.844,0,0,1-1.014.843c.176.055.294.1.414.128s.271.066.408.1a4.861,4.861,0,0,1,1.393.443.488.488,0,0,0,.185.083,7.207,7.207,0,0,0,2.368-.06c.354-.1.72-.15,1.155-.238a4.209,4.209,0,0,0-.356.568c-.07.168-.051.373-.121.541a1.483,1.483,0,0,1-.612.738,4.431,4.431,0,0,1-2.672.674c-.3-.03-.6-.062-.892-.092-.026.038-.052.06-.048.073.076.249-.263.354-.192.626a3.445,3.445,0,0,0,.433,1.246,4.371,4.371,0,0,1,.458.861,8.436,8.436,0,0,0,.421.754c-.013.274-.261.2-.359.319a2.729,2.729,0,0,1-.262.323.981.981,0,0,1-.358.214c-.471.135-.948.252-1.424.367-.362.087-.728.157-1.09.242-.568.134-1.137.268-1.7.415a10.305,10.305,0,0,0-1.138.339c-.476.185-.935.414-1.4.624l.021-.009m3.374-2.372a4.853,4.853,0,0,1,1.727-.494,3.454,3.454,0,0,0,1.23-.325c-.2-.446-.39-.868-.589-1.283-.079-.165-.187-.317-.295-.5l-1.821.7a1.064,1.064,0,0,1-.208.942.8.8,0,0,0-.044.953,1.691,1.691,0,0,0-.473-.092.694.694,0,0,1-.745-.5,2.487,2.487,0,0,1-.125-.4c-.031-.122.122-.265-.06-.387a3.022,3.022,0,0,0-1.367.33,5.458,5.458,0,0,0-.038.86,1.749,1.749,0,0,0,.268.751c.436-.136.826-.289,1.231-.377.429-.094.872-.128,1.308-.188" transform="translate(-389.123 1588.609)" fill="#1a1311"/>
    <path id="Path_139385" data-name="Path 139385" d="M1075.506,148.576l.167.457a2.572,2.572,0,0,0-.5,1.562,1.511,1.511,0,0,1-.068.482c-.191.648-.4,1.293-.593,1.933-.573.161-.573.161-.928-.071a4.01,4.01,0,0,1-1.325.784.529.529,0,0,0,.168.525.663.663,0,0,1,.226.334,4.442,4.442,0,0,1,.084,1.666,8.3,8.3,0,0,0-.188,1.032,7.569,7.569,0,0,0-.04,1.118c.038.862.1,1.722.158,2.583.008.117.021.233.029.35.027.4.226.526.625.4a1.5,1.5,0,0,0,.814-.638,23.392,23.392,0,0,0,1.924-3.172,7.577,7.577,0,0,1,.4-.74c.029-.051.095-.08.134-.112.049.044.1.069.108.1.072.41.159.82.2,1.234a2.172,2.172,0,0,1-.313,1.276,2.64,2.64,0,0,0-.417,1.319.915.915,0,0,1-.222.577,1.748,1.748,0,0,0-.345.522,2.2,2.2,0,0,1-1.38,1.292,4.429,4.429,0,0,1-.943.251c-.135.03-.286,0-.419.031-.891.237-1.309-.4-1.767-.952a.7.7,0,0,1-.105-.328c-.069-.439-.142-.877-.189-1.319-.115-1.068-.234-2.136-.315-3.206a6.956,6.956,0,0,1,.081-1.109c.032-.373-.113-.727-.072-1.11a9.651,9.651,0,0,1,.469-1.931,10.19,10.19,0,0,0-1.635-.015,3.144,3.144,0,0,0-.051.416,11.344,11.344,0,0,0,.054,1.608,3.964,3.964,0,0,1-.24,1.923c-.155.463-.337.918-.519,1.371a4.343,4.343,0,0,1-.332.687c-.272.434-.566.854-.853,1.278a.611.611,0,0,1-.135.16c-.7.508-1.189,1.242-1.855,1.789a5.764,5.764,0,0,1-2.141,1.135c-.056-.35-.107-.661-.158-.976-.458.121-.733-.169-1.038-.345a.908.908,0,0,1-.365-.725c-.039-.253-.058-.51-.076-.767-.075-1.022-.147-2.044-.217-3.026.311-.409.657-.246,1.016-.2a9.139,9.139,0,0,1,.22,1.591c.062.533.1,1.071.19,1.6a5.191,5.191,0,0,0,.284,1.586,1.347,1.347,0,0,0,.278-.09,5.018,5.018,0,0,0,1.5-1.355q.7-.966,1.374-1.944a9.488,9.488,0,0,0,1.394-2.813,6.888,6.888,0,0,0,.353-2.344c-.009-.14-.011-.281-.033-.419a.288.288,0,0,0-.34-.274c-.348.042-.693.107-1.038.168-.068.012-.129.074-.194.077a1.086,1.086,0,0,0-1.14.921c-.013.06-.085.108-.143.178-.344-.019-.508-.28-.687-.518a.715.715,0,0,1-.052-.608q.163-.9.333-1.79a3.036,3.036,0,0,0-.018-1.246,11.907,11.907,0,0,1-.143-1.552c.158-.079.295-.162.441-.217a3.8,3.8,0,0,1,.44-.11c.147-.174.308-.372.478-.563.29-.326.437-.361.768-.1a.529.529,0,0,0,.506.144,7.731,7.731,0,0,1,2.305-.091,2.566,2.566,0,0,0,.417.02,12,12,0,0,1,2.314-.03,5.521,5.521,0,0,1,1.09.223,2.519,2.519,0,0,1,.326.129,1.708,1.708,0,0,0,1.873-.019m-1.407,1.379a9.5,9.5,0,0,1-1.175-.312,4.512,4.512,0,0,0-1.858-.237c-.536.014-1.071.06-1.606.091a2.3,2.3,0,0,0-.28.017c-.824.151-1.665.2-2.481.406-.4.1-.687.252-.734.708-.026.253-.13.5-.159.751a.93.93,0,0,0,.079.464.363.363,0,0,0,.268.181,10.814,10.814,0,0,0,1.6-.056,2.278,2.278,0,0,1,.825.018,9.9,9.9,0,0,0,2.234.1,3.507,3.507,0,0,1,.688.012,6.577,6.577,0,0,0,1.293-.161c.041,0,.081-.043.12-.069.353-.227.564-.624.964-.8.035-.015.057-.073.072-.116a1.636,1.636,0,0,0,.146-1" transform="translate(-762.864 1571.992)" fill="#1a1311"/>
    <path id="Path_139369" data-name="Path 139369" d="M959.359,136.265l2.049-.9c-.2-.319-.377-.588-.546-.86-.083-.133-.211-.252-.127-.442.014-.032-.05-.122-.1-.153-.293-.181-.339-.611-.749-.621.011-.223.006-.362.026-.5.053-.358.124-.443.473-.5.992-.151,1.986-.29,3.023-.44.174-.5-.126-1.149.331-1.61a.22.22,0,0,1,.29.142c.084.192.158.389.229.586.086.239.166.48.256.743a3.889,3.889,0,0,0,.563,0,5.961,5.961,0,0,1,3,.4,5.977,5.977,0,0,0,1.207.3.518.518,0,0,0,.318-.093c.273-.162.537-.341.857-.548a1.329,1.329,0,0,1,.065.279.509.509,0,0,1-.065.2,2.323,2.323,0,0,0-.072,1.708,3.7,3.7,0,0,1,.079,1.661c-.052.321-.157.633-.217.953-.052.273-.078.551-.108.828-.035.324-.079.648-.087.972-.012.508.036,1.02,0,1.525-.041.526-.154,1.047-.229,1.526-.1.057-.136.1-.176.1-.529,0-.522-.006-.488.495a.453.453,0,0,1-.107.306,1.408,1.408,0,0,1-1.13.46c-1.074-.038-2.149-.069-3.224-.114-.395-.016-.789-.056-1.182-.1a1.93,1.93,0,0,0-.612.026,1.938,1.938,0,0,1-.629.022,12.25,12.25,0,0,0-2.933.144,3.994,3.994,0,0,1-.769.006.44.44,0,0,1-.436-.456,3.331,3.331,0,0,1,0-.766c.035-.214.119-.391-.115-.554-.065-.045-.074-.217-.058-.324a6.415,6.415,0,0,1,.167-.823,6.8,6.8,0,0,0,.2-2.293c-.025-.4-.048-.794-.108-1.186a6.342,6.342,0,0,1,.191-2.429,4.5,4.5,0,0,1,.725-1.507.333.333,0,0,1,.09-.106c.076-.043.169-.11.239-.094a.282.282,0,0,1,.175.186,2.087,2.087,0,0,1-.1,1.236,7.652,7.652,0,0,0-.179,2.623m8.946.285c-.481.816-1.4.879-2.081,1.369l2.006,2.4c-.084.413-.539.234-.653.544.033.043.065.13.116.143a.671.671,0,0,0,.921-.568,10.287,10.287,0,0,0,.022-2.164,4.925,4.925,0,0,1,.088-1.874,4.911,4.911,0,0,0,.012-2.756,1.892,1.892,0,0,0-.258-.123c-.424-.128-.85-.247-1.275-.373a5.111,5.111,0,0,0-2.071-.247,1.723,1.723,0,0,0-1.41.624c-.015.023-.084.011-.169.02l-.24-.47-1.239.225c-.023.124-.044.213-.055.3a.326.326,0,0,0,.018.137.262.262,0,0,0,.071.117c.307.247.617.489.927.733.367-.061.735-.12,1.1-.183a.643.643,0,0,0,.128-.055c.537-.226,1.073-.455,1.611-.678a1.1,1.1,0,0,1,.867-.091l.167.472a.46.46,0,0,1-.179.556,2.109,2.109,0,0,1-.415.259c-.4.181-.811.359-1.226.512a1.366,1.366,0,0,0-.721.487,4.844,4.844,0,0,0,.923.864c.455-.18.906-.37,1.364-.537a7.232,7.232,0,0,0,1.367-.776,2.758,2.758,0,0,0,.009.611,2.651,2.651,0,0,0,.27.519m-9.334,4.456a3.613,3.613,0,0,0,.44,0c.348-.045.694-.1,1.039-.16a4.52,4.52,0,0,1,1.74-.015,2.931,2.931,0,0,0,.558.051q1.681.027,3.362.042c.085,0,.19.037.252-.122l-1.747-2.047a5.766,5.766,0,0,0-1.444.485c-.5.293-1.031.529-1.558.772a.68.68,0,0,1-.6.065,2.514,2.514,0,0,1,.1-1.5,1.713,1.713,0,0,1,.72-.847,1.484,1.484,0,0,0,1.545-.308c-.142-.193-.262-.361-.388-.525a.53.53,0,0,0-.778-.194c-.085.037-.158.1-.241.139-.648.308-1.306.6-1.94.928-.19.1-.285-.139-.481-.011a3.123,3.123,0,0,0-.04.655,4.26,4.26,0,0,1-.313,1.981c-.065.191-.139.379-.224.609" transform="translate(-682.771 1585.774)" fill="#1a1311"/>
    <path id="Path_139407" data-name="Path 139407" d="M1367.083,148.082c.011-.734.331-.817.868-.735a5.281,5.281,0,0,0,.9.09c1.073-.023,2.146-.07,3.22-.1a1.09,1.09,0,0,0,.651-.2c.245-.179.426-.075.5.235a2.491,2.491,0,0,1,.021,1.044,2.283,2.283,0,0,0-.01,1.018,1.654,1.654,0,0,0,.774.159c.29.04.315-.348.629-.32.037.072.129.169.128.265a6.1,6.1,0,0,1-.074,1.115,5.1,5.1,0,0,0-.073.972c0,.512-.046,1.025-.074,1.537a.934.934,0,0,1-.43.758.8.8,0,0,0-.394.73,1.053,1.053,0,0,1-1.027.943c-1.216.016-2.432.022-3.649.037a.837.837,0,0,1-.793-.33,1.7,1.7,0,0,0-.16.917,2.382,2.382,0,0,1-.094.808.738.738,0,0,0-.021.2,2.337,2.337,0,0,1-.056.927,8.067,8.067,0,0,0-.122.963,6.342,6.342,0,0,0,.072,1.936,1.631,1.631,0,0,0,1.063-.115l1.2-4.548c.3-.34.727-.3,1.179-.317a8.516,8.516,0,0,1,.662,1.429,14.191,14.191,0,0,1,.584,1.44c.439-.29.854-.547,1.251-.829a7.436,7.436,0,0,1,1.151-.871c.026.193.051.321.059.451s0,.275,0,.472c-.651.763-1.3,1.594-2.023,2.349a9.747,9.747,0,0,1-1.811,1.537,6.668,6.668,0,0,1-2.678.986,6.2,6.2,0,0,0-.822.161,1.151,1.151,0,0,1-1.293-.56,1.555,1.555,0,0,1-.147-1.021,7.767,7.767,0,0,0,.014-2.508,3.076,3.076,0,0,1,.03-1.389,3.726,3.726,0,0,0,.026-.622,19.352,19.352,0,0,1,.535-3.022,2.858,2.858,0,0,0-.041-1.718c-.163-.533-.277-1.083-.4-1.628a2.931,2.931,0,0,0-.236-.8c-.189-.35-.1-.526.269-.712.082-.042.166-.082.241-.119a1.821,1.821,0,0,0,1.56.453,22.372,22.372,0,0,0,2.934-.23c.343-.049.694-.041,1.085-.06l.081-.688a1.2,1.2,0,0,0-1.027-.219,1.142,1.142,0,0,1-.415.03,19.879,19.879,0,0,0-2.444,0,2.617,2.617,0,0,1-1.369-.3m1.409,6.085a.677.677,0,0,0,.68.1,5.789,5.789,0,0,1,.955-.206c.7-.042,1.4-.04,2.1-.046.187,0,.395.051.533-.1a3.836,3.836,0,0,0,.6-.758,2.253,2.253,0,0,0-.139-1.328c-.191.067-.207.245-.231.4a.5.5,0,0,1-.529.452c-.606.035-1.213.066-1.819.1a4.4,4.4,0,0,0-.7.054,5.372,5.372,0,0,1-1.522.133c-.037,0-.078.041-.139.076a4.184,4.184,0,0,0,.207,1.119m4.839-2.941c.093-.11.2-.215.052-.385-.4-.122-.817-.27-1.244-.373a1.951,1.951,0,0,0-1.026-.075,4.834,4.834,0,0,1-1.585.146,6.136,6.136,0,0,0-1.9.14,1.5,1.5,0,0,0,.219.761,6.18,6.18,0,0,0,.9-.007,17.02,17.02,0,0,1,3.2-.21c.462.019.925,0,1.386,0m-2.846,6.748a2.831,2.831,0,0,0-.211.507c-.127.7-.3,1.385-.369,2.1a1.988,1.988,0,0,0,.935-.354c.4-.249.476-.469.3-.937-.137-.368-.292-.73-.446-1.091-.025-.057-.088-.1-.21-.227" transform="translate(-998.782 1572.756)" fill="#1a1311"/>
    <path id="Path_139380" data-name="Path 139380" d="M1037.092,133.31a1.045,1.045,0,0,1,.867.154,1.548,1.548,0,0,0,.862.254c.4.02.794.052,1.188.1a5.68,5.68,0,0,0,2.953-.4c.192-.08.4-.234.592-.087.245.191.033.431-.025.64a.765.765,0,0,1-.211.346,3.366,3.366,0,0,1-1.072.644,6.136,6.136,0,0,1-3.181.207c-.135-.019-.273-.029-.416-.044.1.8.816,1.526,2.034,2.064a2.5,2.5,0,0,0,.272-.285.861.861,0,0,1,.357-.316.738.738,0,0,0,.328-.333,5.712,5.712,0,0,1,1.053-1.208,2.151,2.151,0,0,1,.477,1.361c-.194.288-.412.59-.607.906-.183.3-.343.607-.541.962.128.216.273.475.432.726s.174.57.428.772a.662.662,0,0,1,.154.309q.228.694.44,1.394a4.151,4.151,0,0,0,.081.411c.083.2-.109.388.024.589a2.136,2.136,0,0,1,.212.51,1.67,1.67,0,0,1,.08.4,2.932,2.932,0,0,1-.019.387c-.167.195-.389.135-.641.16-.042.162-.1.335-.128.512-.028.159-.009.327-.045.483a.953.953,0,0,1-.853.686c-.187.007-.375,0-.562,0-.164,0-.328.013-.49.029a1.392,1.392,0,0,0-.231.07,3.7,3.7,0,0,1,.077,1.8c-.109,1.114-.224,2.228-.328,3.343-.031.325-.032.653-.045.98-.005.139,0,.139-.215.448-.141-.048-.292-.1-.439-.151a.948.948,0,0,1-.731-1.039c0-.14.031-.279.042-.419.105-1.256.207-2.512.317-3.768.03-.345.088-.687.13-1.005a.314.314,0,0,0-.406-.083,5.517,5.517,0,0,1-1.427.291,2.831,2.831,0,0,1-1.136-.088,3.606,3.606,0,0,1-.609-2.076.964.964,0,0,1,.321-.677,3.975,3.975,0,0,0,.992-1.653,3.636,3.636,0,0,1,.485-.994,6.019,6.019,0,0,1,.77-.772c.065-.063.179-.1.208-.171.157-.4.537-.629.748-.988a.78.78,0,0,0-.419-.6c-.1-.058-.2-.123-.3-.176a5.6,5.6,0,0,1-2.244-2.349,2.707,2.707,0,0,1-.218-.588.868.868,0,0,1,.254-1.014c.224-.167.126-.45.367-.65m3.78,6.678a9.231,9.231,0,0,0-2.609,4.127c.6-.077,1.194-.17,1.791-.225.625-.059,1.253-.082,1.859-.119a1.413,1.413,0,0,0,.156-1.176,19.12,19.12,0,0,0-.869-2.182,1.723,1.723,0,0,0-.328-.424" transform="translate(-743.302 1583.418)" fill="#1a1311"/>
    <path id="Path_139341" data-name="Path 139341" d="M701.5,134.354l-.453.967c-.043,0-.1.018-.126,0a6.957,6.957,0,0,0-1.807-.893c-.755-.324-1.573-.433-2.324-.758-.385-.167-.787-.291-1.173-.455a3.732,3.732,0,0,0-.99-.263c.7.946,1.584,1.638,2.329,2.516l.892-.717c.756.091.865.132,1.271.506l-.367,1.331a7.469,7.469,0,0,1,1.665,1.25l-.27.4-.293.438a12.619,12.619,0,0,1-2.062-1.018c-.256.022-.392.22-.537.4a23.153,23.153,0,0,0-1.835,2.641,2.708,2.708,0,0,0-.4,1.41,1.449,1.449,0,0,0,1.053.252c.3,0,.607-.048.91-.073a.89.89,0,0,1,.348-.017,1.751,1.751,0,0,0,1.425-.264,1.673,1.673,0,0,0,.144-1.7.52.52,0,0,1-.029-.4,2.73,2.73,0,0,1,.653-1.092l.632.145a7.536,7.536,0,0,1,.394,1.945.571.571,0,0,1-.014.278,12.672,12.672,0,0,1-.672,1.967,1.182,1.182,0,0,1-1.029.72,1.654,1.654,0,0,0-1.063.251c-.072.061-.225.028-.341.034-.207.011-.415.02-.64.03a8.346,8.346,0,0,1,.244.974,7.014,7.014,0,0,1,.013.98c-.009.7-.032,1.4-.032,2.1,0,.584.025,1.168.04,1.752,0,.14.012.281.01.421,0,.156.057.36-.152.415-.181.048-.175-.181-.277-.259a2.265,2.265,0,0,0-.291-.19.963.963,0,0,1-.545-.908,10.07,10.07,0,0,1,.11-2.583,1.31,1.31,0,0,0,.033-.348,6.672,6.672,0,0,1,.218-2.011,1.342,1.342,0,0,0,0-.357c-.131-.029-.243-.061-.357-.076-.092-.012-.187.007-.279,0-.418-.042-.835-.1-1.253-.13-.446-.036-.705-.42-1.142-.56-.052-.43-.107-.865-.155-1.3a.543.543,0,0,1,.025-.206c.248-.852.622-1.657.932-2.486a.421.421,0,0,1,.1-.183,3.8,3.8,0,0,0,.779-1.143,4.938,4.938,0,0,1,.535-.647,1.669,1.669,0,0,0,.534-1.082,15.9,15.9,0,0,0-1.417-1.619c-.32-.306-.559-.7-.89-.989a2.709,2.709,0,0,1-.889-1.681c-.007-.04.025-.088.042-.13a.93.93,0,0,1,1.092-.559,7.657,7.657,0,0,1,1.383.209,23.112,23.112,0,0,1,2.864.929,1.907,1.907,0,0,1,.257.111,12.255,12.255,0,0,0,2.032.939,4.889,4.889,0,0,1,.8.442,2.344,2.344,0,0,1,.349.352" transform="translate(-477.362 1584.901)" fill="#1a1311"/>
    <path id="Path_139343" data-name="Path 139343" d="M736.162,178.053a1.579,1.579,0,0,0,1.205-.084.557.557,0,0,1,.264-.088,7.4,7.4,0,0,0,2.373-.718c.508-.175,1.009-.369,1.516-.548a.792.792,0,0,1,.248.014c-.041.1-.05.2-.105.248a1.168,1.168,0,0,0-.365,1.2c.016.088.037.175.062.289-.358.2-.7.405-1.043.591q-.555.3-1.124.571a1.775,1.775,0,0,1-.4.117,2.065,2.065,0,0,0-.51.2,3.875,3.875,0,0,1-1.543.384c-.465.026-.932.011-1.4.012a.8.8,0,0,1-.276-.023,5.176,5.176,0,0,0-1.85-.259,3.762,3.762,0,0,1-.893-.117,3.216,3.216,0,0,0-1.5.124,4.544,4.544,0,0,1-.964.134.968.968,0,0,1-1-1.093,1.192,1.192,0,0,1,.229-.715.635.635,0,0,0,.062-.793,1.929,1.929,0,0,1,1.763.174,1.08,1.08,0,0,0,.582.2c.747.032,1.493.076,2.239.112a2.115,2.115,0,0,0,.242-.019,21.177,21.177,0,0,0,.058-2.885,1.6,1.6,0,0,0-.394-.095c-.459.012-.921.091-1.376.058a2.062,2.062,0,0,1-1.076-.162,2.761,2.761,0,0,0-.957-.2,1.757,1.757,0,0,1-.107-1.353l.671-.371-.142-.449c.17.036.343.02.421.1a1.815,1.815,0,0,0,1.025.408,5.68,5.68,0,0,0,2,.035,3.79,3.79,0,0,0,.184-1.858,3.308,3.308,0,0,0-1.433-.09,3.454,3.454,0,0,1-1.46.02,2.751,2.751,0,0,0-.836-.029.572.572,0,0,1-.713-.41l.113-.358a5.06,5.06,0,0,1,2.023-.206c.769.053,1.543.026,2.315.029.091,0,.225,0,.266-.053.312-.42.76-.229,1.155-.275.019,0,.041.02.114.057a1.233,1.233,0,0,1,.169.753,1.744,1.744,0,0,1-.074.553,3.071,3.071,0,0,0,.005,1.959,4.176,4.176,0,0,0,1.9.153c.5-.126,1.011-.185,1.519-.269.137-.023.276-.029.434-.045l.126.3-.494.406c.007.05.018.112.025.174.053.463.011.545-.393.669-.58.177-1.162.35-1.748.505a2.488,2.488,0,0,1-.557.039c-.206.006-.413,0-.669,0a11.376,11.376,0,0,0,.1,2.987" transform="translate(-505.366 1555.129)" fill="#1a1311"/>
    <path id="Path_139355" data-name="Path 139355" d="M927.564,130.355a1.237,1.237,0,0,1,.833.315,11.8,11.8,0,0,1,1.165,1.106,1.129,1.129,0,0,1,.13,1.482,4.07,4.07,0,0,1-.665.713,2.468,2.468,0,0,0-.8,1.032,3.933,3.933,0,0,1-.372.619,5.64,5.64,0,0,1,1.922.767c.128.263-.19.426-.2.675l-.9-.116c-.119.376.222.615.213.932a5.624,5.624,0,0,1,.5,1.734,3.573,3.573,0,0,1,.056,1.508,2.7,2.7,0,0,0,.051,1.166,1.223,1.223,0,0,1-.673,1.447,5.75,5.75,0,0,1-3.65.649A1.992,1.992,0,0,1,923.467,143a7.523,7.523,0,0,1-.336-3.385,5.777,5.777,0,0,1,.6-1.926,11.244,11.244,0,0,0,.474-1.236c.072-.193.143-.386.223-.6a1.248,1.248,0,0,0-.224-.157,1.865,1.865,0,0,1-.993-1.111,3.515,3.515,0,0,1-.332-.99,2.589,2.589,0,0,1,.14-1.094,11.978,11.978,0,0,1,1.241-2.578.95.95,0,0,1,.235-.257c.422-.289.851-.568,1.279-.847a.467.467,0,0,1,.194-.079c.416-.044.833-.088,1.25-.112a1.345,1.345,0,0,1,.38.111l.408,1.151-.428.488c-.042.01-.085.017-.126.03a.223.223,0,0,0-.051.031c.036.011.086.042.1.028s.038-.072.055-.11m-.614,6.257a2.539,2.539,0,0,0-1.3,1.727,3.518,3.518,0,0,1-.457,1.156.911.911,0,0,0-.12.251,4.307,4.307,0,0,0,.194,2.734.633.633,0,0,0,.516.423c.3.051.59.124.87.184.208-.107.4-.193.578-.3a1.248,1.248,0,0,0,.372-.294,3.139,3.139,0,0,0,.656-1.67,6.55,6.55,0,0,0-.211-2.143,1.407,1.407,0,0,1,.136-1.267.48.48,0,0,0,.007-.529l-1.24-.269m.148-5.931a3.326,3.326,0,0,1-.517-.119.655.655,0,0,0-.544,0,2.165,2.165,0,0,0-1.069.861,12.013,12.013,0,0,0-.869,2.427.437.437,0,0,0,.247.524,3.256,3.256,0,0,0,1.184.452,2.868,2.868,0,0,0,1.127-1.1c.24-.451.464-.91.7-1.364a.437.437,0,0,0,.024-.465,2.027,2.027,0,0,1-.283-1.216" transform="translate(-655.602 1587.018)" fill="#1a1311"/>
    <path id="Path_139337" data-name="Path 139337" d="M579.844,155.677c.479-.073.913-.16,1.35-.2s.882-.03,1.343-.043a1.043,1.043,0,0,0,.025-.759,2.88,2.88,0,0,1,.02-1.112,2.228,2.228,0,0,0,.066-.554c-.055-.806.256-1.559.268-2.376a1.664,1.664,0,0,1,1.483.13,1.963,1.963,0,0,1,.041.663,11.32,11.32,0,0,0-.136,2.073c-.04.4-.064.792-.093,1.188a4.358,4.358,0,0,0-.035.559c.042.769.051,1.544.16,2.3a7.078,7.078,0,0,1-.174,2.987,8.3,8.3,0,0,0-.3,1.923,2.184,2.184,0,0,1-.64,1.428,9.864,9.864,0,0,1-1.854,1.364.784.784,0,0,1-.466.128,6.128,6.128,0,0,1-2.508-.527,1.5,1.5,0,0,1-.193-.137c-.037-.313-.071-.586-.1-.859a.806.806,0,0,1,.539-.812.577.577,0,0,1,.472.048c.325.182.661.343,1,.514.5-.294.984-.573,1.464-.858a1.074,1.074,0,0,0,.46-.6,1.911,1.911,0,0,0,.1-.409c.068-.62.127-1.241.195-1.908a2.473,2.473,0,0,0-.4,0c-.485.081-.975.1-1.463.149a5.039,5.039,0,0,0-1.124.36c-.109.038-.212.092-.3.132-.733-.34-.885-.671-.679-1.388.069-.239.095-.492.138-.725.281-.131.554-.251.82-.384.529-.266.78-.236,1.156.22a.681.681,0,0,0,.4.243,3.327,3.327,0,0,0,1.613.1,5.552,5.552,0,0,0,.188-1.472,4.727,4.727,0,0,0-1.816-.035,4.861,4.861,0,0,1-1.394.126,1.366,1.366,0,0,1-1.2-1.314.819.819,0,0,1,.061-.269q.14-.357.3-.708a3.525,3.525,0,0,0,.319-1.909,1.246,1.246,0,0,1,.16-.88c.081-.121.283-.161.362-.045a2.267,2.267,0,0,1,.332.6,4.976,4.976,0,0,1,.26,1.793c-.032.391-.12.777-.194,1.238" transform="translate(-388.637 1570.063)" fill="#1a1311"/>
    <path id="Path_139400" data-name="Path 139400" d="M1291.253,182.711l.485.6-.245.362a1.556,1.556,0,0,1,.26.472,3.072,3.072,0,0,1,.029,1.007c-.095.5-.308.977-.417,1.475a13.858,13.858,0,0,0-.238,1.584c-.035.345-.007.7-.007,1.1a1.22,1.22,0,0,0-.279.195,2.424,2.424,0,0,0-.207.363c-.207.336-.421.376-.744.133-.165-.124-.318-.262-.436-.36-.448.016-.6.353-.827.553-.774-.124-1.531-.246-2.289-.365a2.393,2.393,0,0,0-.487-.056,17.743,17.743,0,0,1-2.656-.17,2.162,2.162,0,0,0-.28-.021c-.678.021-1.355.061-2.033.066a22.324,22.324,0,0,0-2.662.163c-.116.015-.232.029-.349.033a.508.508,0,0,1-.5-.306,1.719,1.719,0,0,1-.22-.945c.347-.063.686-.136,1.028-.185.6-.086,1.206-.159,1.809-.231a4.563,4.563,0,0,1,.491-.025c.888-.01,1.776,0,2.664-.032a3.858,3.858,0,0,1,1.112.1,4.289,4.289,0,0,0,1.179.121,9.6,9.6,0,0,1,1.325.108c.417.051.828.145,1.245.193a1.1,1.1,0,0,0,1.17-.886c.134-.733.272-1.466.376-2.2.065-.459.071-.926.106-1.414a1.879,1.879,0,0,0-.436-.1c-.395.013-.789.057-1.183.078a.654.654,0,0,1-.335-.045.589.589,0,0,0-.591-.091.518.518,0,0,1-.333-.049,5.782,5.782,0,0,0-2.061-.295,26.14,26.14,0,0,0-3.145.215,4.284,4.284,0,0,1-.7.03,7.888,7.888,0,0,0-3.082.551c-.367-.207-.3-.547-.3-.89a4.739,4.739,0,0,1,2.281-.783c.887-.053,1.771-.115,2.663-.1.745.013,1.492-.083,2.239-.131a6.941,6.941,0,0,1,2.215.25,2.475,2.475,0,0,0,.753.072c.512-.021,1.026.028,1.54.058a2.772,2.772,0,0,0,1.31-.161.963.963,0,0,1,.337-.084,2.934,2.934,0,0,1,.426.041" transform="translate(-929.923 1545.283)" fill="#1a1311"/>
    <path id="Path_139342" data-name="Path 139342" d="M611.526,173.019a.937.937,0,0,0,.25.088q1.05.059,2.1.1a3.041,3.041,0,0,0,.63-.029,6.978,6.978,0,0,1,2.582.01,1.174,1.174,0,0,0,.273-.01c.119-.47.226-.921.348-1.368.142-.518.194-.553.714-.559a1.451,1.451,0,0,1,.21.009.867.867,0,0,1,.154.056c.265.573.037,1.182.061,1.817a2.785,2.785,0,0,0,1.431,0c.581-.177,1.156-.371,1.731-.566a.377.377,0,0,1,.471.164c-.151.37-.29.78-.487,1.159a.879.879,0,0,1-.435.33c-.43.18-.869.34-1.313.482a4.535,4.535,0,0,1-.689.125c-.182.028-.365.048-.58.075a1.959,1.959,0,0,0-.058.491,3.726,3.726,0,0,1-.064,1.393,6.929,6.929,0,0,0,.049,2.982,2.561,2.561,0,0,1-.307,1.747.863.863,0,0,1-1.112.446.819.819,0,0,0-.61.047.873.873,0,0,1-.8-.055,2.942,2.942,0,0,1-1.377-1.039,1.666,1.666,0,0,1-.089-.215c.321-.1.625-.209.937-.28a1.483,1.483,0,0,1,.482.013,1.991,1.991,0,0,1,.266.086.758.758,0,0,0,.9-.637,6.583,6.583,0,0,0-.07-2.22,4.526,4.526,0,0,1,.058-1.729,2.4,2.4,0,0,0,.09-1.058,9.312,9.312,0,0,0-2.574-.08,6.635,6.635,0,0,1-.976.034c-.444-.009-.888-.05-1.333-.059a5.85,5.85,0,0,0-1.255.1,13.369,13.369,0,0,1-1.536.149,2.508,2.508,0,0,0-.886.188,1.194,1.194,0,0,1-.407.094,1.1,1.1,0,0,1-1.178-.575c-.032-.062-.071-.121-.125-.211a.878.878,0,0,1,.78-.57,1.48,1.48,0,0,0,.715-.261,2.776,2.776,0,0,1,1.208-.318c.512-.026,1.021-.111,1.529-.187a1.1,1.1,0,0,0,.308-.159l-.018.007" transform="translate(-411.018 1554.011)" fill="#1a1311"/>
    <path id="Path_139409" data-name="Path 139409" d="M1408.885,133.564a6.882,6.882,0,0,0-.281,2.588,3.829,3.829,0,0,1,.01.489c-.017.232-.056.462-.082.668l-.519.5a1.148,1.148,0,0,1-.626.311.5.5,0,0,1-.258-.589c.208-1.082.187-2.185.326-3.273.059-.462.059-.932.085-1.4a1.7,1.7,0,0,0-.179-.879c-.2-.4,0-.705.437-.7a.8.8,0,0,1,.86.576c.025.084.061.165.1.269.743-.1,1.408-.378,2.105-.514a6.435,6.435,0,0,0,.048-.821.61.61,0,0,1,.451-.629,1.63,1.63,0,0,1,.955-.164c.16.03.327.023.49.042.363.04.5.151.568.5a2.442,2.442,0,0,1,.049.557,3.438,3.438,0,0,1-.1.511c.615.123,1.2.245,1.8.358.229.044.469.043.692.105a.82.82,0,0,0,.782-.184c.091-.073.168-.165.263-.232a1.009,1.009,0,0,1,.718-.223,6.4,6.4,0,0,0,.712.005,2.89,2.89,0,0,1,.053.361c.013.792.17,1.572.139,2.371a14.657,14.657,0,0,0,.157,1.812,5.426,5.426,0,0,1-.12,1.57c-.159.018-.314.034-.47.054-.089.012-.205,0-.261.049-.335.3-.708.06-1.06.084-.1.006-.2-.107-.3-.166-.046-.73-.083-1.45-.138-2.168-.054-.7-.127-1.388-.2-2.114a1.772,1.772,0,0,0-.34-.037,9.959,9.959,0,0,1-2.236-.125,5.873,5.873,0,0,0-1.958-.016c-.712.138-1.448.092-2.151.284-.177.049-.35.109-.524.164" transform="translate(-1030.561 1585.968)" fill="#1a1311"/>
    <path id="Path_139397" data-name="Path 139397" d="M1269.127,189.347a16.271,16.271,0,0,0-.378,1.688,7.617,7.617,0,0,1-.521,1.576c-.289,0-.563.02-.832-.007a1.355,1.355,0,0,1-.525-.162.5.5,0,0,1-.255-.535,26.407,26.407,0,0,1,.458-3.094c.094-.356.086-.738.16-1.1a2.677,2.677,0,0,0,.132-1.3.422.422,0,0,1,.19-.427c.073-.058.152-.108.229-.16a.665.665,0,0,1,1.1.349,6.511,6.511,0,0,1,.178.676c.022.088.039.176.055.25.437.129.437.129.557.445a.882.882,0,0,0,.672-.041,4.045,4.045,0,0,1,1.239-.186c.723-.03,1.446-.109,2.165-.2a11.466,11.466,0,0,1,3.207.038,10.424,10.424,0,0,0,2.513.154c.231-.021.465,0,.7,0,.185.211-.043.375-.08.559a2.477,2.477,0,0,1-.185.586.465.465,0,0,1-.4.246,12.192,12.192,0,0,1-3.006-.028,12.046,12.046,0,0,0-3.351.053c-.393.056-.788.1-1.183.135a5.486,5.486,0,0,0-1.585.258,2.36,2.36,0,0,1-.414.061c-.295.055-.587.116-.851.169" transform="translate(-921.766 1542.859)" fill="#1a1311"/>
    <path id="Path_139376" data-name="Path 139376" d="M971.935,188.566c.538-.058.778.163.871.545a4.41,4.41,0,0,1,.093.759c.015.227,0,.457,0,.724-.41.217-.3.7-.483,1.064-.108.214.055.481.315.63a1.739,1.739,0,0,0,1.076.235c.557-.058,1.116-.12,1.676-.14a6.857,6.857,0,0,1,1.467.049,2.693,2.693,0,0,0,1.878-.383,6.95,6.95,0,0,0,1.487-1.159c.324-.325.631-.262.8.153a.812.812,0,0,1-.041.8,7.626,7.626,0,0,0-.342.686,2.646,2.646,0,0,1-.582.866,1.819,1.819,0,0,0-.4.483,1.436,1.436,0,0,1-1.212.713c-.6.07-1.211.111-1.818.124-.418.009-.836-.059-1.255-.08a5.568,5.568,0,0,0-.977-.014,7.61,7.61,0,0,1-3.031-.424,2.349,2.349,0,0,1-.5-.249.964.964,0,0,1-.422-.611,4.008,4.008,0,0,1,.4-3.107c.291-.58.665-1.118.995-1.664" transform="translate(-692.386 1540.612)" fill="#1a1311"/>
    <path id="Path_139344" data-name="Path 139344" d="M737.555,131.654a1.169,1.169,0,0,0-.137.948.571.571,0,0,1-.007.4,9.178,9.178,0,0,0-.411,2.045c0,.023-.019.049-.014.068a5.229,5.229,0,0,1-.107,1.93c-.457.344-.563.362-1.4.226-.026-.286-.071-.581-.076-.876-.007-.418.01-.837.026-1.256.021-.536.059-1.071.079-1.607a2.739,2.739,0,0,0-.333-1.714c-.138-.019-.3-.035-.453-.064-.62-.114-1.243-.219-1.859-.351a2.419,2.419,0,0,0-1.378,0,.7.7,0,0,1-.134.038c-.512.078-.688-.01-.825-.515a5.189,5.189,0,0,1-.134-1.034.461.461,0,0,1,.165-.29.821.821,0,0,1,.966-.189,3.51,3.51,0,0,0,1.087.229,14.723,14.723,0,0,1,1.578.322,4.262,4.262,0,0,0,1.253.085l1.33-.056c.793-.035,1.588-.057,2.38-.108a11.6,11.6,0,0,0,2.193-.438c.2-.053.4-.123.607-.163a.232.232,0,0,1,.233.326,8.207,8.207,0,0,1-.914,1.461.75.75,0,0,1-.343.232,2.3,2.3,0,0,1-1.359.217.445.445,0,0,0-.138-.023c-.625.052-1.25.108-1.883.163" transform="translate(-506.564 1586.516)" fill="#1a1311"/>
    <path id="Path_139351" data-name="Path 139351" d="M804.372,135.208a.9.9,0,0,1,.856.039.678.678,0,0,1,.37.476c.032.181.131.351.167.533a1.185,1.185,0,0,1,.027.547,2.273,2.273,0,0,0-.056.9,9.416,9.416,0,0,0,.252,1.864,3.478,3.478,0,0,1,.073,1.321,16.982,16.982,0,0,0,.007,2.167c.012.72.04,1.441.046,2.161,0,.324-.036.648-.053.972-.025.464-.057.929-.067,1.394-.015.65,0,1.3-.025,1.95a2.76,2.76,0,0,1-.172.82,1.26,1.26,0,0,0-.045.891,3.292,3.292,0,0,1,.1,1.447c-.049.129-.21.091-.276.153-.262.249-.559.056-.828.074-.242.016-.391-.273-.4-.507a14.136,14.136,0,0,1-.079-3.261,1.24,1.24,0,0,0,.012-.278c-.04-1.07.089-2.136.076-3.206-.005-.413.048-.827.072-1.241a1.073,1.073,0,0,0-.005-.278,12.3,12.3,0,0,1-.095-2.087c-.024-.649.07-1.3.107-1.953a3.2,3.2,0,0,0,.02-.9,5.486,5.486,0,0,1-.016-1.882,2.3,2.3,0,0,0-.153-1.3c-.133-.274-.1-.288.087-.814" transform="translate(-563.697 1581.99)" fill="#1a1311"/>
    <path id="Path_139386" data-name="Path 139386" d="M1079.259,131.1a2.462,2.462,0,0,0,.134-.916l-.54-.3a1.089,1.089,0,0,1,0-.133c.063-.464.4-.6.8-.635a.889.889,0,0,1,.915.517,1.422,1.422,0,0,1,.131.885c-.026.2-.076.407-.12.634.332.288.712.135,1.069.133a1.168,1.168,0,0,1,1.075-.044,1.712,1.712,0,0,0,.752.052c.457-.089.909-.2,1.362-.307a1.588,1.588,0,0,1,.338-.073,2.567,2.567,0,0,0,1.284-.271c.077-.043.212.017.369.036a4.528,4.528,0,0,1-.22.824,1.219,1.219,0,0,1-.838.766c-.455.1-.9.228-1.353.345a4.582,4.582,0,0,0-.608.163,2.259,2.259,0,0,1-1.087.129,8.153,8.153,0,0,0-1.4.014,13.13,13.13,0,0,1-1.521-.033,8.5,8.5,0,0,0-1.879.094,3.3,3.3,0,0,1-1.641-.01,1.915,1.915,0,0,0-1.764.182.819.819,0,0,1-.738-.912c0-.462.042-.923.068-1.427a1.24,1.24,0,0,1,.739.04,10.366,10.366,0,0,0,1.4.434,5.89,5.89,0,0,0,1.953.009c.413-.055.824-.125,1.313-.2" transform="translate(-772.456 1586.641)" fill="#1a1311"/>
    <path id="Path_139352" data-name="Path 139352" d="M823.773,187.654c-.018.352-.093.652-.52.738l.154.653a4.411,4.411,0,0,1-2.01.228,1.859,1.859,0,0,0-.952.039,4.567,4.567,0,0,1-1.183.06c-.4,0-.793-.013-1.189-.038a2.362,2.362,0,0,1-.692-.1,6.6,6.6,0,0,0-1.519-.107c-.081-.012-.174.057-.261.09s-.181.11-.258.1a2.881,2.881,0,0,0-1.124.2,1.465,1.465,0,0,1-.621-.013.651.651,0,0,1-.495-.444,1.894,1.894,0,0,1-.149-1.012,1.861,1.861,0,0,0-.105-.65.364.364,0,0,1,.475-.057,2.275,2.275,0,0,0,1.63.21c.326-.03.651-.068.978-.092a5.016,5.016,0,0,1,1.6.123,7.425,7.425,0,0,0,2.1.033c.374-.012.747-.047,1.122-.063a1.719,1.719,0,0,1,.49.016,4.027,4.027,0,0,0,1.8-.04.825.825,0,0,1,.735.14" transform="translate(-570.407 1541.613)" fill="#1a1311"/>
    <path id="Path_139405" data-name="Path 139405" d="M1364.711,131.984c.244.036.446.067.649.1a3,3,0,0,0,.889.1c.307-.055.6-.01.9-.047.577-.072,1.154-.151,1.723-.269a.85.85,0,0,0,.54-.508c.193-.371.491-.4.786-.1a.748.748,0,0,1,.215.349c.06.313.292.443.518.615a9.087,9.087,0,0,0,2,.981c.234.1.466.209.7.32.037.018.056.071.107.141l-.415.854a2.988,2.988,0,0,1-1.106-.248c-.664-.22-1.323-.452-1.98-.692a.582.582,0,0,0-.534.034,2.44,2.44,0,0,0-.369.2,1.262,1.262,0,0,1-.9.319,4.46,4.46,0,0,0-1.5.276c-.088.028-.179.044-.283.07a3.8,3.8,0,0,0-2.1-.446,1.811,1.811,0,0,1-.328-1.22.957.957,0,0,1,.5-.819" transform="translate(-997.34 1585.139)" fill="#1a1311"/>
    <path id="Path_139345" data-name="Path 139345" d="M729.847,148.8c-.823-.061-.972-.649-1.139-1.2a6.627,6.627,0,0,1-.092-.69c-.015-.08-.092-.15-.144-.229a.686.686,0,0,1,.575-.337,1.039,1.039,0,0,0,.555-.272,7.693,7.693,0,0,0,1.542-1.514,10.634,10.634,0,0,1,.881-.968c-.02.264-.031.408-.043.575l.709.237c-.006.128-.065.29-.009.381.188.306.053.52-.132.751a10.027,10.027,0,0,0-.7.948c-.118.189-.091.478-.292.612s-.188.354-.213.535c-.164.2-.642.009-.471.494H730.3l-.457.68" transform="translate(-505.073 1575.431)" fill="#1a1311"/>
    <path id="Path_139346" data-name="Path 139346" d="M620.221,189.724c.335-.038.677-.083,1.02-.113a.536.536,0,0,1,.267.05.9.9,0,0,0,.743-.006,2.826,2.826,0,0,1,.608-.155,2.083,2.083,0,0,1,.453.037,2.787,2.787,0,0,1,.2,1.257.574.574,0,0,1-.276.533,2.036,2.036,0,0,1-.683.334,7.451,7.451,0,0,0-1.519.5c-.779.294-1.274-.028-1.319-.863a1.263,1.263,0,0,1,.161-.733,6.354,6.354,0,0,0,.343-.837" transform="translate(-420.859 1539.885)" fill="#1a1311"/>
    <path id="Path_139370" data-name="Path 139370" d="M956.306,193.4c.078-.173.1-.353.2-.419.543-.361.681-.988,1.014-1.484.116-.173.192-.374.3-.55a.448.448,0,0,1,.6-.216,1.526,1.526,0,0,1,.82.607.656.656,0,0,1,.092.4c-.034.371-.092.74-.158,1.106a1.974,1.974,0,0,1-.406.951,4.816,4.816,0,0,0-.4.734c-.113.2-.215.42-.516.471-.1-.13-.218-.271-.33-.413-.072-.091-.123-.23-.216-.269-.435-.183-.64-.6-1-.916" transform="translate(-681.49 1538.955)" fill="#1a1311"/>
    <path id="Path_139347" data-name="Path 139347" d="M717.1,190.75c.2-.023.4-.061.6-.064a.889.889,0,0,1,.946,1.085c-.082.554-.2,1.1-.251,1.66-.047.486-.028.979-.038,1.468a1.11,1.11,0,0,1-.174.656c-.041.016-.1.057-.121.044-.238-.127-.538.172-.727-.071a2.917,2.917,0,0,1-.275-.632,1.16,1.16,0,0,0-.142-.239,1.051,1.051,0,0,1-.175-.729c.012-.3.019-.606.045-.907.03-.348.074-.694.123-1.04.058-.411.127-.821.191-1.232" transform="translate(-495.985 1538.964)" fill="#1a1311"/>
    <path id="Path_139348" data-name="Path 139348" d="M771.747,149.77l-.234.513-.31-.1-.251.312a.774.774,0,0,1-.191-.014,2.465,2.465,0,0,1-1.324-.961c-.4-.57-.879-1.085-1.232-1.693a1.592,1.592,0,0,1-.262-.919.523.523,0,0,1,.666-.512.9.9,0,0,1,.547.283c.568.615,1.139,1.227,1.7,1.849a5.742,5.742,0,0,1,.891,1.245" transform="translate(-535.635 1573.268)" fill="#1a1311"/>
    <path id="Path_139349" data-name="Path 139349" d="M692.622,196.459a4.152,4.152,0,0,1,.183-2.01,6.709,6.709,0,0,0,.362-1.628,1.116,1.116,0,0,1,.815-1.04.751.751,0,0,1,.465.829c-.015.23-.013.461-.01.692.011.86.028,1.72.037,2.579a.782.782,0,0,1-.269.684,1.5,1.5,0,0,0-.257.407c-.38-.3-.38-.3-1.326-.513" transform="translate(-477.285 1538.115)" fill="#1a1311"/>
    <path id="Path_139381" data-name="Path 139381" d="M1037.724,198.354l-.771-.19a.98.98,0,0,1-.108-.8c.139-.563.247-1.134.368-1.7.082-.387.174-.772.244-1.161a4.685,4.685,0,0,1,.526-1.432c.062-.113.157-.2.274-.147a.376.376,0,0,1,.2.247,7.041,7.041,0,0,1,0,.972,17.3,17.3,0,0,1-.308,2.629,3.09,3.09,0,0,1-.117.4,2.756,2.756,0,0,0-.205.879,1.2,1.2,0,0,1-.106.3" transform="translate(-743.823 1537.243)" fill="#1a1311"/>
    <path id="Path_139377" data-name="Path 139377" d="M987.3,192.807c-.6.109-.705-.4-.912-.759a1.244,1.244,0,0,1-.1-.4,1.462,1.462,0,0,0-.228-.648.7.7,0,0,1-.1-.6c.082-.341.209-.48.561-.517a1.359,1.359,0,0,1,1.009.146c.313.231.264.623.392.937.016.039-.009.092-.006.138a2.629,2.629,0,0,1,.041.616,1.871,1.871,0,0,1-.251.634,3.084,3.084,0,0,1-.408.454" transform="translate(-704.431 1539.608)" fill="#1a1311"/>
    <path id="Path_139371" data-name="Path 139371" d="M936.1,203.171a1.583,1.583,0,0,1-.357.75,1.932,1.932,0,0,1-.318.272c-.248.187-.408.145-.554-.124-.1-.181-.208-.357-.32-.531a1.243,1.243,0,0,1,.031-1.434c.45-.613.505-.607,1-.038a1.77,1.77,0,0,1,.514,1.106" transform="translate(-664.478 1530.48)" fill="#1a1311"/>
    <path id="Path_139378" data-name="Path 139378" d="M1000.24,189.569c.255-.018.482-.04.71-.048.207-.008.414,0,.585,0,.154.237.287.427.4.625a1.239,1.239,0,0,1,.131.882.864.864,0,0,1-.545.656,1.826,1.826,0,0,0-.95-.455c-.237-.04-.306-.162-.317-.394a.487.487,0,0,1,.006-.209,1.109,1.109,0,0,0-.057-.865c-.013-.038.014-.089.033-.19" transform="translate(-715.481 1539.869)" fill="#1a1311"/>
    <path id="Path_139372" data-name="Path 139372" d="M947.724,204.042c.1.118.188.222.271.335a1.155,1.155,0,0,1-.247,1.57.417.417,0,0,1-.455.1,1.058,1.058,0,0,1-.566-1.446.443.443,0,0,1,.194-.193c.248-.124.5-.23.8-.364" transform="translate(-673.995 1528.621)" fill="#1a1311"/>
    <path id="Path_139356" data-name="Path 139356" d="M923.6,203.149c.049.377-.028.669.278.849a.665.665,0,0,1,.213.415,4.266,4.266,0,0,1,.038.649l-.48.524a.3.3,0,0,1-.314-.243c-.143-.391-.288-.782-.442-1.169a2.225,2.225,0,0,0-.2-.32l.905-.706" transform="translate(-655.462 1529.313)" fill="#1a1311"/>
    <path id="Path_139412" data-name="Path 139412" d="M1441.933,239.793c-.637.887-1.27,1.778-1.914,2.66a1.019,1.019,0,0,0-.2.651c.008.56,0,1.12,0,1.68v.6a.539.539,0,0,1-.658.032c-.01-.149-.028-.308-.029-.466,0-.513-.034-1.029.008-1.539a1.748,1.748,0,0,0-.43-1.279c-.5-.644-.969-1.315-1.445-1.979-.091-.127-.16-.27-.266-.452h.715l1.725,2.334a3.838,3.838,0,0,0,.284-.307c.372-.508.737-1.023,1.107-1.532.123-.168.255-.329.385-.5l.711-.043Z" transform="translate(-1053.707 1501.047)" fill="#1a1311"/>
    <path id="Path_139357" data-name="Path 139357" d="M721.417,242.849c-.655-.1-1.335.03-2.03-.081-.011-.159-.021-.292-.03-.412a8.9,8.9,0,0,1,2.906-.046,1.959,1.959,0,0,1-.21,1.123,2.8,2.8,0,0,1-2,1.609,4.938,4.938,0,0,1-2.838-.111,3.471,3.471,0,0,1-1.606-1.088,2.654,2.654,0,0,1-.154-3.254,3.073,3.073,0,0,1,1.394-1.137,4.742,4.742,0,0,1,4.843.6.427.427,0,0,1,.087.107.592.592,0,0,1,.038.089l-.436.35c-.21-.134-.4-.268-.6-.381a3.709,3.709,0,0,0-3.623-.206,2.687,2.687,0,0,0-1.028.827,2.05,2.05,0,0,0-.073,2.426,2.62,2.62,0,0,0,.974.889,3.7,3.7,0,0,0,2.855.316,2.223,2.223,0,0,0,1.519-1.253.671.671,0,0,0,.05-.2.607.607,0,0,0-.036-.162" transform="translate(-494.615 1501.518)" fill="#1a1311"/>
    <path id="Path_139358" data-name="Path 139358" d="M872.66,242.808a2.119,2.119,0,0,1-.046-.287,1.044,1.044,0,0,1,.037-.192,11.683,11.683,0,0,1,2.89.007,2.572,2.572,0,0,1-.845,1.982,3.023,3.023,0,0,1-1.348.722,5.042,5.042,0,0,1-2.906-.113,3.438,3.438,0,0,1-1.638-1.16,2.636,2.636,0,0,1-.184-3.023,3.153,3.153,0,0,1,1.714-1.383,4.757,4.757,0,0,1,4.645.718c.035.026.051.077.1.159l-.448.367c-.229-.149-.418-.287-.62-.4a3.709,3.709,0,0,0-3.625-.175,2.675,2.675,0,0,0-.932.729,2.059,2.059,0,0,0-.077,2.6,2.7,2.7,0,0,0,1.069.885,3.728,3.728,0,0,0,2.667.244,2.236,2.236,0,0,0,1.536-1.232,2.425,2.425,0,0,0,.1-.368,3.921,3.921,0,0,0-1.063-.062c-.324-.012-.649-.009-1.023-.013" transform="translate(-613.291 1501.51)" fill="#1a1311"/>
    <path id="Path_139379" data-name="Path 139379" d="M975.629,239.05a4.111,4.111,0,0,1,2.648.917,2.751,2.751,0,0,1,.024,4.286,3.887,3.887,0,0,1-3,.92,3.742,3.742,0,0,1-2.336-1.007,2.739,2.739,0,0,1-.168-3.9,3.792,3.792,0,0,1,2.828-1.215m.086,5.573a3.564,3.564,0,0,0,1.759-.519,2.289,2.289,0,0,0,.042-3.915,3.2,3.2,0,0,0-1.781-.554,3.063,3.063,0,0,0-2.282.9,2.239,2.239,0,0,0,.057,3.253,3.206,3.206,0,0,0,2.2.835" transform="translate(-693.693 1501.514)" fill="#1a1311"/>
    <path id="Path_139390" data-name="Path 139390" d="M1126.454,239.725a15.73,15.73,0,0,1,3.182.118,3.589,3.589,0,0,1,.929.3,2.749,2.749,0,0,1,1.566,2.938,2.658,2.658,0,0,1-2.332,2.355,17.5,17.5,0,0,1-1.956.114,8.212,8.212,0,0,1-1.419-.034,4.962,4.962,0,0,1-.065-.5,36.986,36.986,0,0,1,.1-5.292m.589,5.211a9.013,9.013,0,0,0,2.715-.123,2.056,2.056,0,0,0,1.7-1.97,2.193,2.193,0,0,0-1.44-2.258,2.414,2.414,0,0,0-.674-.181c-.628-.058-1.259-.09-1.889-.12a1.928,1.928,0,0,0-.412.073Z" transform="translate(-813.139 1501.011)" fill="#1a1311"/>
    <path id="Path_139403" data-name="Path 139403" d="M1331.852,245.533c-.1-.624-.1-5.094-.014-5.764a2.352,2.352,0,0,1,.385-.056,7.458,7.458,0,0,1,1.816.093,2.4,2.4,0,0,1,.652.237,1.259,1.259,0,0,1,.275,1.983c-.1.1-.206.185-.314.283.077.253.336.232.5.338a1.41,1.41,0,0,1,.71,1.48,1.46,1.46,0,0,1-.576.929,2.16,2.16,0,0,1-1.3.468c-.7.033-1.4.009-2.136.009m.63-.607a5,5,0,0,0,1.808-.056,1.124,1.124,0,0,0,.69-.447.878.878,0,0,0-.011-1.1,1.556,1.556,0,0,0-.432-.347,3.247,3.247,0,0,0-2.055-.11Zm0-2.837a3.083,3.083,0,0,0,1.433-.058,1.447,1.447,0,0,0,.46-.305.778.778,0,0,0-.305-1.3,2.633,2.633,0,0,0-1.588-.063Z" transform="translate(-972.223 1501.007)" fill="#1a1311"/>
    <path id="Path_139382" data-name="Path 139382" d="M1049.262,242.85c.781.964,1.585,1.736,2.322,2.631a.886.886,0,0,1-1.064-.257c-.517-.6-1.065-1.179-1.6-1.766-.126-.138-.253-.275-.38-.413-.113-.122-.234-.252-.418-.2-.206.062-.171.253-.172.412,0,.56,0,1.121,0,1.681,0,.182-.026.364-.041.566a1.933,1.933,0,0,1-.3.04,1.907,1.907,0,0,1-.289-.053,10.638,10.638,0,0,1-.058-1.889c-.015-.654-.014-1.308,0-1.962a10.062,10.062,0,0,1,.071-1.919,15.171,15.171,0,0,1,2.945.1,1.611,1.611,0,0,1,.269.074,1.456,1.456,0,0,1,1.021,1.366,1.417,1.417,0,0,1-1.018,1.363,4.3,4.3,0,0,1-.681.152c-.156.028-.315.036-.608.067m-1.313-.675a4.865,4.865,0,0,0,1.2.07,4.517,4.517,0,0,0,.768-.043,1.389,1.389,0,0,0,.517-.2.849.849,0,0,0,.01-1.458,1.156,1.156,0,0,0-.517-.188c-.51-.045-1.024-.06-1.536-.073a2.1,2.1,0,0,0-.407.071c-.013.2-.031.356-.033.516,0,.417,0,.833,0,1.3" transform="translate(-751.909 1501.007)" fill="#1a1311"/>
    <path id="Path_139394" data-name="Path 139394" d="M1185.591,244.111c0-.877,0-1.576,0-2.274,0-.675,0-1.35,0-2.07l.595-.074a1.692,1.692,0,0,1,.084.355q.007,2.594,0,5.188a.9.9,0,0,1-.042.193c-.218.085-.3-.093-.411-.2q-1.793-1.729-3.58-3.464c-.163-.158-.336-.306-.487-.442-.067.026-.094.029-.109.044a.114.114,0,0,0-.023.065c-.008.093-.019.186-.019.279q-.006,1.788-.01,3.575a.247.247,0,0,1-.014.069.745.745,0,0,1-.029.07c-.169.189-.373.093-.59.089a1.549,1.549,0,0,1-.062-.293c0-1.8,0-3.594,0-5.372.25-.138.331.057.434.157q1.817,1.755,3.624,3.519c.163.158.335.307.638.583" transform="translate(-855.394 1501.015)" fill="#1a1311"/>
    <path id="Path_139406" data-name="Path 139406" d="M1360.477,245.512a.851.851,0,0,1-1.036-.255c-.517-.6-1.065-1.179-1.6-1.766-.11-.121-.22-.242-.332-.362-.127-.135-.251-.313-.465-.251-.245.071-.169.3-.172.477-.008.537,0,1.074-.005,1.611,0,.182-.023.364-.038.567a1.971,1.971,0,0,1-.3.044,2.043,2.043,0,0,1-.3-.049,6.833,6.833,0,0,1-.059-1.464c-.012-.467,0-.934,0-1.4,0-.49-.006-.981,0-1.471a9.4,9.4,0,0,1,.04-1.4,2.134,2.134,0,0,1,.309-.051c.608,0,1.216-.006,1.824.012a6.651,6.651,0,0,1,.835.1,1.616,1.616,0,0,1,.812.388,1.382,1.382,0,0,1-.086,2.185,2.094,2.094,0,0,1-.972.371c-.2.028-.411.043-.6.062-.093.163.007.246.082.328.565.624,1.134,1.243,1.7,1.868.12.132.222.28.357.452m-3.579-3.246c.419,0,.766.014,1.113.011a5.82,5.82,0,0,0,.769-.037,1.488,1.488,0,0,0,.525-.176.857.857,0,0,0-.014-1.532,1.306,1.306,0,0,0-.528-.161c-.488-.037-.978-.048-1.467-.055a1.891,1.891,0,0,0-.4.082Z" transform="translate(-991.114 1500.976)" fill="#1a1311"/>
    <path id="Path_139359" data-name="Path 139359" d="M838.958,241.374c-.079.811-.037,1.485-.044,2.157s0,1.352,0,1.98c-.2.256-.41.167-.61.161a.755.755,0,0,1-.086-.211c-.012-.3-.015-.607-.015-.91,0-1.332,0-2.664,0-4,0-.2-.059-.415.074-.591a.278.278,0,0,1,.081-.024.127.127,0,0,1,.063.028,1.881,1.881,0,0,1,.162.133l4.078,3.957a.25.25,0,0,0,.058.038c.019.01.041.016.062.025.179-.073.119-.234.12-.36.006-1.051,0-2.1.005-3.154,0-.228.018-.457.03-.716h.569a55.175,55.175,0,0,1,.044,5.685c-.206.108-.3-.073-.4-.176q-1.793-1.729-3.579-3.465c-.165-.16-.338-.312-.609-.562" transform="translate(-590.03 1500.862)" fill="#1a1311"/>
    <path id="Path_139411" data-name="Path 139411" d="M1414.144,242.835c-.1.9.012,1.768-.078,2.667l-.565.063a1.618,1.618,0,0,1-.089-.354q-.006-2.593,0-5.186a1.432,1.432,0,0,1,.047-.24,2.538,2.538,0,0,1,.388-.062c.515-.006,1.03-.014,1.544.006a9.1,9.1,0,0,1,1.045.114,1.573,1.573,0,0,1,.806.4,1.382,1.382,0,0,1-.08,2.143,2.1,2.1,0,0,1-1.034.4c-.2.027-.4.043-.656.069a2.03,2.03,0,0,0,.515.694c.18.215.375.417.564.625s.379.413.568.621.371.413.565.629c-.486.216-.65.2-.94-.109-.6-.65-1.2-1.312-1.8-1.968a2.729,2.729,0,0,0-.391-.4,1.319,1.319,0,0,0-.413-.11m-.014-.605a11.413,11.413,0,0,0,1.98-.024,1.177,1.177,0,0,0,.328-.115.878.878,0,0,0,.547-.824.934.934,0,0,0-.629-.843,5.1,5.1,0,0,0-2.225-.025Z" transform="translate(-1035.436 1500.998)" fill="#1a1311"/>
    <path id="Path_139360" data-name="Path 139360" d="M689.621,244.186a5.868,5.868,0,0,0,.044-1.1c.007-.35,0-.7,0-1.051s0-.7,0-1.051a5.916,5.916,0,0,1,.042-1.071h.562a.733.733,0,0,1,.07.207c0,1.821,0,3.642,0,5.446-.233.149-.324-.038-.429-.139q-1.768-1.7-3.528-3.415c-.183-.177-.37-.349-.544-.513-.222.069-.168.233-.169.358-.006,1.028,0,2.056-.005,3.084,0,.228-.02.456-.033.723l-.564.042a.941.941,0,0,1-.1-.221,3.557,3.557,0,0,1-.018-.419q0-2.278,0-4.556c0-.178.028-.356.041-.514a.512.512,0,0,1,.113-.037.114.114,0,0,1,.063.026c.073.058.147.115.214.18l4.027,3.908a.311.311,0,0,0,.058.039c.02.012.041.022.146.079" transform="translate(-471.38 1500.849)" fill="#1a1311"/>
    <path id="Path_139361" data-name="Path 139361" d="M619.685,245.526h-.609c-.069-.91.011-1.792-.05-2.7a4.24,4.24,0,0,0-1.136-.065c-.374-.01-.748,0-1.122,0h-1.142a3.106,3.106,0,0,0-.073.441c-.007.607,0,1.214-.006,1.821,0,.158-.026.316-.042.49a2.1,2.1,0,0,1-.3.046,1.5,1.5,0,0,1-.244-.034.815.815,0,0,1-.065-.08.138.138,0,0,1-.024-.063q-.012-2.556-.021-5.112a3.155,3.155,0,0,1,.019-.349.685.685,0,0,1,.073-.16h.519a.678.678,0,0,1,.073.2c.01.467.011.934.013,1.4,0,.232,0,.464,0,.7a2.189,2.189,0,0,0,1.122.124c.4.017.8.011,1.193,0a4.313,4.313,0,0,0,1.143-.064c.109-.772-.018-1.542.076-2.306a.582.582,0,0,1,.591-.025c.093.542.109,4.94.014,5.736" transform="translate(-417.092 1500.993)" fill="#1a1311"/>
    <path id="Path_139362" data-name="Path 139362" d="M803.643,242.81a23.884,23.884,0,0,0-3.417.02c-.123.863.026,1.752-.081,2.609-.054.045-.086.1-.122.1-.136.01-.274,0-.441,0a1.5,1.5,0,0,1-.085-.337q-.008-2.556,0-5.113a2.6,2.6,0,0,1,.044-.316l.527-.05a.754.754,0,0,1,.095.22c.012.513.012,1.027.022,1.54,0,.2.027.408.043.635a4.347,4.347,0,0,0,1.14.063q.561.014,1.122,0a4.188,4.188,0,0,0,1.132-.064c.123-.77-.005-1.541.088-2.344l.547-.056a.838.838,0,0,1,.095.213c.016.162.019.326.019.489q0,2.241,0,4.483c0,.184-.016.369-.026.553a.536.536,0,0,1-.635,0c-.092-.856.014-1.739-.063-2.651" transform="translate(-560.065 1500.996)" fill="#1a1311"/>
    <path id="Path_139363" data-name="Path 139363" d="M770.327,240.294l-.465.335c-.133-.1-.264-.186-.388-.283a3.579,3.579,0,0,0-3.964-.163,2.272,2.272,0,0,0-1.139,1.758,2.162,2.162,0,0,0,.788,1.933,3.344,3.344,0,0,0,2.552.756,3.22,3.22,0,0,0,1.863-.735c.071-.059.149-.109.253-.183l.44.286c-.024.078-.024.133-.052.159a4.072,4.072,0,0,1-3.3,1.045,3.831,3.831,0,0,1-1.737-.5,2.882,2.882,0,0,1-1.533-2.652,2.6,2.6,0,0,1,.826-1.873,3.712,3.712,0,0,1,2.249-1.044,4.193,4.193,0,0,1,3.355.9c.07.06.128.134.255.269" transform="translate(-532.305 1501.484)" fill="#1a1311"/>
    <path id="Path_139364" data-name="Path 139364" d="M585.7,240.3l-.468.323c-.153-.113-.3-.22-.445-.328a3.566,3.566,0,0,0-3.909-.113,2.237,2.237,0,0,0-1.126,2.117,2.131,2.131,0,0,0,.747,1.533,3.324,3.324,0,0,0,2.542.8,3.217,3.217,0,0,0,1.874-.712c.09-.073.186-.137.3-.219l.476.328a2.869,2.869,0,0,1-1.4.931,4.8,4.8,0,0,1-3.171-.006,3.363,3.363,0,0,1-1.339-.874,2.81,2.81,0,0,1,.134-3.971,4.149,4.149,0,0,1,3.466-.976A3.438,3.438,0,0,1,585.7,240.3" transform="translate(-389.35 1501.488)" fill="#1a1311"/>
    <path id="Path_139365" data-name="Path 139365" d="M654.494,239.807a1.236,1.236,0,0,1,.188.191c.67,1.06,2.821,5.083,2.969,5.545-.541.137-.568.134-.791-.25-.293-.5-.576-1.014-.849-1.5a16.426,16.426,0,0,0-3.023-.038l-1.027,1.785a.776.776,0,0,1-.714.016c.062-.144.106-.272.169-.39a58.538,58.538,0,0,1,3.078-5.363m-.02,1.261c-.353.635-.659,1.179-.956,1.728a1.693,1.693,0,0,0-.093.35c.739-.013,1.427.04,2.2-.042-.367-.686-.69-1.316-1.154-2.035" transform="translate(-445.276 1500.927)" fill="#1a1311"/>
    <path id="Path_139398" data-name="Path 139398" d="M1244.15,245.457a.626.626,0,0,1-.893-.364c-.233-.457-.5-.9-.761-1.34a.747.747,0,0,0-.126-.12h-2.876c-.439.552-.687,1.245-1.126,1.86h-.587c-.014-.072-.042-.124-.027-.159a3.352,3.352,0,0,1,.18-.378q1.329-2.389,2.663-4.775c.09-.161.2-.311.324-.511a1.709,1.709,0,0,1,.248.27q1.458,2.638,2.906,5.281a1.5,1.5,0,0,1,.075.236m-2.137-2.451a5.587,5.587,0,0,0-1.133-1.948c-.308.554-.613,1.1-.914,1.647a3,3,0,0,0-.121.3,14.817,14.817,0,0,0,2.168,0" transform="translate(-899.418 1501.034)" fill="#1a1311"/>
    <path id="Path_139408" data-name="Path 139408" d="M1383.081,239.955c.471.677,2.936,5.2,3.1,5.7-.566.12-.573.124-.8-.26-.3-.5-.58-1.013-.86-1.5a18.27,18.27,0,0,0-3.009-.038l-1.069,1.856c-.163.009-.3.024-.438.02a.642.642,0,0,1-.183-.065,49.706,49.706,0,0,1,2.921-5.418,1.89,1.89,0,0,1,.265-.3c.009-.009.044.006.067.01m-.079,1.213c-.382.687-.7,1.253-1.01,1.822a.621.621,0,0,0-.035.192,6.57,6.57,0,0,0,2.175-.038c-.361-.627-.67-1.264-1.13-1.977" transform="translate(-1009.432 1500.823)" fill="#1a1311"/>
    <path id="Path_139391" data-name="Path 139391" d="M1158.71,244.94c.613.065,1.127.023,1.638.039a11.416,11.416,0,0,1,1.55.044v.433a20.836,20.836,0,0,1-3.782.031.3.3,0,0,1-.052-.046.124.124,0,0,1-.023-.064q-.015-2.453-.028-4.907c0-.186.009-.373.021-.559,0-.041.038-.081.082-.171a7.955,7.955,0,0,1,1.217-.031c.422-.008.843,0,1.264,0s.836.007,1.283.011a2.073,2.073,0,0,1,.062.29,1.146,1.146,0,0,1-.047.241,14.59,14.59,0,0,1-1.53.028c-.512.007-1.025,0-1.572,0a2.778,2.778,0,0,0-.082.428c-.01.42,0,.84,0,1.294a2.173,2.173,0,0,0,.408.087c.7.009,1.4,0,2.107.006.207,0,.414.016.661.027.015.161.028.292.041.429-.074.037-.133.091-.193.092-.749.012-1.5.013-2.247.022-.229,0-.458.019-.724.031a18.751,18.751,0,0,0-.049,2.246" transform="translate(-837.676 1501.01)" fill="#1a1311"/>
    <path id="Path_139366" data-name="Path 139366" d="M921.32,245.507h-.575a.625.625,0,0,1-.078-.195q-.013-1.017-.013-2.034,0-1.438,0-2.877c0-.206.021-.412.034-.657l.565-.027a.781.781,0,0,1,.086.218c.01.444.01.888.016,1.332,0,.154.014.308.021.446.219.061.308-.069.411-.15.626-.492,1.263-.97,1.863-1.492a1.219,1.219,0,0,1,1.153-.337c.064.143-.053.2-.137.266q-1.207.964-2.415,1.926c-.146.116-.289.236-.466.382a2.818,2.818,0,0,0,.261.318c.851.769,1.706,1.533,2.559,2.3.171.154.335.317.512.484-.431.207-.652.2-.953-.062-.616-.539-1.219-1.094-1.832-1.638a8.1,8.1,0,0,0-.833-.71c-.178.072-.141.2-.142.311,0,.561,0,1.123,0,1.684,0,.16-.021.319-.034.512" transform="translate(-653.883 1501.011)" fill="#1a1311"/>
    <path id="Path_139373" data-name="Path 139373" d="M949.652,239.743h.567a.726.726,0,0,1,.079.211c.005,1.191.008,2.382,0,3.573a4.228,4.228,0,0,1-.074.555,1.767,1.767,0,0,1-1.251,1.467,2.747,2.747,0,0,1-2.245-.161,1.562,1.562,0,0,1-.932-1.308c-.019-.209-.055-.418-.056-.627-.006-1.121,0-2.243,0-3.364a2.881,2.881,0,0,1,.04-.318l.551-.059a1.161,1.161,0,0,1,.087.286c.008.818.007,1.635.009,2.453,0,.374.008.748,0,1.121-.022,1.2.784,1.551,1.662,1.543a1.4,1.4,0,0,0,1.519-1.482c.011-1.051,0-2.1.009-3.153,0-.23.019-.459.031-.736" transform="translate(-673.308 1501.002)" fill="#1a1311"/>
    <path id="Path_139387" data-name="Path 139387" d="M1076.929,239.784c.016.189.027.32.04.472a1.143,1.143,0,0,1-.277.079c-.725.008-1.45.007-2.175.008h-.679a3.74,3.74,0,0,0-.024,1.809l1.523,0h1.445a.679.679,0,0,1,.1.507,6.667,6.667,0,0,1-1.522.06c-.512.016-1.025,0-1.522,0a5.683,5.683,0,0,0-.008,2.289c1,.073,2.024-.018,3.062.054v.464a3.9,3.9,0,0,1-1.268.079c-.421.015-.842.013-1.263,0a4.713,4.713,0,0,1-1.264-.065,2.285,2.285,0,0,1-.057-.351c0-1.772,0-3.545,0-5.307.108-.051.169-.1.23-.1,1.192,0,2.384,0,3.664,0" transform="translate(-771.876 1500.945)" fill="#1a1311"/>
    <path id="Path_139383" data-name="Path 139383" d="M1022.865,242.88v2.543a.528.528,0,0,1-.626.1.78.78,0,0,1-.061-.2q0-2.658,0-5.316a.851.851,0,0,1,.069-.217,1.722,1.722,0,0,1,.265-.041c.607,0,1.215-.009,1.821.013a4.668,4.668,0,0,1,.969.131,1.433,1.433,0,0,1,1.147,1.332,1.33,1.33,0,0,1-.743,1.321,2.254,2.254,0,0,1-1,.27c-.4.012-.794.021-1.19.035-.183.006-.366.019-.647.035m.029-.62a14.446,14.446,0,0,0,1.87-.016,1.292,1.292,0,0,0,.336-.085.9.9,0,0,0-.086-1.736,6.343,6.343,0,0,0-2.1-.071,9.614,9.614,0,0,0-.024,1.909" transform="translate(-732.495 1500.979)" fill="#1a1311"/>
    <path id="Path_139388" data-name="Path 139388" d="M1092.8,243.931l.473-.232a.668.668,0,0,1,.15.078,5.841,5.841,0,0,0,.541.544,1.343,1.343,0,0,0,1.516.114.873.873,0,0,0,.273-1.454,6.306,6.306,0,0,0-.863-.71c-.3-.222-.624-.412-.926-.632a2.419,2.419,0,0,1-.463-.423,1.209,1.209,0,0,1,.332-1.867,1.971,1.971,0,0,1,2.129.025,5.207,5.207,0,0,1,.637.522c-.069.287-.283.324-.493.407-.154-.131-.3-.277-.472-.4a1.189,1.189,0,0,0-1.254-.165.688.688,0,0,0-.3,1.1,2.61,2.61,0,0,0,.572.506c.38.272.788.5,1.159.787a3.459,3.459,0,0,1,.7.68,1.3,1.3,0,0,1-.2,1.826,2.261,2.261,0,0,1-2.79.138,2.132,2.132,0,0,1-.717-.844" transform="translate(-787.177 1501.514)" fill="#1a1311"/>
    <path id="Path_139395" data-name="Path 139395" d="M1210.628,240.28h-1.376a.364.364,0,0,1-.052-.485,22.423,22.423,0,0,1,3.661-.006c.012.119.024.25.037.388-.073.037-.131.09-.191.094-.415.021-.83.033-1.286.049-.02.216-.05.395-.051.573,0,1.306,0,2.612,0,3.918,0,.227-.02.455-.033.715h-.616c-.019-.2-.05-.375-.051-.555,0-1.306,0-2.612,0-3.918,0-.227-.02-.454-.035-.773" transform="translate(-877.258 1500.997)" fill="#1a1311"/>
    <path id="Path_139401" data-name="Path 139401" d="M1303.236,245.075c.916.136,1.761-.023,2.613.11v.415a12.236,12.236,0,0,1-3.21.038.274.274,0,0,1-.052-.047.126.126,0,0,1-.022-.065q-.014-2.489-.027-4.978c0-.163.008-.327.02-.49a.619.619,0,0,1,.074-.159h.542a2.146,2.146,0,0,1,.057.343c0,1.333,0,2.666,0,4v.834" transform="translate(-949.586 1500.855)" fill="#1a1311"/>
    <path id="Path_139402" data-name="Path 139402" d="M1271.31,245.506c-.086-.584-.091-5.048-.009-5.706a.584.584,0,0,1,.609.015c.066.846.02,1.706.03,2.563.01.837-.009,1.675.01,2.513a3.511,3.511,0,0,0,1.279.1,11.368,11.368,0,0,1,1.28.042,1.5,1.5,0,0,1,.045.273.526.526,0,0,1-.055.17,13.657,13.657,0,0,1-3.19.029" transform="translate(-925.353 1500.993)" fill="#1a1311"/>
    <path id="Path_139367" data-name="Path 139367" d="M644.077,245.571h-.522a.668.668,0,0,1-.086-.2c-.011-.4-.015-.794-.015-1.191q0-1.823,0-3.646c0-.23.016-.46.027-.738l.577-.035a1.188,1.188,0,0,1,.081.285q.007,2.629,0,5.259a1.523,1.523,0,0,1-.064.268" transform="translate(-439.24 1500.965)" fill="#1a1311"/>
    <path id="Path_139404" data-name="Path 139404" d="M1321.808,239.9h.617a3.244,3.244,0,0,1,.045.369c0,1.773,0,3.546,0,5.286a.52.52,0,0,1-.607.091c-.029-.063-.065-.1-.065-.145q-.013-2.558-.018-5.116c0-.138.015-.276.028-.484" transform="translate(-964.485 1500.852)" fill="#1a1311"/>
    <path id="Path_139392" data-name="Path 139392" d="M1116.972,245.5a1.852,1.852,0,0,1-.287.035,2.123,2.123,0,0,1-.308-.06,11.609,11.609,0,0,1-.032-1.4c-.007-.49,0-.981,0-1.472v-2.839l.587-.079a1.011,1.011,0,0,1,.1.278q.008,2.628,0,5.256a1.444,1.444,0,0,1-.058.279" transform="translate(-805.408 1501.022)" fill="#1a1311"/>
    <path id="Path_139399" data-name="Path 139399" d="M1230.346,245.548l-.6-.035a11.931,11.931,0,0,1-.034-1.424c-.006-.491,0-.981,0-1.472,0-.467,0-.934,0-1.4s.008-.928.013-1.438l.562-.063a.847.847,0,0,1,.1.21c.047.391.016,5.123-.041,5.624" transform="translate(-893.192 1500.999)" fill="#1a1311"/>
    <path id="Path_139368" data-name="Path 139368" d="M828.13,239.846h.523a.651.651,0,0,1,.077.195c.012.3.017.606.017.909q0,1.96,0,3.92c0,.23-.012.461-.018.658-.191.208-.374.107-.57.109a.967.967,0,0,1-.089-.269q-.008-2.625,0-5.249a1.573,1.573,0,0,1,.062-.271" transform="translate(-582.191 1500.897)" fill="#1a1311"/>
    <path id="Path_139374" data-name="Path 139374" d="M906.872,255.275a12.812,12.812,0,0,1-2.492.007l-.024-.308a7.412,7.412,0,0,1,2.484-.059c.01.114.021.238.032.36" transform="translate(-641.264 1489.286)" fill="#1a1311"/>
    <path id="Path_139354" data-name="Path 139354" d="M753.142,228.332H547.554a2.373,2.373,0,0,1-.053-1.075c.154-.017.287-.04.422-.045.211-.007.422,0,.632,0H753.142Z" transform="translate(-364.916 1510.683)" fill="#1a1311"/>
    <path id="Path_139335" data-name="Path 139335" d="M0,111.09H75.992a4.122,4.122,0,0,0,.067-.425c.011-.21,0-.421,0-.631q0-11.4,0-22.8a3.137,3.137,0,0,1,.044-.84,1.97,1.97,0,0,1,.909-.051.792.792,0,0,1,.111.1.148.148,0,0,1,.018.067c.008.14.019.28.019.42q0,12.525-.013,25.049a.728.728,0,0,1-.059.173c-.111.016-.242.045-.376.053-.163.01-.328,0-.492,0q-37.6,0-75.194,0A1.969,1.969,0,0,1,0,112.072Z" transform="translate(59 1619.785)" fill="#1a1311"/>
    <path id="Path_139393" data-name="Path 139393" d="M384.331,324.785c.016-.372.032-.744.05-1.151a2.627,2.627,0,0,1,.4-.084c.233-.014.468,0,.7,0q19.92,0,39.841,0c2.458,0,4.914-.087,7.366-.271,1.47-.111,2.943-.195,4.411-.332s2.932-.309,4.395-.495c1.392-.177,2.784-.365,4.168-.6,2.03-.339,4.058-.691,6.077-1.089a129.778,129.778,0,0,0,14.653-3.81c1.313-.422,2.618-.868,3.925-1.308.174-.058.34-.141.53-.221l.076-1.127a3.122,3.122,0,0,1,.958-.017,3.282,3.282,0,0,1,.074,1.1c.012.372,0,.744,0,1.133-.2.09-.363.176-.534.236A141.58,141.58,0,0,1,456.887,321c-2.665.624-5.344,1.182-8.044,1.634-2.03.339-4.07.625-6.11.9q-2.191.3-4.394.507c-1.421.137-2.846.24-4.272.327-1.893.116-3.788.2-5.682.305-.254.014-.5.075-.757.114Z" transform="translate(-238.596 1443.285)" fill="#1a1311"/>
    <path id="Path_139375" data-name="Path 139375" d="M153.752,256.858v-.594a.749.749,0,0,1,.228-.01c1,.331,1.99.683,2.992,1,4.125,1.308,8.3,2.418,12.528,3.361,2.351.525,4.715.992,7.1,1.361,1.734.269,3.467.549,5.2.8.95.135,1.907.221,2.862.314,1.328.129,2.656.252,3.986.361,1,.083,2.007.142,3.011.208,1.753.114,3.507.182,5.264.168.936-.008,1.872.04,2.808.04q19.712,0,39.423,0c.326,0,.652-.006.95-.009a1.074,1.074,0,0,0,.131-.784q.009-4.21,0-8.42c0-.253.015-.507.023-.779a2.813,2.813,0,0,1,1.01-.07,3.048,3.048,0,0,1,.068.438q0,5.157,0,10.315c0,.092-.016.183-.028.316a2.624,2.624,0,0,1-.387.085c-.21.015-.421.006-.632.006q-19.5,0-39,0c-1.64,0-3.28.005-4.919-.037-2.224-.058-4.446-.165-6.662-.38-1.165-.113-2.331-.213-3.5-.316-1.7-.15-3.4-.347-5.088-.61-2.011-.313-4.027-.607-6.026-.987-2.205-.42-4.4-.9-6.587-1.4q-5.3-1.232-10.478-2.892c-1.336-.427-2.66-.893-3.988-1.342-.087-.03-.169-.076-.3-.135" transform="translate(-60.054 1490.098)" fill="#1a1311"/>
    <path id="Path_139338" data-name="Path 139338" d="M418.835,75.372a2.379,2.379,0,0,1,1.078,0c.017.121.043.232.047.344.08,2.3.027,34.293-.062,34.983a3.738,3.738,0,0,1-.38.057c-.187.011-.375,0-.562,0H385.434c-.3,0-.6-.006-.9-.009a2.106,2.106,0,0,1-.084-1.046,2.264,2.264,0,0,1,.446-.135c.256-.024.515-.012.772-.012q16.023.009,32.047.016a2.416,2.416,0,0,0,1-.089,2.293,2.293,0,0,0,.072-.387c.01-.444.006-.889.006-1.333q.009-15.718.02-31.437c0-.3.011-.6.018-.953" transform="translate(-238.669 1628.303)" fill="#1a1311"/>
    <path id="Path_139353" data-name="Path 139353" d="M153.61,226.9a2.006,2.006,0,0,1,.03-.988c.144-.019.278-.049.413-.053.281-.009.562,0,.843,0h40a4.23,4.23,0,0,0,.07-.512c.007-.748,0-1.5,0-2.245,0-.232,0-.463,0-.7a1.964,1.964,0,0,1,1.01-.092.86.86,0,0,1,.089.256q.006,2.069,0,4.138a.87.87,0,0,1-.053.18,2.978,2.978,0,0,1-.367.067c-.186.013-.374,0-.562,0H154.554a4.055,4.055,0,0,1-.944-.05" transform="translate(-59.908 1514.497)" fill="#1a1311"/>
    <path id="Path_139339" data-name="Path 139339" d="M608.137,20.793c0-6.962,0-13.83,0-20.718a1.943,1.943,0,0,1,1.014-.013.711.711,0,0,1,.069.2q.008,10.663.008,21.325a1.253,1.253,0,0,1-.037.231.636.636,0,0,1-.083.077.148.148,0,0,1-.067.018q-12.118.01-24.237.018c-.14,0-.28-.014-.42-.025-.019,0-.037-.027-.1-.078a2.967,2.967,0,0,1-.011-.911,1.017,1.017,0,0,1,.689-.1q3.232-.008,6.464,0H607.3c.252,0,.5-.015.835-.025" transform="translate(-393.392 1686.615)" fill="#1a1311"/>
    <path id="Path_139384" data-name="Path 139384" d="M625.649,286.082c.1-1.122-.037-2.263.081-3.422a3.378,3.378,0,0,1,.968,0,16.69,16.69,0,0,1,.056,2.314c.012.742.014,1.485-.008,2.262-.192.022-.325.045-.459.05-.187.008-.374,0-.562,0H584.363a1.868,1.868,0,0,1-.086-1.018,3.146,3.146,0,0,1,.411-.074c.257-.012.515,0,.772,0q19.6,0,39.191,0a1.922,1.922,0,0,0,1-.106" transform="translate(-393.397 1467.773)" fill="#1a1311"/>
    <path id="Path_139340" data-name="Path 139340" d="M428.347,49.09a3.279,3.279,0,0,1,0,.956.83.83,0,0,1-.225.081q-21.639.009-43.278.009a2.843,2.843,0,0,1-.36-.047,1.839,1.839,0,0,1-.022-.963.764.764,0,0,1,.213-.073q21.639-.009,43.278-.011a3.464,3.464,0,0,1,.39.049" transform="translate(-238.659 1648.642)" fill="#1a1311"/>
    <rect id="Rectangle_1027" data-name="Rectangle 1027" width="329.226" height="81.455" transform="translate(59 1686.616)" fill="none"/>
    <rect id="Rectangle_1036" data-name="Rectangle 1036" width="36" height="36" transform="translate(144 1702)" fill="url(#linear-gradient)"/>
  </g>
</svg>
