<svg xmlns="http://www.w3.org/2000/svg" viewBox="0 0 689 83"><defs><style>.cls-1{fill:#120562;}.cls-2{fill:#96d4e1;}.cls-3{fill:#e00012;}.cls-4{fill:none;stroke:#000;stroke-miterlimit:10;stroke-width:0.79px;}</style></defs><g id="icon"><path class="cls-1" d="M91.41,51.46a16.67,16.67,0,0,1-1.42,2c-3.63,3.89-8,6.15-13.44,5.92-4-.16-8-.56-12-.94-2.91-.27-5.82-.63-8.71-1A121.66,121.66,0,0,1,36.1,52.86,125.3,125.3,0,0,1,10.37,41.19c-3.3-1.93-6.52-4-9.77-6a1.59,1.59,0,0,1-.6-.63l2,.16c5.32.36,10.65.78,16,1.06a122.19,122.19,0,0,0,16.79-.35c5.48-.49,11-1.1,16.41-1.91a59.64,59.64,0,0,0,17.76-6A84.72,84.72,0,0,0,90,12.78c2.59-2.48,4.89-5.27,7.32-7.92.63-.68,1.26-1.36,1.85-2.07a.91.91,0,0,1,1-.31C103,3,105.9,3.54,108.8,3.89s5.62.56,8.43.64c3.55.1,7.11.11,10.66,0s7.35-.47,11-.84,7.3-.88,11.1-1.35l-1.86,1.85a92.34,92.34,0,0,1-10,7.9,249,249,0,0,1-30.91,19.43A139.9,139.9,0,0,1,78.69,42.69a89.92,89.92,0,0,1-14.23,3.05c-3.38.38-6.77.67-10.17.81-3.61.16-7.24.1-10.86.13-.74,0-1.49,0-2.23-.06,16.33,5.27,33.08,6.16,50.05,4.63Z"/><path class="cls-2" d="M115.85,75.44c-.74-.09-1.48-.18-2.21-.29a57.36,57.36,0,0,0-11-.41c-2.6.14-5.21.22-7.8.46a50.51,50.51,0,0,0-10.81,2.15Q80,78.66,76,80.11a8.18,8.18,0,0,1-7.75-.89c-5.46-3.69-11.66-5.17-18.09-6A102.18,102.18,0,0,0,33.8,72.6c-4.44.14-8.88.23-13.3.54-3.41.24-6.81.77-10.2,1.2-1.18.15-2.34.37-3.51.55a.49.49,0,0,1-.46-.15c.66-.36,1.31-.75,2-1.08a75.63,75.63,0,0,1,16.55-5.28,127.71,127.71,0,0,1,14.67-2.26c4-.37,8-.65,12-.8,4.86-.19,9.73-.26,14.6-.27a135.84,135.84,0,0,1,14.12.73,159.88,159.88,0,0,1,19.8,3.6,57.28,57.28,0,0,1,10.48,3.17c1.65.73,3.24,1.58,4.86,2.38a5.65,5.65,0,0,1,.51.34Z"/><path class="cls-3" d="M5.82,5.47c1.78-.26,3.55-.56,5.34-.79,3.11-.38,6.23-.79,9.36-1.06s6-.29,9-.53C36.1,2.55,41.94,5,47.6,7.94A76.24,76.24,0,0,1,64,19.9c.84.77,1.65,1.57,2.47,2.37,0,0,0,.07.07.19-.18.1-.36.23-.56.33a57.66,57.66,0,0,1-17,6c-1.35.24-2.73.36-4.1.48A1.43,1.43,0,0,1,44,29c-5.11-3.77-10.15-7.64-15.34-11.29A92,92,0,0,0,8.1,6.52L5.77,5.67Z"/></g><g id="black"><path d="M288.79,74.77l0,0a1.7,1.7,0,0,0-2.08-.69,7.17,7.17,0,0,1-.9.18c-.51.08-.66.24-.69.91a16.57,16.57,0,0,0,0,3.15,3.62,3.62,0,0,1,0,.93A13,13,0,0,0,285,82h1c0-.36.05-.72.09-1.08.07-.58.17-.74.64-.84a6.9,6.9,0,0,1,1-.09,1,1,0,0,0,.85-.5c.2-.31.46-.57.66-.88a1.8,1.8,0,0,0,.34-.79C289.71,76.65,289.78,75.48,288.79,74.77Zm-.5,3.18c-.27.76-.62,1-1.27.89s-.8-.47-.89-1.29c0-.19,0-.38,0-.57L286,77a13.35,13.35,0,0,1,.39-1.48c.24-.61.8-.74,1.21-.3a4.31,4.31,0,0,1,.74,1.08,2.68,2.68,0,0,1,.11,1A2.23,2.23,0,0,1,288.29,78Z"/><path d="M439.57,77.79c0-.15,0-.29,0-.43,0-1.32,0-2.63.05-4a4.19,4.19,0,0,0,0-.71c-.05-.42-.24-.65-.51-.65s-.45.23-.52.65a2.64,2.64,0,0,0,0,.28c0,1.6,0,3.2,0,4.81a3.29,3.29,0,0,0,.6,1.81c.3.46.73.33,1.12.37h0V78.82C439.8,78.74,439.61,78.34,439.57,77.79Z"/><path d="M403.2,40.71a3.07,3.07,0,0,0-1.61-3,1.24,1.24,0,0,1-.23-.17,1.86,1.86,0,0,0-1.2-.41h-8.49c-1.23,0-1.59-.44-1.53-1.63s.1-2.29.13-3.44c0-.63-.21-1-.83-1.06a6.43,6.43,0,0,0-1.64,0c-.68.1-.87.41-.84,1.11,0,1.1.07,2.2.11,3.3,0,1.46-.23,1.73-1.68,1.72-2.59,0-5.18,0-7.77,0a3.62,3.62,0,0,0-2.55,1.15,3.08,3.08,0,0,0-1,2.32c0,1.65,0,3.31,0,5s0,3.07,0,4.6a4.75,4.75,0,0,0,.8,2.77,1.94,1.94,0,0,0,1.57,1c.55,0,1.11.07,1.66.06l7.62,0c1,0,1.35.37,1.33,1.36,0,1.64-.05,3.29-.08,4.94,0,.53,0,1.06,0,1.59a.91.91,0,0,0,.57.91,2.93,2.93,0,0,0,2,0,.93.93,0,0,0,.65-.87,5.42,5.42,0,0,0,0-.57c0-2.09,0-4.17,0-6.25,0-.72.23-1,.94-1.11a8.46,8.46,0,0,1,1,0h8.49a1.52,1.52,0,0,0,.88-.22,3.7,3.7,0,0,0,1.67-3C403.24,47.37,403.26,44,403.2,40.71Zm-16.14,4.92v4.52c0,1.14-.38,1.54-1.56,1.54h-6.25c-1.3,0-1.83-.54-1.83-1.83,0-1.92,0-3.83,0-5.75,0-.79,0-1.58,0-2.37a3.45,3.45,0,0,1,.08-.85,1.26,1.26,0,0,1,1.2-1.06c.38,0,.76-.07,1.14-.07h5.68a5.62,5.62,0,0,1,.58,0,1,1,0,0,1,1,1,4.56,4.56,0,0,1,0,.64L387,45.63Zm12.58,5.5a1.38,1.38,0,0,1-1.19.55h-6.68a2.73,2.73,0,0,1-.64-.07,1.06,1.06,0,0,1-.9-1.07c0-.47,0-.95,0-1.43q0-3.37,0-6.75c0-.43-.07-.86-.08-1.29a1.07,1.07,0,0,1,1-1.23,8.88,8.88,0,0,1,1.36-.09c1.71,0,3.41,0,5.11,0a9.34,9.34,0,0,1,1.29.1,1,1,0,0,1,1,1,5.72,5.72,0,0,1,0,.72v4h0c0,1.44,0,2.88,0,4.31A1.94,1.94,0,0,1,399.64,51.13Z"/><path d="M259,63a2,2,0,0,0,.78-.05.8.8,0,0,0,.47-.45c0-.12-.15-.39-.31-.49-.63-.38-1.3-.69-1.94-1.07-1.42-.84-2.85-1.66-4.22-2.57-1.1-.73-2.12-1.56-3.16-2.37A20.26,20.26,0,0,1,249,54.57c-.57-.57-.68-1.25-.17-1.72a12.06,12.06,0,0,0,1.41-1.79,14.76,14.76,0,0,0,1.36-1.94,35.09,35.09,0,0,0,2.31-4.53,3.75,3.75,0,0,1,.24-.44c.17-.39.35-.79.51-1.18a6.61,6.61,0,0,1,.29-.89,8.28,8.28,0,0,0,.84-2.42,1.52,1.52,0,0,1,1.66-1.38c.55,0,1.11,0,1.66,0a4.2,4.2,0,0,0,.79-.05,1.07,1.07,0,0,0,.84-1.24.93.93,0,0,0-.94-1,11,11,0,0,0-1.15,0H250.9a12.34,12.34,0,0,1-1.36,0c-.68-.08-1.42-.25-1.65-1-.36-1.1-1.15-2-1.34-3.17a.87.87,0,0,0-.74-.79,11.88,11.88,0,0,0-2.15,0,.54.54,0,0,0-.43.9c.58.88.63,2,1.41,2.81a.78.78,0,0,1,.09.94c-.18.32-.49.34-.82.34H238.3v0c-1.92,0-3.84,0-5.75,0a1.18,1.18,0,0,0,.1,2.35c.64,0,1.29,0,1.94-.07a1.27,1.27,0,0,1,1.26.66,9.9,9.9,0,0,1,.64,1.2,21.84,21.84,0,0,0,1.18,3c.54,1,.93,2.15,1.47,3.19a33.69,33.69,0,0,0,1.72,3,22,22,0,0,0,2.6,3.6,1,1,0,0,1,0,1.53,6.15,6.15,0,0,1-.53.49c-.69.6-1.36,1.21-2.07,1.78s-1.28,1-2,1.46-1.23.75-1.83,1.14c-.91.57-1.79,1.17-2.71,1.73-.59.36-1.23.64-1.83,1a.7.7,0,0,0-.31.5c0,.16.24.33.41.42a1.2,1.2,0,0,0,.57.07c1.15,0,2.3,0,3.45-.08a1,1,0,0,0,.67-.17A9.7,9.7,0,0,1,239,61.57c.68-.48,1.32-1,2-1.53a46.8,46.8,0,0,0,4.41-3.54c.6-.59.91-.55,1.52,0s1.48,1.37,2.23,2a8,8,0,0,0,1.46,1.16c1.38.73,2.4,2,3.86,2.57a.45.45,0,0,1,.17.13,1.62,1.62,0,0,0,1.37.49C257,62.9,258,63,259,63ZM246.8,50.78a.79.79,0,0,1-1.26.06.7.7,0,0,1-.14-.16c-.88-1.39-2.1-2.55-2.76-4.09a4.51,4.51,0,0,0-.35-.54c0-.08-.14-.14-.18-.22-.49-1-1-2-1.45-2.95a12.21,12.21,0,0,1-.49-1.18c-.31-.88-.61-1.76-.87-2.65-.11-.39.1-.64.52-.71a6.7,6.7,0,0,1,1-.05h5.25v0h5.68a3.1,3.1,0,0,1,.43,0c.51.07.7.29.72.81a3.8,3.8,0,0,1-.41,1.8c-.26.53-.46,1.1-.68,1.65,0,.09-.05.18-.09.27-.5,1-1,1.9-1.51,2.84s-.9,1.63-1.42,2.4C248.17,49,247.49,49.89,246.8,50.78Z"/><path d="M354.44,61.8a.52.52,0,0,0-.33-.84,2.17,2.17,0,0,0-.57-.06c-.79,0-1.58,0-2.38,0a4.71,4.71,0,0,1-1.13-.1,1.23,1.23,0,0,1-1-1.12,5.43,5.43,0,0,1,0-.57L349,53c0-.7.19-1,.91-1,.89-.05,1.78,0,2.66,0a1.18,1.18,0,0,1,1.14.84,7.63,7.63,0,0,0,.47,1,19,19,0,0,0,3.26,4.26c1.6,1.54,3.28,3,4.93,4.5a1,1,0,0,0,.57.27c1.48.07,3,.12,4.45.15.27,0,.57-.15.55-.46a.81.81,0,0,0-.39-.52A20.73,20.73,0,0,1,364,60c-.48-.35-.94-.73-1.43-1.08a.83.83,0,0,1-.21-1.38,3.11,3.11,0,0,1,.4-.41l3.4-3a2.2,2.2,0,0,0,.3-.31.45.45,0,0,0-.25-.77,1.1,1.1,0,0,0-.36,0l-2.23,0a2.08,2.08,0,0,0-1.53.67c-.65.6-1.32,1.18-2,1.75a.81.81,0,0,1-1.34-.2c-.19-.25-.35-.51-.54-.76-.39-.55-.81-1.07-1.16-1.63a1.05,1.05,0,0,1-.1-.74c.06-.3.38-.31.65-.31a2.85,2.85,0,0,0,.29,0c1.07,0,2.15.09,3.23.05,2.25-.1,4.5-.13,6.75,0a.75.75,0,0,0,.8-.36,1.54,1.54,0,0,0,0-1.46,1.06,1.06,0,0,0-1.17-.51c-.5,0-1,.06-1.5.07-.77,0-1.54,0-2.3,0a1.19,1.19,0,0,1-1.28-1.26,15.22,15.22,0,0,1,.08-1.79.94.94,0,0,1,.94-.92,2.77,2.77,0,0,1,.5,0c.58,0,1.15.06,1.72.09a1.26,1.26,0,0,0,1.43-1.26,1.23,1.23,0,0,0-1.42-1.25c-.15,0-.29,0-.43,0l-1.51,0a1.14,1.14,0,0,1-1.26-1.23,1.59,1.59,0,0,0-1.67-1.51A1.47,1.47,0,0,0,359.29,42c.09.84-.45,1.28-1.35,1.28h-2.59c-.55,0-1.11,0-1.66,0s-1-.32-1-1c0-.15,0-.29,0-.43,0-.67-.22-1-.81-1.09s-1.49-.54-2,.33a2,2,0,0,0-.22.88c-.07,1-.35,1.32-1.37,1.3-.79,0-1.58-.05-2.37-.08a1,1,0,0,0-1,.41,1.52,1.52,0,0,0,0,1.58,1.11,1.11,0,0,0,1.22.53c.84-.07,1.68-.09,2.52-.09.63,0,1,.26,1,.88a13.13,13.13,0,0,1,0,2.08,1,1,0,0,1-1,1,5.24,5.24,0,0,1-.79,0l-2.8-.09c-.43,0-.85,0-1,.47a1.46,1.46,0,0,0,0,1.51,1.34,1.34,0,0,0,.64.39,2,2,0,0,0,.5,0,.89.89,0,0,1,.94.81,2.75,2.75,0,0,1,0,.5v3.45h0c0,.89.05,1.77,0,2.66a4.11,4.11,0,0,0,.78,2.83,1.48,1.48,0,0,0,1.29.73c1.46,0,2.93,0,4.39.09A2.11,2.11,0,0,0,354.44,61.8Zm-1.75-15.13c0-.82.35-1.1,1.17-1.08h2.08v0H358c.93,0,1.29.38,1.3,1.32,0,.48,0,1,0,1.43a1.15,1.15,0,0,1-1.06,1.17,4.8,4.8,0,0,1-.93.07l-3.3,0c-1,0-1.38-.34-1.36-1.38C352.66,47.72,352.66,47.2,352.69,46.67Z"/><path d="M161.35,7.39c.74-.08,1.1-.39,1.17-1,0-.24,0-.48,0-.72a1,1,0,0,1,1-1c.81,0,1.63-.07,2.44-.09a1.56,1.56,0,0,1,.43,0c.42.1.58.35.41.74a2.31,2.31,0,0,1-.55.73c-.52.43-1,.84-1.6,1.22s-1.09.69-1.65,1c-.38.23-.78.45-1.18.66s-.67.18-.61.58.46.43.78.49h.08a23.77,23.77,0,0,0,2.93-.22,2.54,2.54,0,0,1,2.1.41c.37.27.83.51.72,1s-.62.59-1.06.71-1,.35-1.48.53a4.34,4.34,0,0,1-1.07.4,4.76,4.76,0,0,0-2.39.88c-.14.09-.31.13-.46.22s-.79.13-.67.58.57.23.89.23a6.71,6.71,0,0,1,1-.06.5.5,0,0,1,.41.79,2.26,2.26,0,0,1-.5.69,1.6,1.6,0,0,0-.52,1.28c0,.86,0,1.73,0,2.59a2.87,2.87,0,0,0,.63,2,1.93,1.93,0,0,0,1.75.87c4.15,0,8.3,0,12.45,0,1.41,0,1.4,0,2.29-1.08a2,2,0,0,0,.44-1.4c0-.81,0-1.62,0-2.44a2.16,2.16,0,0,0-.79-2,.4.4,0,0,1-.14-.15c-.09-.24-.26-.5-.22-.71s.41-.37.71-.37.62.07.93.05c.16,0,.31-.15.47-.23-.11-.15-.18-.36-.32-.43a7.63,7.63,0,0,0-3-1.2,1,1,0,0,1-.28-.07,13.09,13.09,0,0,0-2.74-1c-.55-.1-.63-.67-.22-1.06a11.08,11.08,0,0,1,1.09-.82c.63-.47,1.29-.92,1.9-1.41a1.85,1.85,0,0,0,.52-.68,1.15,1.15,0,0,0-.72-1.67,3.85,3.85,0,0,0-1.13-.15c-1.25,0-2.49,0-3.74,0a2,2,0,0,1-.78-.08,2,2,0,0,1-.78-.57c-.26-.37-.06-.69.39-.76a4.1,4.1,0,0,1,.5,0l6.26-.09h.21a1.08,1.08,0,0,1,1.17,1.11c0,.28,0,.57.1.85a1.13,1.13,0,0,0,.95,1,1.36,1.36,0,0,0,1.61-1.18,5.31,5.31,0,0,0-.07-1.64,2.11,2.11,0,0,0-2.06-1.78c-.43,0-.86,0-1.29,0-1.46,0-2.93,0-4.39,0a1.9,1.9,0,0,1-2-1.44l-.11-.27a1.88,1.88,0,0,0-.29-.06c-.31,0-.62,0-.93,0-1.12,0-1.12,0-1.14,1.1,0,.43-.15.6-.59.66a3.62,3.62,0,0,1-.57,0l-4.75,0c-.41,0-.82.05-1.22.05a2,2,0,0,0-2,1.6,5.58,5.58,0,0,0-.07,2.12A1,1,0,0,0,161.35,7.39ZM177,18.24a11.36,11.36,0,0,1,0,1.65c-.05.78-.41,1.11-1.2,1.12h-9.86c-1.08,0-1.43-.35-1.45-1.41,0-.43,0-.87,0-1.3,0-.89.42-1.24,1.32-1.23,1.8,0,3.6.05,5.4.05,1.48,0,3,0,4.46-.06A1.13,1.13,0,0,1,177,18.24Zm-2.87-4.4a1.85,1.85,0,0,1,1.07.53c.26.3.23.54-.14.66a4.07,4.07,0,0,1-1.2.19c-2.06,0-4.12,0-6.18,0a2.14,2.14,0,0,1-1.7-.5,1.47,1.47,0,0,1,1.26-.84,6.07,6.07,0,0,0,1.59-.58,4,4,0,0,1,4.17.12A3.32,3.32,0,0,0,174.13,13.84Zm-5-6c1.12,0,2.25,0,3.37,0a.61.61,0,0,1,.28,0c.17.11.42.23.45.38a.65.65,0,0,1-.28.51c-.43.31-.88.58-1.33.85a1.31,1.31,0,0,1-1.31.07c-.62-.31-1.23-.63-1.84-1A4,4,0,0,1,168,8.4,1.33,1.33,0,0,1,169.14,7.87Z"/><path d="M341.62,58.21c.11-.85.16-1.71.21-2.57.08-1.51.14-3,.2-4.52,0-.38,0-.77,0-1.15,0-2.94.05-5.89,0-8.83,0-1.13.31-1.57,1.43-1.58,2.52,0,5-.09,7.55-.09,2,0,4,.06,6,.07,1.3,0,2.59-.07,3.89-.07.83,0,1.67.06,2.51.08a4.25,4.25,0,0,0,2.56-.82,1.84,1.84,0,0,0,.65-.83,4.53,4.53,0,0,0,.24-1.33c0-.79,0-1.58,0-2.37a6.42,6.42,0,0,0-.14-1.06,1.64,1.64,0,0,0-.9-1.15,4.28,4.28,0,0,0-2.14-.51c-3.45,0-6.9,0-10.36,0v0H342.68a3,3,0,0,0-.85.07c-.78.22-1.62.33-2.11,1.1A3.53,3.53,0,0,0,339,35a9.94,9.94,0,0,1,0,1.22c0,6.49.08,13-.18,19.47a11.91,11.91,0,0,1-.54,3.18c-.17.54-.27,1.11-.41,1.67-.11.41-.21.83-.35,1.23-.26.72-.06,1.12.7,1.21a6.28,6.28,0,0,0,1.3,0c.84-.07,1-.3,1.21-1.14.13-.66.35-1.29.51-1.94A16.21,16.21,0,0,0,341.62,58.21ZM342,35.45c0-1.13.51-1.58,1.65-1.65h17.7c.36,0,.72,0,1.08-.06,1-.06,1.39.31,1.43,1.26a8.34,8.34,0,0,1,0,1,1,1,0,0,1-1.15,1.1c-.79,0-1.59,0-2.38,0H345.12c-.63,0-1.25,0-1.87-.08-.9-.07-1.23-.46-1.22-1.35C342,35.59,342,35.52,342,35.45Z"/><path d="M213.74,60c-.05-4.24.1-8.47-.12-12.71a3.85,3.85,0,0,0-1-2.73,1.72,1.72,0,0,0-1.3-.65l-2.16,0a2.67,2.67,0,0,1-.85,0,.9.9,0,0,1-.53-.5c-.05-.14.15-.42.3-.57.53-.48,1.1-.92,1.63-1.41a1.74,1.74,0,0,1,1.24-.47h7.55a11,11,0,0,0,1.15,0,1,1,0,0,0,1-1,1.08,1.08,0,0,0-.9-1.2,5.55,5.55,0,0,0-1.08-.08h-8.34c-2.83,0-5.66,0-8.49,0a4.91,4.91,0,0,0-.86.06A1.14,1.14,0,0,0,199.9,40c0,.57.38.93,1.12,1s1.63,0,2.44,0c.27,0,.53,0,.79,0s.59.09.61.39a.9.9,0,0,1-.29.6,23.82,23.82,0,0,1-4,2.92c-1.15.8-2.43,1.42-3.66,2.11-.2.12-.45.23-.4.53s.32.39.59.42h.22c1.24,0,2.49,0,3.74,0a2.41,2.41,0,0,0,1-.33c.56-.32,1.09-.69,1.62-1.06a2.46,2.46,0,0,1,1.56-.42c1.1,0,2.2.08,3.31.1a1.91,1.91,0,0,1,2,2c0,1.24,0,2.49,0,3.73a2.82,2.82,0,0,1-.09.71.55.55,0,0,1-.65.43C208.9,53,207.94,53,207,53a1.5,1.5,0,0,0-1.15.49c-1,1-2.05,1.94-3.15,2.83s-2.1,1.58-3.18,2.32a9.09,9.09,0,0,1-2,1.18A6.23,6.23,0,0,0,195.61,61a2.36,2.36,0,0,0-.33.51,5,5,0,0,0,.6.32c.1,0,.24,0,.36,0,.74,0,1.48-.09,2.22-.07a2.82,2.82,0,0,0,2.4-.66S201,61,201,61c1-.65,2.13-1,2.9-1.94L204,59c.59-.48,1.22-.93,1.78-1.44,1.28-1.16,2.53-2.34,3.8-3.52a1.9,1.9,0,0,1,.21-.19c.25-.17.49-.13.6.14a2.73,2.73,0,0,1,.19.9c0,1.29,0,2.58,0,3.88a1.91,1.91,0,0,1-2.19,2.13c-.6,0-1.2-.06-1.8,0s-.89.47-.6,1A1.9,1.9,0,0,0,207.73,63c1,0,2-.1,3-.07a2.55,2.55,0,0,0,2.31-1.12A2.89,2.89,0,0,0,213.74,60Z"/><path d="M315.72,56.73a3.8,3.8,0,0,0-1-3,2.06,2.06,0,0,0-1.64-.83c-1.66,0-3.31,0-5,0a4.78,4.78,0,0,1-1.07-.08,1.18,1.18,0,0,1-1-1.09,1.79,1.79,0,0,1,1.84-2.14c1.14.07,2.3,0,3.45,0a4.05,4.05,0,0,0,2.31-.61,2,2,0,0,0,1.11-1.85c0-.89,0-1.78,0-2.66A2.54,2.54,0,0,0,312,42c-.45,0-.91,0-1.36,0s-.73-.05-.79-.47.32-.46.59-.62a12.24,12.24,0,0,0,1.06-.71c.16-.11.3-.23.45-.35.61-.51,1.25-1,1.81-1.52.8-.79,1.55-1.64,2.31-2.46a3.07,3.07,0,0,0,.51-3.28.88.88,0,0,0-.3-.38,4.07,4.07,0,0,0-2-.75c-2.86,0-5.71-.06-8.56-.09a1,1,0,0,0-1,.5,1.21,1.21,0,0,0,1,1.89c.19,0,.39,0,.58,0a20.62,20.62,0,0,1,2.08,0,15.51,15.51,0,0,0,3.73,0,2.19,2.19,0,0,1,.57,0c.66.08,1,.6.55,1.13A10.29,10.29,0,0,1,311,37.22c-.62.43-.84.41-1.4-.09s-.87-.83-1.26-1.27c-1-1.11-2.23-.81-3.43-.71-.37,0-.48.37-.27.72a4.38,4.38,0,0,0,.73.88c.61.58,1.25,1.12,1.87,1.68a2.87,2.87,0,0,1,.45.47.64.64,0,0,1-.11,1,2.79,2.79,0,0,1-.42.28,18.39,18.39,0,0,0-1.61.95,7.73,7.73,0,0,1-2,1.12,2.46,2.46,0,0,0-1,.83.62.62,0,0,0,.28,1,3.18,3.18,0,0,0,1.11.17c.53,0,1.06,0,1.58,0,1.56,0,3.12,0,4.68,0a3.75,3.75,0,0,1,.58,0,1.71,1.71,0,0,1,1.29,1.95,1.33,1.33,0,0,1-1.42,1.07c-1.27,0-2.54,0-3.81,0a3.73,3.73,0,0,0-2.25.58,1.82,1.82,0,0,0-.92,1.29c-.17,1-.36,2.08-.54,3.12a1.92,1.92,0,0,0,.31,1.5,2.84,2.84,0,0,1,.33.56,1.13,1.13,0,0,0,1.16.66c.87,0,1.73,0,2.6,0,1.29,0,2.59,0,3.88,0,.81,0,1.26.39,1.3,1.15a33.09,33.09,0,0,1,0,3.45,1.18,1.18,0,0,1-1.09,1.15,6.52,6.52,0,0,1-1.08.06h-5.4a2.91,2.91,0,0,0-.78.07.54.54,0,0,0-.37.74,2.12,2.12,0,0,0,1.85,1.33h6c1.91,0,1.77.23,3.22-1.51a2.56,2.56,0,0,0,.63-1.78C315.7,58.65,315.68,57.69,315.72,56.73Z"/><path d="M280.4,46.15q0,6.43,0,12.86a5,5,0,0,0,.4,2.17A2.75,2.75,0,0,0,283.18,63l.72,0c3.84,0,7.68,0,11.51,0,.93,0,1.35-.39,1.64-1.38a.58.58,0,0,0-.42-.79,3.14,3.14,0,0,0-.92-.11c-.46,0-.91,0-1.37,0h-8.85a5.24,5.24,0,0,1-.79-.05,1.21,1.21,0,0,1-1.05-.95,3.53,3.53,0,0,1-.08-.86c0-.67,0-1.34,0-2,0-2.27,0-4.55,0-6.82,0-.93.36-1.29,1.31-1.31.34,0,.68,0,1,0a2.07,2.07,0,0,0,1.89-.83c.93-1.21,1.89-2.41,2.82-3.62a15.71,15.71,0,0,0,1-1.34c.6-1,1.17-1.91,1.74-2.88.44-.77.87-1.54,1.29-2.32.27-.48.55-.95.77-1.45a9.84,9.84,0,0,0,.47-1.42.53.53,0,0,0-.32-.65,3.48,3.48,0,0,0-2.32,0,.72.72,0,0,0-.31.29,6.12,6.12,0,0,0-1.1,1.84,2.87,2.87,0,0,1-.35.7c-.5.81-1,1.6-1.49,2.44a35,35,0,0,1-1.92,3c-.93,1.35-2,2.57-3,3.81a1.92,1.92,0,0,1-.46.44.62.62,0,0,1-1-.43,4.82,4.82,0,0,1,0-.93c0-.55.13-1.1.14-1.65,0-3.92,0-7.85,0-11.78,0-.59-.2-.94-.78-1a6.93,6.93,0,0,0-1.64-.06c-.71.06-1,.46-.93,1.18,0,.52.08,1,.08,1.58Q280.4,39.93,280.4,46.15Z"/><path d="M253.89,20.82a9.56,9.56,0,0,1-2.3,1.16.58.58,0,0,0-.26.13c-.28.22-.29.53,0,.69a2,2,0,0,0,.82.21c.67,0,1.34-.07,2-.06a1.81,1.81,0,0,0,1.55-.59,2.27,2.27,0,0,1,.59-.4c.47-.28.95-.56,1.43-.82a1.23,1.23,0,0,0,.75-1,.61.61,0,0,1,.68-.59h3.89a.78.78,0,0,1,.8.6,1.12,1.12,0,0,0,.33.54c.59.44,1.22.84,1.83,1.25.27.19.54.38.83.55a1.89,1.89,0,0,0,.73.4c1,.07,2,.1,3,.1.51,0,.84-.23.82-.53s-.39-.52-.71-.59a12.81,12.81,0,0,1-2.41-1.25.51.51,0,0,1-.26-.24,1.16,1.16,0,0,1-.23-.62c0-.12.32-.22.51-.29.53-.2,1.08-.36,1.61-.59a1.35,1.35,0,0,0,.83-1.24c0-.55.07-1.1.07-1.65q0-2.37,0-4.74a9.89,9.89,0,0,0-.13-1.72A1.69,1.69,0,0,0,269.05,8a16.61,16.61,0,0,0-1.87-.1c-2,0-3.93,0-5.9,0h0c-2,0-4.07,0-6.11,0-.77,0-1.53.08-2.3.12a1.11,1.11,0,0,0-.88.55,3.8,3.8,0,0,0-.67,2.29c0,1.44,0,2.88,0,4.31a13.9,13.9,0,0,0,0,1.58c.17,1.63.69,2.46,2.5,2.71.16,0,.33,0,.49.08.38.11.48.33.24.64A2.08,2.08,0,0,1,253.89,20.82Zm.47-11a3.54,3.54,0,0,1,.86-.09h12a2.5,2.5,0,0,1,1,.19.61.61,0,0,1,.31.49c0,.17-.19.37-.34.49a.84.84,0,0,1-.48.13c-.43,0-.86.07-1.29.07H255.11a4.72,4.72,0,0,1-.65,0,.6.6,0,0,1-.57-.55A.63.63,0,0,1,254.36,9.77Zm0,3.07a3.63,3.63,0,0,1,.57,0h12.29a4.17,4.17,0,0,1,.71,0,.7.7,0,0,1,.62.69.68.68,0,0,1-.54.67,1.93,1.93,0,0,1-.63.1l-11.49,0c-.34,0-.67,0-1,0a2,2,0,0,1-.69-.12.71.71,0,0,1-.41-.77A.68.68,0,0,1,254.35,12.84Zm.07,4.79a.89.89,0,0,1-.67-1c.05-.4.32-.63.82-.65s.91,0,1.37,0h5.17v0h5.83a5.23,5.23,0,0,1,.79,0,.72.72,0,0,1,.71.6.75.75,0,0,1-.54.83,3.29,3.29,0,0,1-1,.2c-.45,0-.91,0-1.36,0H255.2A3.38,3.38,0,0,1,254.42,17.63Z"/><path d="M188.1,49.94a5.56,5.56,0,0,1-2-.72.7.7,0,0,0-.34-.12,6.83,6.83,0,0,1-2.43-.84,5.44,5.44,0,0,0-.68-.23l-3.38-1.35s0,0-.06,0c-.38-.25-.48-.54-.2-.91a3.62,3.62,0,0,1,.9-.8,25.36,25.36,0,0,0,4.44-3.26,1.88,1.88,0,0,0-.58-3,4.37,4.37,0,0,0-1.41-.17c-2.49,0-5,0-7.48,0a.67.67,0,0,1-.72-.56c-.2-.68-.48-.87-1.2-.89s-1.2,0-1.8,0a2.26,2.26,0,0,0-1.62.63c-1.21,1-2.43,2.09-3.68,3.1a13.65,13.65,0,0,1-1.6,1.09c-.77.43-1.56.81-2.35,1.22l-.12.07c-.34.25-.33.63,0,.8a1.85,1.85,0,0,0,.7.13c1,0,2,0,2.95-.06a2.59,2.59,0,0,0,1.84-.67.91.91,0,0,1,1.31,0c.27.2.51.44.78.63l1.66,1.12a.84.84,0,0,1,0,1.52,4.62,4.62,0,0,1-.91.39c-.34.13-.67.25-1,.39L168,47.9c-.51.2-1,.38-1.54.57a3.75,3.75,0,0,1-1.06.41c-1.38.08-2.49,1-3.84,1.18-.14,0-.38.26-.36.35a.6.6,0,0,0,.36.45,4.43,4.43,0,0,0,1.21.09c1,0,1.95-.13,2.93-.19v0a17.94,17.94,0,0,0,1.94,0,3.43,3.43,0,0,0,1.34-.41,7.92,7.92,0,0,1,1.53-.59,12.35,12.35,0,0,0,2.78-1.22A3.75,3.75,0,0,1,176,48a1.76,1.76,0,0,1,.88.42,2.71,2.71,0,0,0,1.22.58,2.26,2.26,0,0,1,.89.41,2.4,2.4,0,0,0,1,.44,2,2,0,0,1,1,.34,2.89,2.89,0,0,0,2.14.64c1.32,0,2.63.09,4,.14a7.22,7.22,0,0,0,.93,0c.49-.05.79-.25.77-.5C188.75,50,188.39,50,188.1,49.94ZM178,42.76a11.73,11.73,0,0,0-1.12.77,2.37,2.37,0,0,1-3.21,0,8.61,8.61,0,0,0-1.15-.86,10.09,10.09,0,0,0-1.54-.56,4.48,4.48,0,0,0-.64-.09c-.28,0-.51-.17-.54-.49a.54.54,0,0,1,.51-.59c.47-.08.95-.11,1.43-.16v.07c1.49,0,3,.07,4.45.07.67,0,1.34-.08,2-.12a4.17,4.17,0,0,1,1,0,.84.84,0,0,1,.52.4c.13.27-.06.52-.29.67C179,42.21,178.5,42.47,178,42.76Z"/><path d="M194.33,21.65c.77-.51,1.54-1,2.27-1.62,1-.77,1.9-1.6,2.85-2.4.17-.14.3-.32.47-.44a.52.52,0,0,1,.87.25,1.69,1.69,0,0,1,.09.63c0,.58,0,1.15,0,1.72,0,.92-.29,1.22-1.19,1.21a9.93,9.93,0,0,0-1.22,0,.62.62,0,0,0-.58.91,1.26,1.26,0,0,0,.87.89,5,5,0,0,0,3-.1A2.19,2.19,0,0,0,203.09,21a7.33,7.33,0,0,0,.07-1.15c0-2.32,0-4.64-.06-7,0-.23,0-.5.28-.64.08,0,.22.08.27.16.41.7.84,1.39,1.2,2.12.45.92.79,1.9,1.27,2.8.56,1.06,1.2,2.07,1.84,3.08s1.44,1.8,2.8,1.55c0,0,.05,0,.07,0,.23-.1.54-.14.68-.31s0-.55-.17-.78c-.4-.5-.83-1-1.22-1.5s-.92-1.28-1.35-1.94c-.26-.4-.46-.83-.73-1.23a1.47,1.47,0,0,1-.07-1.74c.38-.55.81-1.07,1.19-1.62s.91-1.39,1.36-2.1a.72.72,0,0,0,.1-.27.87.87,0,0,0-1.14-1.07,2.26,2.26,0,0,0-1.75,1.44,1.52,1.52,0,0,1-.24.43c-.51.7-1,.72-1.56.08l-.09-.11c-.72-.8-1.2-.85-2-.21l-.6.4a4,4,0,0,1-.32-.57,1.44,1.44,0,0,0-1.19-.93l-.85-.1a3.4,3.4,0,0,1-.71-.12c-.44-.16-.53-.46-.25-.84A2,2,0,0,1,201.27,8a6.13,6.13,0,0,1,.86,0h4.68c.39,0,.72-.11.85-.52a1,1,0,0,0-.27-1,1.11,1.11,0,0,0-.93-.3l-11.22,0a2.25,2.25,0,0,0-.64,0,.91.91,0,0,0-.71,1,.81.81,0,0,0,.89.75c.31,0,.62,0,.93,0a2.19,2.19,0,0,1,.63.1.45.45,0,0,1,.17.8,2.77,2.77,0,0,1-.52.38c-.63.39-1.26.78-1.9,1.16a6.37,6.37,0,0,1-1,.6,3.13,3.13,0,0,0-1.53,1.59,7.35,7.35,0,0,0,.84.09l1.73-.11a2.92,2.92,0,0,0,1.56-.48,1.89,1.89,0,0,1,.65-.28c.31-.07.72-.24.91.14s-.14.59-.38.78a16.43,16.43,0,0,1-2,1.53A12.62,12.62,0,0,1,191.5,16a.07.07,0,0,0-.06,0c-.12.16-.34.33-.33.48s.23.34.39.45a.91.91,0,0,0,.49.11c.86,0,1.72-.07,2.58-.16a1.67,1.67,0,0,0,.76-.36c.91-.7,1.78-1.45,2.7-2.13a2.71,2.71,0,0,0,1.32-2.11.61.61,0,0,1,.51-.62.7.7,0,0,1,.75.32,1.27,1.27,0,0,1,.26.64c0,.82,0,1.63-.08,2.44a.83.83,0,0,1-.88.78,8.19,8.19,0,0,1-.86,0,2.57,2.57,0,0,0-1.86.79c-1,.89-2.06,1.71-3.12,2.52a15.6,15.6,0,0,1-1.49.86c-.48.3-.94.65-1.43.95-.2.13-.45.23-.42.52s.3.41.57.45a1.45,1.45,0,0,0,.36,0c.65,0,1.3,0,1.94-.09A1.54,1.54,0,0,0,194.33,21.65Z"/><path d="M166,52.11a3.27,3.27,0,0,0-2.62,1.08,1.72,1.72,0,0,0-.54,1.21v5.75a1.85,1.85,0,0,0,.67,1.46c.18.15.36.31.53.48a2.53,2.53,0,0,0,1.94.76c6.19,0,12.38,0,18.57,0a2,2,0,0,0,.84-.12,3.41,3.41,0,0,0,2.31-3.51,20.21,20.21,0,0,1,0-3.73,3.21,3.21,0,0,0-3.13-3.38c-3.14.06-6.28,0-9.42,0h0C172.05,52.12,169,52.15,166,52.11Zm9,2.52h7.4c.22,0,.44,0,.65,0,1.1,0,1.54.56,1.49,1.65,0,.74,0,1.49,0,2.23a1.58,1.58,0,0,1-1.65,1.88c-.43,0-.86,0-1.29,0l-13.23,0a10.8,10.8,0,0,1-1.5-.1,1,1,0,0,1-1-1.09c0-1.07-.09-2.15-.1-3.22s.32-1.33,1.33-1.33h7.91Z"/><path d="M330.7,47.2c-.34,0-.67,0-1,0a1,1,0,0,1-1-1,2.09,2.09,0,0,1,0-.5,4.07,4.07,0,0,0-.22-1.69c-.22-.64,0-1,.65-1.07a9.55,9.55,0,0,1,1.07,0,5.37,5.37,0,0,0,1.14-.09c.44-.13.46-.55.09-.82a2,2,0,0,0-.25-.13,14.87,14.87,0,0,1-3.1-1.93c-.62-.54-.7-.92-.19-1.58.12-.15.26-.28.39-.42.7-.76,1.41-1.5,2.09-2.28a2.2,2.2,0,0,0,.44-.81.58.58,0,0,0-.38-.75,2.53,2.53,0,0,0-2.64.73A25.22,25.22,0,0,1,326,37c-.65.67-.92.66-1.67.11a1,1,0,0,1-.17-1.7c.73-.82,1.46-1.64,2.18-2.48a1.76,1.76,0,0,0,.38-.68.69.69,0,0,0-.66-1,2.25,2.25,0,0,0-2.25,1c-.3.46-.63.89-1,1.33s-.83.57-1.31,0a7.09,7.09,0,0,1-.71-1.07,1.93,1.93,0,0,1-.15-.4A1.43,1.43,0,0,0,319,31c-.38,0-.77,0-1.15,0-.68,0-.88.44-.54,1,.48.8,1,1.59,1.42,2.41A20.06,20.06,0,0,0,323.44,40a12.53,12.53,0,0,0,1.35.94c.23.16.42.33.37.64a.61.61,0,0,1-.57.48,5,5,0,0,1-.78,0c-.41,0-.82,0-1.22-.08v0h-1.51a2.59,2.59,0,0,0-2.42,1.82c-.16.5-.27,1-.38,1.53A5.66,5.66,0,0,1,317,48.61l0,.06c-.35.58-.17,1,.49,1.06a9.52,9.52,0,0,0,1.51,0,.67.67,0,0,0,.46-.17,3.65,3.65,0,0,0,1.37-2c.07-.57.18-1.14.28-1.7A1.85,1.85,0,0,1,323,44.18c.48,0,1,0,1.44,0a1.29,1.29,0,0,1,1.37,1.27,6.91,6.91,0,0,1,0,.79v1.07a1.74,1.74,0,0,0,.73,1.41c1.36,1.12,2.94.75,4.48.7a.39.39,0,0,0,.14,0,1.72,1.72,0,0,0,.78-1.65C331.8,47.34,331.46,47.19,330.7,47.2Z"/><path d="M210.59,31a18.06,18.06,0,0,0-2.44,0c-.45,0-.6.34-.48.78a4.16,4.16,0,0,0,.27.66c.36.82.16,1.21-.72,1.22-2.63,0-5.27,0-7.91.06a15.81,15.81,0,0,0-2.28.18,2.7,2.7,0,0,0-2.18,2.57c0,1.15,0,2.3,0,3.45a3.07,3.07,0,0,0,.12.91,1.13,1.13,0,0,0,.45.62,2.47,2.47,0,0,0,2.09.06,1.36,1.36,0,0,0,.58-.76,4.36,4.36,0,0,0,.09-1.2c0-.67-.06-1.35,0-2,.11-1.21.62-1.63,1.83-1.63h10.28v0h3.1c2.37,0,4.74,0,7.12,0,1.32,0,2,.51,2,1.84,0,.55,0,1.1,0,1.65a7.6,7.6,0,0,0,.1,1.35,1,1,0,0,0,1,.86,11.1,11.1,0,0,0,1.29,0,.89.89,0,0,0,.87-.74,3.36,3.36,0,0,0,.08-.71c0-1.29,0-2.58-.07-3.87a1.66,1.66,0,0,0-.19-.83,2.86,2.86,0,0,0-2.39-1.7c-.29,0-.58,0-.86,0-.77,0-1.54.07-2.3.08-2,0-4,0-6,0a2.94,2.94,0,0,1-1.21-.37A2.58,2.58,0,0,1,211.57,32C211.39,31.51,211.12,31.05,210.59,31Z"/><path d="M233.14,21.93c.34.12.66.27,1,.41a4.45,4.45,0,0,0,1.24.49c1.29.12,2.59.14,3.88.17a1.4,1.4,0,0,0,.69-.16.63.63,0,0,0,.31-.42c0-.1-.18-.26-.32-.33a2.41,2.41,0,0,0-.48-.12L238,21.52c-.55-.17-1.1-.34-1.63-.55a9.15,9.15,0,0,1-1.6-.79c-.55-.37-.51-.85.06-1.19a10.28,10.28,0,0,0,2.91-2.74,1.76,1.76,0,0,1,1.19-.74c.45,0,.9,0,1.36,0a5.7,5.7,0,0,0,.71,0,.93.93,0,0,0,.84-1,.91.91,0,0,0-.86-1,3.72,3.72,0,0,0-.58,0l-8,0h-.28c-.53-.06-.62-.18-.56-.69a3.15,3.15,0,0,0,0-.43.74.74,0,0,0-.5-.72,2.56,2.56,0,0,0-2.26.53l-1,1a1.91,1.91,0,0,1-1.52.5c-1.51-.07-3-.11-4.53-.15a3.55,3.55,0,0,0-.92.09.87.87,0,0,0,0,1.73,7.08,7.08,0,0,0,1.22.08c.76,0,1.53-.06,2.3,0,.49,0,.64.25.47.71a5.76,5.76,0,0,1-.46.89.82.82,0,0,0,.08,1,1.89,1.89,0,0,0,1.42.87,2.71,2.71,0,0,1,1.69.88c.37.36.29.75-.19,1a2.14,2.14,0,0,1-.69.18,3.82,3.82,0,0,0-1.64.5,2.48,2.48,0,0,1-.81.26c-.45.09-.91.12-1.35.2a1.23,1.23,0,0,0-1.07.56,1.41,1.41,0,0,0,1,.41,21.35,21.35,0,0,0,4.59,0,.92.92,0,0,0,.48-.12,5.3,5.3,0,0,1,2.18-.87,2.27,2.27,0,0,0,.63-.34,1,1,0,0,1,1-.07C232.19,21.63,232.67,21.76,233.14,21.93Zm-2.51-3.26a7.93,7.93,0,0,0-1.89-.83,1.77,1.77,0,0,1-.66-.42.85.85,0,0,1,0-1.27A2.63,2.63,0,0,1,230,15.4c.64,0,1.29,0,1.93,0h2.16c.74,0,1,.38.55,1a3,3,0,0,1-.71.7c-.71.52-1.44,1-2.17,1.51A1,1,0,0,1,230.63,18.67Z"/><path d="M433.52,60.57c-.55,0-1.1.1-1.65.1h-7.7c-.5,0-1,0-1.51,0a1.93,1.93,0,0,1-2-2.33c0-.52.1-1,.1-1.57q0-9.31,0-18.61a2.07,2.07,0,0,0,0-.5A.7.7,0,0,0,420,37c-.52,0-1,0-1.58,0a.67.67,0,0,0-.67.63,4.07,4.07,0,0,0,0,.5V48.88h0c0,3.43,0,6.85,0,10.27,0,1.85,0,1.84,1.34,3.14a2,2,0,0,0,1.47.62c4.17,0,8.35,0,12.52,0a1.46,1.46,0,0,0,1.39-1C434.92,61.11,434.47,60.49,433.52,60.57Z"/><path d="M276.43,31c-.62-.05-1.25,0-1.87,0a.91.91,0,0,0-.81.52c-.6,1.08-1.27,2.14-1.79,3.26a34.67,34.67,0,0,1-2.46,4.05c-.34.51-.77,1-1.15,1.46s-.82,1-1.21,1.51a.67.67,0,0,0,.63,1.15c.34,0,.67-.1,1-.11a.88.88,0,0,1,1,.87,3.09,3.09,0,0,1,0,.43c0,3,0,5.89,0,8.84h-.05v9.13c0,.64.28.89.94.94a8.17,8.17,0,0,0,.86,0c1,0,1.23-.28,1.23-1.26,0-1.53,0-3.06,0-4.6,0-4.69,0-9.39,0-14.08a1.32,1.32,0,0,0-.65-1.26c-.61-.38-.65-.69-.26-1.31a.71.71,0,0,1,.12-.18,26.3,26.3,0,0,0,2.51-3.83c.88-1.46,1.65-3,2.46-4.46C277.33,31.37,277.17,31,276.43,31Z"/><path d="M189.58,34.39a1,1,0,0,0-.44-.35,4.06,4.06,0,0,0-1.93-.48c-1,0-1.92.09-2.88.1-1.75,0-3.5,0-5.25,0a2.12,2.12,0,0,1-2.44-1.74,1.25,1.25,0,0,0-1.11-1,13.33,13.33,0,0,0-1.79-.09c-.66,0-.92.47-.66,1.09.1.22.26.41.35.63a.71.71,0,0,1-.58,1.06,2.78,2.78,0,0,1-.5,0l-4,0h-4a10.13,10.13,0,0,0-1.23,0,3.68,3.68,0,0,0-2.25.8,3,3,0,0,0-1,2.71,5.63,5.63,0,0,1,0,.58c0,.24,0,.48,0,.72s0,.48,0,.71c.05.55.25.8.77.89a7,7,0,0,0,1.29.12.84.84,0,0,0,.91-.75,4.19,4.19,0,0,0,0-.79c0-.53,0-1,0-1.58s.2-.84.84-.94a4.41,4.41,0,0,1,.72-.08c2.32-.07,4.64-.15,7-.17,1.29,0,2.58.15,3.87.15,3.62,0,7.24-.05,10.87-.08a.92.92,0,0,1,1,.71,2.68,2.68,0,0,1,.13.84c0,.41-.06.81-.1,1.22A1.11,1.11,0,0,0,188,40a2.64,2.64,0,0,0,1.62,0,1.08,1.08,0,0,0,.9-1.27c0-.67-.1-1.34-.08-2A4.4,4.4,0,0,0,189.58,34.39Z"/><path d="M300.66,12.42a6.18,6.18,0,0,0-.06-4.36,2.37,2.37,0,0,0-.62-.77A1.28,1.28,0,0,0,299,7c-1.54,0-3.07.09-4.6.08-3.65,0-7.29-.07-10.94-.11a1.47,1.47,0,0,0-1.38.75,2.79,2.79,0,0,0-.43,1.13,19.79,19.79,0,0,0,0,3.08,2,2,0,0,0,2.15,1.8h14.9A2,2,0,0,0,300.66,12.42Zm-14.73-.72a1.93,1.93,0,0,1-1.59.18.8.8,0,0,1-.64-.77c0-.24,0-.48,0-.71h0a6.91,6.91,0,0,1,0-.79.86.86,0,0,1,.78-.88,1,1,0,0,1,1.17.62,17,17,0,0,1,.54,1.85A.64.64,0,0,1,285.93,11.7Zm4.14-.53a.76.76,0,0,1-.59.72.74.74,0,0,1-.83-.43c-.3-.51-.59-1-.87-1.56A.85.85,0,0,1,287.7,9c.21-.33.56-.32.91-.29,1,.08,1.29.4,1.41,1.37,0,.24.05.48.07.72S290.09,11.05,290.07,11.17Zm4.83-1.63a2.66,2.66,0,0,1-.28.65c-.21.37-.45.73-.65,1.11s-.63.7-1,.58-.61-.51-.6-1.13c0-.19.09-.47.13-.75.13-.93.62-1.31,1.82-1.29A.6.6,0,0,1,294.9,9.54Zm3.94.83c0,.21,0,.43,0,.64,0,.53-.23.79-.65.91a1.44,1.44,0,0,1-1.52-.35.94.94,0,0,1-.11-.6,10.08,10.08,0,0,1,.26-1.33,1,1,0,0,1,1.1-.9c.59,0,.91.43.94,1.13,0,.16,0,.33,0,.5Z"/><path d="M330.59,61.72c-1.19-.66-2.39-1.3-3.56-2a1,1,0,0,1-.14-1.54c.1-.1.21-.19.32-.28a24.42,24.42,0,0,0,3.22-3.37,2.27,2.27,0,0,0,.54-2,1.89,1.89,0,0,0-2-1.47c-1.77,0-3.55,0-5.32,0h-5.1a3.54,3.54,0,0,0-.86.09.9.9,0,0,0-.81.94,1,1,0,0,0,.79,1.13,6.71,6.71,0,0,0,1.35.11l3.74,0h2.65a9.75,9.75,0,0,1,1.08,0c.49,0,.73.31.58.77a2.88,2.88,0,0,1-.6,1c-.48.5-1,.94-1.52,1.43a1.23,1.23,0,0,1-2,0c-.42-.4-.82-.82-1.26-1.18a1.47,1.47,0,0,0-.75-.34,13.49,13.49,0,0,0-2,0,.77.77,0,0,0-.59.3.74.74,0,0,0,.2.61,28.92,28.92,0,0,0,2.16,2c.85.69.84,1.43-.11,2-.71.4-1.42.8-2.12,1.21s-1.11.65-1.65,1c-.37.24-.35.6.06.76a1.81,1.81,0,0,0,.77.12c.93,0,1.87,0,2.8-.08a1.58,1.58,0,0,0,.81-.22c.67-.45,1.31-1,1.95-1.45a1.06,1.06,0,0,1,1.45,0c.56.44,1.12.89,1.67,1.36a1.48,1.48,0,0,0,1,.36c1.06,0,2.11.06,3.16.07a1.71,1.71,0,0,0,.64-.08c.48-.18.53-.57.12-.86A5.12,5.12,0,0,0,330.59,61.72Z"/><path d="M298.2,15.07a12.22,12.22,0,0,0-1.72-.12H286.2a16.71,16.71,0,0,0-1.87.08,1.55,1.55,0,0,0-1.62,1.66c-.07,1.33,0,2.67-.06,4a2.43,2.43,0,0,0,2.4,2.26c2-.09,4.08,0,6.12,0h6.11a2.36,2.36,0,0,0,2.54-2.5c0-1,0-2.06,0-3.09a4.15,4.15,0,0,0-.09-.78A1.69,1.69,0,0,0,298.2,15.07Zm-1.59,6c-.22,0-.44,0-.65,0h-9.34a5.44,5.44,0,0,1-1-.08c-.49-.1-.76-.42-.71-.77s.31-.5.83-.5c1.84,0,3.69,0,5.53,0v0h5.24c.66,0,1,.22,1,.66S297.22,21,296.61,21.06ZM297,18a6.33,6.33,0,0,1-.86.06h-9.56a7.22,7.22,0,0,1-1.14-.11.57.57,0,0,1-.52-.52.6.6,0,0,1,.45-.66,3.13,3.13,0,0,1,.91-.13c1.68,0,3.36,0,5,0h4.88a3.52,3.52,0,0,1,.92.13.64.64,0,0,1,.47.72A.61.61,0,0,1,297,18Z"/><path d="M221.29,7h.29l4,.1c.26,0,.52,0,.79,0,.84,0,1.67-.06,2.51,0a.81.81,0,0,1,.89.76,3.42,3.42,0,0,1,0,.64c0,.58-.05,1.16,0,1.73a1.13,1.13,0,0,0,1.87.88,1.11,1.11,0,0,0,.53-1c0-.59-.11-1.19-.16-1.78s.06-.75.61-1a3.52,3.52,0,0,1,1.7-.2c.3,0,.62.06.93.06L240,7c.29,0,.58,0,.86,0,.54,0,.81-.25.88-.68a.92.92,0,0,0-.62-1.08,3.14,3.14,0,0,0-.92-.12c-1.46,0-2.93,0-4.39,0-.77,0-1.54,0-2.3,0a2.14,2.14,0,0,1-1-.28.58.58,0,0,1,0-1,2,2,0,0,1,.86-.35c1.78-.17,3.57-.35,5.37-.45.89,0,1.27-.37,1.19-1.27a5.77,5.77,0,0,0-.12-.6,3.39,3.39,0,0,0-.43-.07c-1.44,0-2.88.05-4.32.09a1.65,1.65,0,0,0-.47.13,6.89,6.89,0,0,1-.94.31,42.53,42.53,0,0,1-6.67.41h-3.67a2.86,2.86,0,0,0-.58.06.76.76,0,0,0-.67.73.79.79,0,0,0,.53.91,2.7,2.7,0,0,0,.85.13l5.32-.13a2.06,2.06,0,0,1,.43,0,.76.76,0,0,1,.62.77.71.71,0,0,1-.6.71,3.43,3.43,0,0,1-.64,0c-.94,0-1.87,0-2.81,0l-3.88-.08a2.09,2.09,0,0,0-.71.06,1.13,1.13,0,0,0-.78,1.09C220.35,6.7,220.67,6.93,221.29,7Z"/><path d="M225.44,59.82c-.62-.79-1.3-1.53-1.9-2.34-.47-.63-.87-1.31-1.28-2s-1-1.64-1.44-2.48a3.92,3.92,0,0,1-.31-1,1.52,1.52,0,0,1,.27-1.3c.44-.59.9-1.17,1.32-1.78.88-1.28,1.74-2.57,2.61-3.86a1.23,1.23,0,0,0,.12-.26c.29-.74,0-1.23-.81-1.28-.36,0-.72,0-1.08,0a1.49,1.49,0,0,0-1.36.66,10.71,10.71,0,0,0-.59.9c-.44.76-.85,1.54-1.3,2.31a.62.62,0,0,1-1.15,0,5.4,5.4,0,0,1-.46-1c-.56-1.25-.77-1.38-2.12-1.34-.85,0-1.19.37-1.07,1.22a7.42,7.42,0,0,0,.45,1.66c.45,1.16.91,2.31,1.4,3.45s.88,2,1.39,3c.6,1.12,1.25,2.21,1.92,3.28s1.27,1.91,1.93,2.85a2.23,2.23,0,0,0,.58.52,3.17,3.17,0,0,0,2.08.42c.36,0,.72,0,1.07,0s.62-.28.42-.68A5.51,5.51,0,0,0,225.44,59.82Z"/><path d="M252.93,6.13a2.4,2.4,0,0,0,1.5.38h13a5.53,5.53,0,0,0,1.27-.21A1.4,1.4,0,0,0,269.86,5a20.55,20.55,0,0,0,0-2.22,2.56,2.56,0,0,0-.95-1.56c-.21-.21-.72-.13-1.09-.18H254.17c-.31,0-.62,0-.83,0-.35.42-.63.78-.94,1.1a1.61,1.61,0,0,0-.46,1.09c0,.31,0,.63,0,.93A2,2,0,0,0,252.93,6.13Zm1.59-2.44A.9.9,0,0,1,255.3,3a4.56,4.56,0,0,1,.64,0h10.27a4.35,4.35,0,0,1,.72,0,.83.83,0,0,1,.76.74.9.9,0,0,1-.57,1,3,3,0,0,1-1,.15h-8.33c-.58,0-1.15,0-1.72,0a3.13,3.13,0,0,1-1-.18A.88.88,0,0,1,254.52,3.69Z"/><path d="M192.7,7.13c0-.36,0-.72,0-1.08,0-1,.33-1.31,1.35-1.31h11.09c.81,0,1.63,0,2.44,0a1.15,1.15,0,0,1,1.36,1.22c0,.23,0,.47,0,.71a2,2,0,0,0,0,.78,1.29,1.29,0,0,0,.5.73c.62.34,1.89-.09,1.88-1.05A13.11,13.11,0,0,0,211.22,5a5.76,5.76,0,0,0-.55-1.46,1,1,0,0,0-.8-.55,11.2,11.2,0,0,0-1.29-.1c-1.58,0-3.17,0-4.75,0a2,2,0,0,1-2.21-1.57,1.71,1.71,0,0,0-.14-.26H199c0,.33,0,.57,0,.8.1.76,0,.93-.79,1h-.5c-1.23,0-2.45,0-3.67,0-.67,0-1.35,0-2,.07a1.23,1.23,0,0,0-1.11.77,7.65,7.65,0,0,0-.52,3.44c0,.63.76,1.21,1.41,1.19S192.66,7.93,192.7,7.13Z"/><path d="M414.27,41c-1-.22-2,.09-2.16,1.35-.11,1-.24,2-.26,2.93a26.73,26.73,0,0,1-.64,5.27c-.18.79-.22,1.61-.36,2.41s-.31,1.55-.48,2.31-.32,1.26-.49,1.88-.35,1.19-.52,1.78a6.36,6.36,0,0,0-.22.83.64.64,0,0,0,.47.72,2.1,2.1,0,0,0,3-1.52,2.67,2.67,0,0,0,.1-.64,7,7,0,0,1,.6-2.28,3.52,3.52,0,0,0,.3-1.24,26.66,26.66,0,0,1,.73-4.61,13.91,13.91,0,0,0,.42-3.41c0-.76,0-1.53.08-2.29s.15-1.43.22-2.08C415.07,41.55,414.88,41.17,414.27,41Z"/><path d="M281.52,6.14a1.28,1.28,0,0,0,.43.06,4.35,4.35,0,0,0,3.14-1.15,2,2,0,0,1,1.41-.77c.08.23.14.41.19.59.21.83.4,1,1.25,1h6.69a2.83,2.83,0,0,0,.58,0c.48-.1.66-.39.64-1s-.16-.67-.7-.73-.82,0-1.22,0h-5.48A10.07,10.07,0,0,1,287.23,4c-.44-.06-.59-.37-.3-.71a1.55,1.55,0,0,1,.76-.47,6.2,6.2,0,0,1,1.43-.15c1.65,0,3.31,0,5,0a2.41,2.41,0,0,1,.85.07c.3.11.71.28.8.52a2.61,2.61,0,0,0,1.36,1.39,4.35,4.35,0,0,1,.67.55,4,4,0,0,0,3.12,1,.57.57,0,0,0,.43-1,3.72,3.72,0,0,0-.85-.66,16,16,0,0,1-3.54-3.23.83.83,0,0,0-.4-.24,4.19,4.19,0,0,0-.79,0c-2.9,0-5.81,0-8.71,0a5.78,5.78,0,0,0-.72,0c-.11,0-.28.06-.31.13-.22.64-.82.93-1.25,1.37a11.54,11.54,0,0,1-3.05,2.37,1.19,1.19,0,0,0-.45.35A.55.55,0,0,0,281.52,6.14Z"/><path d="M439.47,59.31a2,2,0,0,0-.24-.53,4.33,4.33,0,0,1-.59-1.68,10.1,10.1,0,0,0-.41-1.81,14.89,14.89,0,0,1-.64-3.16,15.7,15.7,0,0,0-.36-2.05,13.18,13.18,0,0,1-.48-4.19c-.1-1.1-.22-2.19-.28-3.29s-.89-1.71-2-1.61a.81.81,0,0,0-.82.76,6.2,6.2,0,0,0,0,1.14c.05.89.16,1.77.14,2.65a16.34,16.34,0,0,0,.31,3.5c.18.92.41,1.83.56,2.75s.12,1.63.28,2.42c.35,1.64.73,3.27,1.19,4.88a2,2,0,0,0,2.37,1.58C439.35,60.6,439.69,60.13,439.47,59.31Z"/><path d="M264.63,74.06a1.48,1.48,0,0,0-1.82.38,4.28,4.28,0,0,0-1.07,1.45.46.46,0,0,1-.35.28c-.11,0-.24-.21-.29-.37s-.07-.47-.13-.69a5.52,5.52,0,0,0-.38-1.19,3.28,3.28,0,0,0-3.44-2c-.87.1-1.26.62-1.28,1.71,0,.79,0,1.58,0,2.37h0c0,.84,0,1.68,0,2.52s.34,1.27,1,1.36a7,7,0,0,0,.79,0,3.13,3.13,0,0,0,2.84-2c.16-.29.26-.7.6-.67s.37.44.5.72c.54,1.21,1.24,2.13,2.47,2,.2,0,.42,0,.62,0a1.8,1.8,0,0,0,.5-.15.43.43,0,0,0,.28-.53.57.57,0,0,0-.39-.32c-.34-.07-.69,0-1-.12a2.35,2.35,0,0,1-.85-.36,1.27,1.27,0,0,1-.3-1.34c.15-.42.37-.47.86-.35a13,13,0,0,0,1.64.26.71.71,0,0,0,.77-.48,1.24,1.24,0,0,0-.11-1.08A3.12,3.12,0,0,0,264.63,74.06Zm-5.43,3.82a7.39,7.39,0,0,1-.81.78c-.66.47-1.29,0-1.3-1,0-.57,0-1.14.06-1.72h0c0-.48,0-.95,0-1.43a4.72,4.72,0,0,1,.07-.85c.13-.57.51-.83.94-.59a9.67,9.67,0,0,1,1.16.89,1.14,1.14,0,0,1,.23.32C259.9,75,259.9,77.2,259.2,77.88ZM264,76.22a.71.71,0,0,1-.74-.68c0-.4.28-.65.75-.64a.52.52,0,0,1,.59.57C264.65,75.91,264.4,76.22,264,76.22Z"/><path d="M423.79,34.7a20.19,20.19,0,0,0,.7,2.78c.42,1.49.89,3,1.26,4.48s1.09,3.11,1.52,4.69a4.73,4.73,0,0,0,.2.47,1.31,1.31,0,0,0,1.33.9h1a.83.83,0,0,0,.79-1.28,6.26,6.26,0,0,0-.34-.55,4.76,4.76,0,0,1-.51-1.1,8,8,0,0,0-.78-2.22,2.13,2.13,0,0,1-.24-.75,7,7,0,0,0-.7-2.32,2.63,2.63,0,0,1-.21-.69,11.05,11.05,0,0,0-.32-1.62,20,20,0,0,1-1-4.31,1.18,1.18,0,0,0-.9-1,3.85,3.85,0,0,0-1.26-.14c-.81.08-1.07.51-.88,1.3A14.13,14.13,0,0,1,423.79,34.7Z"/><path d="M195.72,54.47c.1.33.43.32.72.33a1.41,1.41,0,0,0,.29,0l2.86-.12a5,5,0,0,0,2.64-1,13.36,13.36,0,0,0,1.4-1.11l4.23-3.55c.23-.18.47-.38.35-.72a.65.65,0,0,0-.7-.39c-.88,0-1.77,0-2.65,0a1.5,1.5,0,0,0-.82.37c-.43.34-.78.79-1.21,1.12-1.05.82-2.1,1.66-3.23,2.38a26.5,26.5,0,0,0-3.45,2C196,54.05,195.63,54.14,195.72,54.47Z"/><path d="M294.73,74.33a.81.81,0,0,1-.87.08c-.2-.1-.38-.23-.57-.34a.85.85,0,0,0-1.13.13.64.64,0,0,1-.84.13c-.6-.24-.82,0-.83.75s0,1.3,0,1.94h0c0,.67,0,1.34,0,2,0,.46.16.73.39.77s.51-.22.59-.65a3.64,3.64,0,0,0,0-.57c0-.41,0-.82,0-1.22a4.67,4.67,0,0,1,.36-2c.12-.34.32-.45.59-.4a.93.93,0,0,1,.78.74,8.07,8.07,0,0,1,.23,1.39c0,.55,0,1.1,0,1.65a2,2,0,0,0,.19.81c.22.43.65.35.79-.15a2.72,2.72,0,0,0,.06-.7c0-.55,0-1.11,0-1.65a8,8,0,0,1,.19-1.48c.15-.68.61-.84,1.06-.41a2.12,2.12,0,0,1,.59,1.56c0,.58,0,1.15,0,1.73a4.17,4.17,0,0,0,.05.71c.08.41.33.65.61.63s.46-.26.49-.74.08-1.25.08-1.87a7.62,7.62,0,0,0-.13-1.35C297.1,74.19,295.9,73.53,294.73,74.33Z"/><path d="M354.41,72.22c-.29,0-.43.27-.49.6a3.62,3.62,0,0,0,0,.57c0,.24,0,.48,0,.72-.05.58-.33.94-.78.94a13.14,13.14,0,0,1-1.54-.12c-.42-.06-.64-.37-.68-.9,0-.26,0-.53,0-.79a1.88,1.88,0,0,0-.13-.69.52.52,0,0,0-.39-.3c-.14,0-.31.19-.38.35a2.32,2.32,0,0,0-.07.7c0,.89,0,1.77,0,2.66h0c0,.91,0,1.82,0,2.73a2.64,2.64,0,0,0,0,.63c.05.28.2.47.44.48s.41-.16.47-.44a4.69,4.69,0,0,0,.09-.84c0-.5,0-1,.05-1.5s.28-.86.79-.92c.32,0,.64,0,1-.11.65-.1,1,.21,1.12,1,.05.47,0,1,0,1.44a4.85,4.85,0,0,0,.05.85.53.53,0,0,0,.49.5c.26,0,.44-.18.51-.48a4.63,4.63,0,0,0,.1-.92c0-1.55,0-3.1,0-4.66a5.3,5.3,0,0,0-.14-1C354.85,72.4,354.68,72.2,354.41,72.22Z"/><path d="M196.46,72.24c-.13,0-.29.23-.35.4a2.75,2.75,0,0,0,0,.71c0,.24,0,.48,0,.71,0,.66-.34,1-.85,1a14.73,14.73,0,0,1-1.48-.11c-.4,0-.61-.31-.67-.82,0-.23,0-.47,0-.71a4.17,4.17,0,0,0-.06-.71c0-.29-.17-.56-.44-.56s-.38.24-.43.5a6.51,6.51,0,0,0-.09,1c0,.81,0,1.63,0,2.44h0c0,.86,0,1.72,0,2.58a3.45,3.45,0,0,0,0,.64c.06.3.2.53.47.52s.42-.24.46-.54,0-.62.06-.93a13.71,13.71,0,0,1,.08-1.43c.08-.6.29-.79.78-.83.32,0,.64,0,1-.09.67-.13,1,.15,1.11,1,0,.49,0,1,0,1.5a4.73,4.73,0,0,0,.06.85.5.5,0,0,0,.45.46c.24,0,.4-.17.48-.43a2.11,2.11,0,0,0,.09-.56c0-1.82,0-3.64,0-5.45a2.07,2.07,0,0,0-.22-.87A.53.53,0,0,0,196.46,72.24Z"/><path d="M177.63,74.26c-.22-.08-.43.08-.6.52s-.19.68-.33,1a3.15,3.15,0,0,1-.56.88c-.31.31-.57.16-.68-.32a5.56,5.56,0,0,0-.18-.83,2,2,0,0,0-.49-.74c-.33-.28-.62-.12-.78.34a6.43,6.43,0,0,0-.17.76c-.06.31-.14.62-.44.66a.68.68,0,0,1-.78-.46c-.13-.29-.18-.63-.29-.93a2.09,2.09,0,0,0-.34-.72.5.5,0,0,0-.52-.11c-.13.08-.2.35-.27.48s.05.34.08.45l.57,1.8c.18.58.36,1.16.53,1.74,0,.11.05.23.08.34.16.43.45.57.74.28a3.31,3.31,0,0,0,.54-.89,6.43,6.43,0,0,0,.22-.89c.11-.43.25-.54.6-.43a1.13,1.13,0,0,1,.78.84c.1.32.16.65.27,1,.23.63.7.71,1,.17a4.41,4.41,0,0,0,.31-.84c.22-.66.45-1.31.66-2a9.88,9.88,0,0,0,.3-1.22C178,74.63,177.87,74.35,177.63,74.26Z"/><path d="M382.28,75.6c0-.14-.13-.24-.18-.37-.15-.38-.3-.77-.44-1.16s-.22-.76-.38-1.11a.66.66,0,0,0-.68-.44c-.29.06-.35.38-.44.68s-.17.69-.29,1c-.41,1-.84,2.08-1.26,3.12-.21.51-.41,1-.57,1.56a1,1,0,0,0,0,.65.6.6,0,0,0,.54.25,1.16,1.16,0,0,0,.55-.45c.15-.2.23-.5.37-.72a1.32,1.32,0,0,1,.46-.5c1-.41,1.76,0,2.35,1.09a1.34,1.34,0,0,0,.32.48.59.59,0,0,0,.53,0c.12-.06.18-.32.24-.45a4.83,4.83,0,0,0-.1-.5Zm-1,1.17c-.07.29-.12.62-.41.7s-.52-.22-.66-.58a1.77,1.77,0,0,1,0-1.24c.15-.37.37-.45.65-.23a1.21,1.21,0,0,1,.45,1A2.32,2.32,0,0,1,381.27,76.77Z"/><path d="M211.4,77.57a1.6,1.6,0,0,1,0-2.1,3.87,3.87,0,0,0,.37-.8.56.56,0,0,0-.1-.44.37.37,0,0,0-.37,0,1.39,1.39,0,0,0-.36.33c-.21.25-.4.51-.6.77s-.45.46-.76.29-.31-.57-.29-.94.08-.85.11-1.17a6.07,6.07,0,0,0,0-.61c0-.47-.29-.76-.64-.76s-.57.28-.61.78c0,.17,0,.33,0,.5,0,.86,0,1.72,0,2.58,0,.34,0,.67,0,1a5.49,5.49,0,0,1-.07,2,.52.52,0,0,0,.29.67c.45.22.81,0,.9-.6.05-.26.06-.53.12-.77.21-.75.59-.87,1-.3.27.36.48.8.73,1.19a2.39,2.39,0,0,0,.48.6.41.41,0,0,0,.63-.08.65.65,0,0,0-.06-.77Z"/><path d="M369.31,77.61a1.68,1.68,0,0,1,0-2.23,2.08,2.08,0,0,0,.31-.59.85.85,0,0,0-.08-.57c-.06-.09-.29-.07-.41,0a1.52,1.52,0,0,0-.4.4,7.3,7.3,0,0,1-.69.85.66.66,0,0,1-.57.14c-.24,0-.3-.34-.3-.62a5.56,5.56,0,0,1,0-.71c0-.36.08-.72.11-1v-.36c0-.52-.29-.82-.66-.81s-.58.3-.61.85c0,.17,0,.33,0,.5,0,1.84.09,3.68-.05,5.52a.71.71,0,0,0,.19.53c.46.41,1,.1,1-.6,0-.1,0-.19,0-.29,0-.41.11-.85.45-1s.6.21.79.53.36.75.59,1.06a1.81,1.81,0,0,0,.67.6c.13.06.38-.08.48-.23a.79.79,0,0,0-.07-.57C369.87,78.51,369.58,78.07,369.31,77.61Z"/><path d="M206.71,77.83l-.4-.71a1.23,1.23,0,0,1,.05-1.43,3.81,3.81,0,0,0,.46-.9.87.87,0,0,0-.08-.57c-.05-.08-.3,0-.41,0s-.45.5-.69.75a2.87,2.87,0,0,1-.54.51c-.41.25-.71,0-.73-.58,0-.27,0-.53,0-.79a11.11,11.11,0,0,0,0-1.29.72.72,0,0,0-.63-.76c-.32,0-.52.26-.57.75a3.6,3.6,0,0,0,0,.57l.09,2.51h0c0,.89,0,1.77,0,2.66a3.44,3.44,0,0,0,0,.64c.06.3.19.53.47.53s.42-.2.49-.51,0-.47.09-.71c.07-.39.2-.74.53-.86s.53.2.71.47.41.69.62,1a2.59,2.59,0,0,0,.25.39.45.45,0,0,0,.72.09.62.62,0,0,0,0-.77C207.1,78.53,206.9,78.18,206.71,77.83Z"/><path d="M364.35,77.45a1.48,1.48,0,0,1,0-1.92,4.64,4.64,0,0,0,.33-.67c.09-.21.16-.5,0-.63a.48.48,0,0,0-.47.06,2.39,2.39,0,0,0-.43.46c-.2.23-.38.48-.58.68a.49.49,0,0,1-.64.11.72.72,0,0,1-.25-.68c0-.29.05-.57.06-.86a8.69,8.69,0,0,0,0-1.14c0-.47-.34-.78-.7-.75s-.52.27-.55.76a4.7,4.7,0,0,0,0,.65c0,1.43.08,2.86.11,4.3,0,.38,0,.76,0,1.14s.18.75.46.79.51-.23.59-.71a4.6,4.6,0,0,1,.14-.84c.22-.68.6-.78,1-.23s.58.94.87,1.41.64.56,1.14,0c-.05-.12-.07-.22-.11-.29Z"/><path d="M251.23,74.49a1.91,1.91,0,0,0-1.26-.57c-1-.1-1.49.9-2.2,1.43a.47.47,0,0,0-.08.19,13.38,13.38,0,0,0-.26,1.54,2.31,2.31,0,0,0,.49,1.7C249,80,248.62,80,250.15,80a3.82,3.82,0,0,0,.68,0,.65.65,0,0,0,.41-.21,1,1,0,0,0,.12-.57.52.52,0,0,0-.33-.32c-.14,0-.3,0-.45,0a3.49,3.49,0,0,1-.79,0,1.32,1.32,0,0,1-1-1.4c0-.48.2-.71.57-.67l1.35.19c.28,0,.6,0,.92,0a.7.7,0,0,0,.68-.55,1.09,1.09,0,0,0-.2-1C251.81,75.11,251.52,74.8,251.23,74.49Zm-1.31,1.7a.69.69,0,0,1-.66-.65.68.68,0,0,1,.67-.7.63.63,0,0,1,.61.68A.64.64,0,0,1,249.92,76.19Z"/><path d="M395.14,76.78a2.7,2.7,0,0,0-2.23-2.92,5.68,5.68,0,0,0-1,.34.59.59,0,0,0-.24.77c.14.29.34.22.55.14a2.29,2.29,0,0,1,.61-.16.42.42,0,0,1,.45.43.43.43,0,0,1-.31.52c-.59.11-1,.67-1.42,1a1.38,1.38,0,0,0-.59,1.43c.13.72.41,1.4,1,1.56a2.73,2.73,0,0,0,1.3-.06,1.31,1.31,0,0,1,1-.06.67.67,0,0,0,.34,0,.53.53,0,0,0,.5-.69A12.41,12.41,0,0,1,395.14,76.78Zm-1.44,1.8c-.13.45-.48.39-.87.39a1.64,1.64,0,0,1-.36-.06.6.6,0,0,1-.37-.57c-.05-.81.58-1.53,1.22-1.39a.54.54,0,0,1,.47.52A3.71,3.71,0,0,1,393.7,78.58Z"/><path d="M339.06,74.25a1.19,1.19,0,0,0-.47-.25,1.67,1.67,0,0,0-1.86.54c-.13.17-.32.26-.46.42a1.69,1.69,0,0,0-.42.57,4.71,4.71,0,0,0-.22,2.24,1.81,1.81,0,0,0,.72,1.31.35.35,0,0,1,.13.14,1.31,1.31,0,0,0,1.43.77c.27,0,.54,0,.8,0a1.29,1.29,0,0,0,.39-.08.51.51,0,0,0,.33-.59c0-.31-.19-.52-.45-.55a2,2,0,0,0-.34,0,4.53,4.53,0,0,1-.74.07c-.61,0-1-.53-1-1.29,0-.52.17-.72.6-.69l1,.06h1.2c.43,0,.61-.25.63-.79a1.19,1.19,0,0,0-.32-1C339.72,74.89,339.4,74.56,339.06,74.25Zm-1,2a.73.73,0,0,1-.65-.74.58.58,0,0,1,.59-.61.65.65,0,0,1,.65.63A.69.69,0,0,1,338.05,76.2Z"/><path d="M359.87,75.42A2.13,2.13,0,0,0,357.3,74a1.14,1.14,0,0,0-.59.48.92.92,0,0,0,0,.65c.09.23.29.17.46.07a2.82,2.82,0,0,1,.41-.23.51.51,0,0,1,.73.33c.08.28-.07.52-.46.67a4.34,4.34,0,0,0-1.6,1.34,1.2,1.2,0,0,0-.11,1.53,4.56,4.56,0,0,0,.37.65c.14.17.32.39.5.41a3.82,3.82,0,0,0,1.35,0,1.74,1.74,0,0,1,1.06-.07c.54.17.79-.15.73-.84s-.09-1.09-.13-1.63A3.49,3.49,0,0,0,359.87,75.42ZM357.92,79c-.54,0-.79-.27-.78-.76,0-.74.48-1.32,1-1.29s.73.4.71,1S358.55,79,357.92,79Z"/><path d="M374.82,77.57a10,10,0,0,1-.06-1.22A2.16,2.16,0,0,0,372.08,74a.81.81,0,0,0-.31.18.76.76,0,0,0-.15.89c.17.3.37.28.6.1a.86.86,0,0,1,.2-.13c.38-.19.7-.07.78.28a.6.6,0,0,1-.53.69c-.67.12-1.11.71-1.6,1.18a1.58,1.58,0,0,0-.23,1.58c.42.63.82,1.39,1.64,1.22a5.87,5.87,0,0,0,.84-.13,2.1,2.1,0,0,1,1.19-.07.48.48,0,0,0,.61-.25,1,1,0,0,0-.06-.81A7.71,7.71,0,0,1,374.82,77.57Zm-1.21.93a.62.62,0,0,1-.67.44c-.69,0-1-.49-.71-1.29a2.7,2.7,0,0,1,.14-.4c.28-.67.82-.73,1.17-.11A1.58,1.58,0,0,1,373.61,78.5Z"/><path d="M325.07,74.56a1.83,1.83,0,0,0-1.92-.57,4.84,4.84,0,0,0-1.69,1.62l0,.07a3.63,3.63,0,0,0,1.23,4.15,1,1,0,0,0,.44.13,5.3,5.3,0,0,0,.69,0h.62l.17,0a.63.63,0,0,0,.58-.71c-.05-.35-.26-.47-.68-.41a3.54,3.54,0,0,1-.91.08,1.26,1.26,0,0,1-1-1.19c-.09-.66.14-.92.66-.85s1.29.13,1.93.18a.79.79,0,0,0,.85-.58,1.17,1.17,0,0,0-.26-1.17C325.54,75,325.3,74.81,325.07,74.56Zm-1.4,1.63a.69.69,0,0,1-.64-.72.7.7,0,0,1,.72-.64.64.64,0,0,1,.57.65A.67.67,0,0,1,323.67,76.19Z"/><path d="M202.16,77.32h.05c0-.17,0-.34,0-.5.1-1.51-1.08-3.31-2.74-2.83a1.31,1.31,0,0,0-.59.38.71.71,0,0,0,0,.79c.17.26.36.17.56,0a1.27,1.27,0,0,1,.46-.24.43.43,0,0,1,.57.33.51.51,0,0,1-.33.65c-.61.12-1,.66-1.46,1.07a1.4,1.4,0,0,0-.28,2.05,2.93,2.93,0,0,0,.32.51c.15.16.34.35.53.36a5,5,0,0,0,1.4-.08,1.59,1.59,0,0,1,.89,0c.66.18.87-.11.77-1C202.23,78.32,202.2,77.82,202.16,77.32ZM200.28,79c-.07,0-.15,0-.33,0-.61,0-.84-.47-.54-1.3.16-.43.37-.78.79-.79s.73.35.76.93S200.77,78.91,200.28,79Z"/><path d="M302.09,74.58a1.71,1.71,0,0,0-2.69,0,.77.77,0,0,1-.18.18,2,2,0,0,0-.87,1.57c-.35,2,.68,3.67,2.28,3.69h.17a4.51,4.51,0,0,0,.52,0,1.71,1.71,0,0,0,.5-.1.56.56,0,0,0,.33-.66.45.45,0,0,0-.48-.4c-.13,0-.26.07-.39.08a4.61,4.61,0,0,1-.74,0,1.31,1.31,0,0,1-1-1.22c-.09-.61.14-.89.63-.83.67.09,1.33.14,2,.19a.73.73,0,0,0,.81-.53,1.25,1.25,0,0,0-.2-1.19A9.86,9.86,0,0,0,302.09,74.58Zm-1.43,1.61a.67.67,0,0,1-.61-.7.62.62,0,0,1,.68-.65.59.59,0,0,1,.58.63A.67.67,0,0,1,300.66,76.19Z"/><path d="M418.68,74.56a1.8,1.8,0,0,0-1.24-.64,2.22,2.22,0,0,0-1.79.91,2.3,2.3,0,0,0-.69,1.71c0,.29,0,.58,0,.86a3.52,3.52,0,0,0,1.29,2.4.84.84,0,0,0,.44.16c.2,0,.41,0,.56,0,.48,0,.93.07,1.26-.32a6.61,6.61,0,0,0,.94-1.42A3,3,0,0,0,419,75Zm-.54,3.86a1,1,0,0,1-.85.57,2.67,2.67,0,0,1-.67-.35,2.46,2.46,0,0,1-.38-2.58,5.3,5.3,0,0,1,.48-.8.67.67,0,0,1,1.16,0A3,3,0,0,1,418.14,78.42Z"/><path d="M276,75.36A2.88,2.88,0,0,0,274.46,74a2.79,2.79,0,0,0-2.73,1.71,1.89,1.89,0,0,0-.13.48,10.55,10.55,0,0,0-.12,1.13c0,1,1,2.54,1.84,2.65a5.14,5.14,0,0,0,.68,0V80c.34,0,.68-.06,1-.13a.43.43,0,0,0,.34-.49.85.85,0,0,0-.33-.51,1.55,1.55,0,0,0-.61-.06,5.45,5.45,0,0,1-.91,0c-.41-.09-.65-.57-.63-1.13a.7.7,0,0,1,.67-.78,2.69,2.69,0,0,1,1.58.14c.64.28,1.13-.28,1-1.13A1.26,1.26,0,0,0,276,75.36Zm-2,.86a.7.7,0,0,1-.68-.75.57.57,0,0,1,.57-.62.69.69,0,0,1,.11,1.37Z"/><path d="M216.93,77.64c0-.42,0-.86,0-1.29a2.28,2.28,0,0,0-1.32-2.26,1.66,1.66,0,0,0-1.56,0,.67.67,0,0,0-.31.81c.1.26.33.34.65.22a2.88,2.88,0,0,1,.49-.18.37.37,0,0,1,.45.33.53.53,0,0,1-.26.58c-.11.06-.26.05-.38.1a1.35,1.35,0,0,0-.47.22c-.33.29-.63.61-.94.93a1.64,1.64,0,0,0-.21,1.76c.44.69.95,1.26,1.74,1.06.21,0,.42-.06.63-.09l1-.16v0h.11c.69,0,.85-.25.59-1.08A4.91,4.91,0,0,1,216.93,77.64Zm-1.58,1.27a1,1,0,0,1-1-.37.62.62,0,0,1-.09-.32,2.46,2.46,0,0,1,.61-1.41c.22-.22.47-.13.68.07a1.28,1.28,0,0,1,.36,1A1.09,1.09,0,0,1,215.35,78.91Z"/><path d="M167.56,77c0-.22,0-.41,0-.6a1.85,1.85,0,0,0-.7-1.75,2.29,2.29,0,0,1-.23-.21,1.64,1.64,0,0,0-1.94-.33.55.55,0,0,0-.38.63c0,.29.23.41.59.37a1.82,1.82,0,0,1,.56-.09.56.56,0,0,1,.37.33c0,.15-.11.37-.2.52a.41.41,0,0,1-.26.13,1.45,1.45,0,0,0-.83.58,2.42,2.42,0,0,1-.42.37,1.41,1.41,0,0,0-.54,1.51A1.59,1.59,0,0,0,165,80a18.75,18.75,0,0,1,2.37-.17c.37,0,.54-.35.4-.8A4.34,4.34,0,0,1,167.56,77Zm-1.3,1.59a2.11,2.11,0,0,1-.68.4c-.33-.13-.67-.09-.81-.52s.08-.72.25-1a1,1,0,0,1,.12-.16c.37-.49.82-.6,1.09-.27A1.54,1.54,0,0,1,166.26,78.56Z"/><path d="M225,78.56a5.09,5.09,0,0,0-.54.22,1.49,1.49,0,0,1-1.74-.53c-1-1.19-1-3.92.43-4.89a1.22,1.22,0,0,1,1.19-.22,1.9,1.9,0,0,0,.5.15c.24,0,.39-.17.47-.44a.62.62,0,0,0-.18-.69,1,1,0,0,0-.42-.21,2.8,2.8,0,0,0-3,1.28,4.4,4.4,0,0,0-1,2.67,4.81,4.81,0,0,0,2,3.92.86.86,0,0,0,.5.14,5.12,5.12,0,0,0,.68,0v0a4.6,4.6,0,0,0,.91-.08,1.47,1.47,0,0,0,.66-.48.94.94,0,0,0,.05-.65A.34.34,0,0,0,225,78.56Z"/><path d="M182.49,77.07a2.49,2.49,0,0,0-.92-2.74l-.09-.09a1.65,1.65,0,0,0-1.86-.08.54.54,0,0,0-.31.67c.09.31.33.26.54.23a4.41,4.41,0,0,1,.62-.09.42.42,0,0,1,.42.4c0,.29-.12.5-.31.52-.64.09-1,.72-1.51,1.1a1.57,1.57,0,0,0-.4,1.83c.3.87.78,1.26,1.6,1.14a5.58,5.58,0,0,1,1.91-.16c.43.09.6-.29.53-.83S182.55,77.65,182.49,77.07ZM180.4,78.9a1.4,1.4,0,0,1-.36-.08c-.32-.12-.43-.38-.32-.77a1.68,1.68,0,0,1,.86-1.18c.45-.21.85.12.89.73C181.53,78.42,181.15,78.91,180.4,78.9Z"/><path d="M281.7,73.92A2.82,2.82,0,0,0,280.18,75a3,3,0,0,0-.46,3.16c.48,1.13,1.06,2,2.16,1.93a3,3,0,0,0,1.13-.36,3.71,3.71,0,0,0,1.16-3.42C284.05,75,282.7,73.69,281.7,73.92Zm1.08,4.44a1,1,0,0,1-1.17.54,1.06,1.06,0,0,1-.74-1c-.06-.3-.11-.61-.16-.86a3.81,3.81,0,0,1,.69-1.91.67.67,0,0,1,1.05,0A2.5,2.5,0,0,1,282.78,78.36Z"/><path d="M413.36,78.53c-.11,0-.2.15-.31.19a1.4,1.4,0,0,1-1.68-.21,4.81,4.81,0,0,1-.91-1.52,3.58,3.58,0,0,1-.13-1.4A3.05,3.05,0,0,1,411,74a1.69,1.69,0,0,1,2-.86.48.48,0,0,0,.39,0,.82.82,0,0,0,.32-.43.65.65,0,0,0-.17-.48A1.25,1.25,0,0,0,413,72a2.85,2.85,0,0,0-3,1.34c-1.07,1.38-1.06,4.51.18,5.66a3.94,3.94,0,0,1,.41.49,1.2,1.2,0,0,0,.92.51c.24,0,.49,0,.74,0V80a9.85,9.85,0,0,0,1.08-.1.81.81,0,0,0,.65-.78.86.86,0,0,0-.15-.57C413.73,78.46,413.52,78.5,413.36,78.53Z"/><path d="M319.71,78.6a7.88,7.88,0,0,1-1.18.21,1.31,1.31,0,0,1-1.15-.5,3.62,3.62,0,0,1,0-4.49,1.59,1.59,0,0,1,1.74-.67.58.58,0,0,0,.45,0,.88.88,0,0,0,.37-.46c0-.14-.12-.36-.22-.52a.53.53,0,0,0-.26-.15,2.48,2.48,0,0,0-1.74,0A3.82,3.82,0,0,0,315.57,75a4.73,4.73,0,0,0,1.64,4.83,1,1,0,0,0,.55.17,6.06,6.06,0,0,0,.74,0V80a4.4,4.4,0,0,0,1-.08,1.34,1.34,0,0,0,.67-.47,1,1,0,0,0,.07-.72C320.13,78.46,319.9,78.55,319.71,78.6Z"/><path d="M187.4,74.6a1.43,1.43,0,0,0-1.82-.52,7.08,7.08,0,0,1-1,.28c-.56.12-.76.37-.78,1.08s0,1.15,0,1.73h0c0,.52,0,1,0,1.57s.24,1,.62,1,.56-.31.57-1-.05-1.15,0-1.72a7.15,7.15,0,0,1,.22-1.54c.18-.69.67-.84,1.12-.38a2,2,0,0,1,.39.61,3.45,3.45,0,0,1,.28,1.51c0,.6,0,1.2,0,1.79a.6.6,0,0,0,.53.63c.29,0,.48-.19.55-.6a3.56,3.56,0,0,0,0-.57c0-.57,0-1.15,0-1.72A2.91,2.91,0,0,0,187.4,74.6Z"/><path d="M427.5,74.06c-.35.12-.7.22-1.05.31-.59.14-.77.38-.79,1.16,0,.53,0,1,0,1.58h0v1.22a5,5,0,0,0,.05.78c.06.39.28.59.56.59s.47-.21.54-.61a2.83,2.83,0,0,0,0-.5c0-.53,0-1.06,0-1.58a4.06,4.06,0,0,1,.28-1.6c.18-.5.51-.66.88-.39a1.9,1.9,0,0,1,.56.68,3.31,3.31,0,0,1,.31,1.58c0,.6,0,1.2,0,1.79s.34.73.62.69.39-.28.42-.75.06-1.19.06-1.79a9.61,9.61,0,0,0-.13-1.42C429.61,74.43,428.57,73.68,427.5,74.06Z"/><path d="M424.65,76.23c0-.27,0-.53,0-.79a2.77,2.77,0,0,0-.13-.83.74.74,0,0,0-.41-.42c-.21-.06-.33.19-.38.43a3.36,3.36,0,0,0-.09.7c0,.51,0,1,0,1.51a5.89,5.89,0,0,1-.18,1.26.86.86,0,0,1-1,.74,1,1,0,0,1-1-1c-.06-.47,0-1-.06-1.43s0-1.14-.07-1.71c0-.29-.18-.55-.46-.54s-.37.28-.44.57a1.33,1.33,0,0,0,0,.28c0,.93,0,1.87.05,2.8a4.26,4.26,0,0,0,.27,1.16c.23.64.63,1,1.2,1,.29,0,.57-.07.85-.1a4,4,0,0,1,.84-.05c.69.09,1-.14,1-1,0-.6,0-1.2,0-1.79h0Z"/><path d="M242.91,75.41a2.55,2.55,0,0,0-.12-.84c-.06-.17-.24-.36-.37-.37s-.29.2-.36.36a2.76,2.76,0,0,0-.12.77c0,.48,0,1,0,1.43a4.16,4.16,0,0,1-.32,1.66A.69.69,0,0,1,241,79c-.84,0-1.23-.45-1.23-1.52,0-.71,0-1.43,0-2.15a2.72,2.72,0,0,0-.05-.64c-.13-.47-.52-.57-.74-.15a2.36,2.36,0,0,0-.23.93c0,.67-.06,1.34-.08,2a3.42,3.42,0,0,0,.8,2.22.62.62,0,0,0,.45.27,4.7,4.7,0,0,0,1.24-.07,1.67,1.67,0,0,1,.83,0c.61.15.86-.09.89-.88,0-.6,0-1.2,0-1.79h0C242.92,76.55,242.93,76,242.91,75.41Z"/><path d="M164.15,72.48a.5.5,0,0,0-.47-.52.55.55,0,0,0-.22,0,15.79,15.79,0,0,1-3.7,0,.91.91,0,0,0-.55.14.55.55,0,0,0-.08.87.78.78,0,0,0,.46.23,2.72,2.72,0,0,0,.57,0c.42,0,.64.17.76.69a5.88,5.88,0,0,1,.14,1.2c0,1.17,0,2.34,0,3.51a3,3,0,0,0,.13.91.39.39,0,0,0,.76,0,2.13,2.13,0,0,0,.13-.76c0-.67,0-1.34,0-2h0c0-.86,0-1.72,0-2.58s.32-1,1-1a2.58,2.58,0,0,0,.68,0A.68.68,0,0,0,164.15,72.48Z"/><path d="M307.07,74.33a1.15,1.15,0,0,0-1.54-.16,1,1,0,0,1-.65.14c-.75-.13-1,.1-1.05,1.07,0,.57,0,1.15,0,1.72h-.09c0,.53,0,1.06,0,1.58a2.06,2.06,0,0,0,.13.76.62.62,0,0,0,.44.34c.13,0,.3-.18.38-.35a1.75,1.75,0,0,0,.11-.62,11.11,11.11,0,0,0,0-1.29,4.14,4.14,0,0,1,.32-2c.25-.6.46-.75.95-.45a1.47,1.47,0,0,1,.61.69,5.62,5.62,0,0,1,.25,1.38c.05.59,0,1.2.05,1.79s.25.89.53.89.47-.37.46-1c0-.79,0-1.58,0-2.37A2.48,2.48,0,0,0,307.07,74.33Z"/><path d="M230.87,74.53c-.05-.15-.22-.34-.32-.33a.62.62,0,0,0-.38.35,2,2,0,0,0-.12.69c0,.48,0,1,0,1.44a7.45,7.45,0,0,1-.17,1.33c-.23.91-.52,1.09-1.25.87-.53-.17-.76-.49-.77-1.24s0-1.62,0-2.44a2.32,2.32,0,0,0-.08-.7c-.16-.45-.56-.49-.76-.06a2.22,2.22,0,0,0-.18.81c-.05.7-.05,1.39-.07,2.08a3.51,3.51,0,0,0,.66,2.16,1,1,0,0,0,.57.42,2.87,2.87,0,0,0,1.13,0,2.16,2.16,0,0,1,1-.07c.6.13.83-.14.85-.94,0-.57,0-1.14,0-1.72h0c0-.62,0-1.24,0-1.86A2.5,2.5,0,0,0,230.87,74.53Z"/><path d="M330.92,77.08c0-.41,0-.82,0-1.22a2.16,2.16,0,0,0-1.67-1.93.81.81,0,0,0-.54.17.91.91,0,0,1-1,.17c-.44-.13-.65,0-.77.58a3.31,3.31,0,0,0-.09.77c0,.5,0,1,0,1.51h-.05v1.22c0,.17,0,.33,0,.5,0,.62.21,1,.52,1s.49-.32.52-.94c0-.12,0-.24,0-.36,0-.39,0-.77,0-1.15a3.77,3.77,0,0,1,.34-1.86c.26-.61.53-.76,1-.42a1.66,1.66,0,0,1,.57.75,6.22,6.22,0,0,1,.23,1.38c0,.6,0,1.2.05,1.79s.27.81.54.79.44-.34.45-.86c0-.12,0-.24,0-.36C331,78.08,330.93,77.58,330.92,77.08Z"/><path d="M404.81,76.76a6.17,6.17,0,0,1-.81-.88,1,1,0,0,1-.06-.65c.07-.26.29-.27.49-.22s.22.12.33.11.33,0,.4-.14a.8.8,0,0,0,0-.53.7.7,0,0,0-.31-.39,1.39,1.39,0,0,0-1.53.18,4.37,4.37,0,0,1-.73.51c-.33.19-.37.25-.3.71a1.89,1.89,0,0,0,.92,1.45,6.31,6.31,0,0,1,1.09.87.77.77,0,0,1,.2.83.54.54,0,0,1-.64.34c-.17,0-.34-.08-.51-.1a1.14,1.14,0,0,0-.45,0,.46.46,0,0,0-.19.76,1,1,0,0,0,.49.32,3.08,3.08,0,0,0,.68.07c1,0,1.24-.15,1.67-1a1.47,1.47,0,0,0-.19-1.74C405.21,77.05,405,76.94,404.81,76.76Z"/><path d="M390.12,72a.9.9,0,0,0-1.12.23c-.42.53-.82,1.07-1.2,1.63a1,1,0,0,0-.08,1.22,3.05,3.05,0,0,1,.29,1.44c0,.33,0,.67,0,1h0c0,.38,0,.77,0,1.15a4.58,4.58,0,0,0,0,.64c.05.27.17.48.42.52a.48.48,0,0,0,.54-.41,3.78,3.78,0,0,0,.11-.84c0-.78,0-1.57,0-2.36a1.7,1.7,0,0,1,.33-1c.4-.54.39-.55.12-1.2-.19-.44-.14-.69.22-.94.13-.1.28-.15.4-.26A.46.46,0,0,0,390.12,72Z"/><path d="M237.55,79c-.1-.09-.26-.07-.39-.1a.92.92,0,0,1-.75-.92c-.09-1.16-.27-2.36.7-3.17.29-.24.26-.48,0-.75l-.7-.71a.7.7,0,0,0-1.21.13A1.6,1.6,0,0,0,235,75a5.35,5.35,0,0,1,.18,2.45,3.28,3.28,0,0,0,.71,2.11c.26.48.68.46,1.08.5a2.11,2.11,0,0,0,.62-.09.65.65,0,0,0,.29-.46A.78.78,0,0,0,237.55,79Z"/><path d="M434,78.79a3.52,3.52,0,0,1-.9.11,2,2,0,0,1-1.24-2.55c.38-1,1.11-1.49,2-1.22.06,0,.12.06.17.05s.32-.07.39-.19a.7.7,0,0,0,0-.53A1,1,0,0,0,434,74a2.54,2.54,0,0,0-2.91,1.36,3.63,3.63,0,0,0,0,3.2,3.44,3.44,0,0,0,.7.93,1.87,1.87,0,0,0,.76.43,2.2,2.2,0,0,0,.68,0v0c.3,0,.61,0,.91-.07a.62.62,0,0,0,.51-.71C434.6,78.86,434.38,78.73,434,78.79Z"/><path d="M386.52,71.89a.88.88,0,0,0-.23,0c-.63,0-1,.21-1.34.88-.23.41-.46.82-.72,1.2a1,1,0,0,0-.08,1.06,3.8,3.8,0,0,1,.34,1.64c0,.63,0,1.25,0,1.87a2.69,2.69,0,0,0,.07.7.51.51,0,0,0,.52.46c.27,0,.41-.2.47-.51a4.62,4.62,0,0,0,.06-.64c0-.63,0-1.25,0-1.87A2.41,2.41,0,0,1,386,75a.81.81,0,0,0,0-.92,2.56,2.56,0,0,1-.11-.24c-.23-.57-.09-.93.39-1l.23,0a.39.39,0,0,0,.39-.42A.42.42,0,0,0,386.52,71.89Z"/><path d="M311.17,78.81a1.11,1.11,0,0,1-.74-1.13c0-.6,0-1.2,0-1.79A.89.89,0,0,1,311,75c.09,0,.2,0,.27-.11s.29-.26.28-.38-.16-.43-.27-.45a1.9,1.9,0,0,1-1.07-.88.52.52,0,0,0-.51-.15,1.91,1.91,0,0,0-.66,1.91,5.28,5.28,0,0,1,.3,2,4,4,0,0,0,.45,2.31,1.48,1.48,0,0,0,1.79.61.49.49,0,0,0,.08-.83A1.5,1.5,0,0,0,311.17,78.81Z"/><path d="M334.14,78.79a1.06,1.06,0,0,1-.7-1.08c0-.48,0-1,0-1.43,0-.67.19-1.17.77-1.31a.49.49,0,0,0,.4-.52c0-.34-.21-.43-.43-.47a1.15,1.15,0,0,1-.72-.52c-.48-.65-.71-.62-1.12.09-.07.14-.14.28-.22.42a1,1,0,0,0,0,.88,6,6,0,0,1,.34,2.23,6.61,6.61,0,0,0,.21,1.68c.24.81.7,1.31,1.45,1.23a1.12,1.12,0,0,0,.45,0,.67.67,0,0,0,.34-.4.71.71,0,0,0-.22-.51A1.05,1.05,0,0,0,334.14,78.79Z"/><path d="M225.77,7.8a2.67,2.67,0,0,0-2.27.83c-.56.64-1.19,1.23-1.81,1.83-.21.19-.46.34-.68.52s-.42.35-.27.59a.93.93,0,0,0,.56.38,4,4,0,0,0,.85,0,2.67,2.67,0,0,0,2.64-1.25c.45-.59,1-1.12,1.47-1.67a.69.69,0,0,0,.24-.77A.72.72,0,0,0,225.77,7.8Z"/><path d="M270.36,74.34a2.08,2.08,0,0,0-.49.75c-.16.37-.24.8-.41,1.17s-.41.69-.77.63-.37-.51-.43-.85a3.43,3.43,0,0,0-.75-1.66c-.1-.12-.34-.24-.44-.17a.72.72,0,0,0-.3.53,3.24,3.24,0,0,0,.24,1c.15.43.35.84.53,1.26a12.35,12.35,0,0,1,.8,2.21c.11.5.48.59.75.2a7.78,7.78,0,0,0,.67-1.32c.19-.43.36-.88.53-1.33.23-.63.46-1.26.63-1.71C271,74.37,270.69,74.09,270.36,74.34Z"/><path d="M240,12c.33,0,.64-.07.76-.42s-.15-.52-.38-.69A10.29,10.29,0,0,1,238.51,9a4.79,4.79,0,0,0-1.13-1,1.58,1.58,0,0,0-1.45-.14c-.59.21-.75.61-.36,1.1.66.84,1.37,1.65,2.06,2.47a1.36,1.36,0,0,0,1.08.47h.65V12Z"/><path d="M233.73,78.84a2.17,2.17,0,0,1-.46-1.82c0-.47,0-1,0-1.42s0-1.24,0-1.86c0-.35,0-.71,0-1.06s-.19-.57-.48-.6a.56.56,0,0,0-.61.42,2.41,2.41,0,0,0-.1.76c0,.72,0,1.44,0,2.15h0c0,.65,0,1.29,0,1.93a3.56,3.56,0,0,0,.59,2.18.83.83,0,0,0,.91.42.52.52,0,0,0,.3-.76A1.15,1.15,0,0,0,233.73,78.84Z"/><path d="M278.15,76.74c0-1.15.06-2.29.08-3.44a2.64,2.64,0,0,0-.06-.63.64.64,0,0,0-.71-.56c-.26,0-.43.29-.45.72a9.63,9.63,0,0,0,0,1.07c0,.78.07,1.57.11,2.35h-.07c0,.48,0,.95,0,1.43a2.64,2.64,0,0,0,.64,1.84,1.1,1.1,0,0,0,.65.38.67.67,0,0,0,.54-.27.57.57,0,0,0-.14-.69A3,3,0,0,1,278.15,76.74Z"/><path d="M246.11,74s-.07,0-.11,0a7.12,7.12,0,0,1-1,.21c-.66,0-.9.31-.93,1.13,0,.55,0,1.1,0,1.65h0v.72c0,.39,0,.77,0,1.15s.25.83.57.84.54-.28.58-.81a4.17,4.17,0,0,0,0-.5c0-.48,0-1,0-1.44a1.9,1.9,0,0,1,1.11-2c.41-.19.59-.44.52-.71S246.48,73.89,246.11,74Z"/><path d="M343.77,74a1.23,1.23,0,0,0-.71.14,1.18,1.18,0,0,1-1,.16c-.57-.19-.76,0-.76.79v1.86h-.08c0,.6,0,1.2,0,1.79a3.13,3.13,0,0,0,.08.7c.16.48.59.54.8.09a2,2,0,0,0,.15-.82c0-.55,0-1.1,0-1.65a3.09,3.09,0,0,1,.81-1.9c.08-.11.24-.13.36-.17s.27,0,.4,0a.42.42,0,0,0,.36-.47C344.12,74.17,344,74,343.77,74Z"/><path d="M400.92,74.12a.79.79,0,0,1-1,.15c-.44-.24-.67,0-.78.54a2,2,0,0,0-.05.43c0,1.19,0,2.38,0,3.57a1.6,1.6,0,0,0,.1.63c.08.15.25.33.38.33a.58.58,0,0,0,.39-.32,2.16,2.16,0,0,0,.11-.76c0-.58,0-1.15,0-1.72a2.22,2.22,0,0,1,1.49-2.14,4.5,4.5,0,0,0,.46-.14C401.77,73.93,401.39,73.73,400.92,74.12Z"/><path d="M397.47,73.17a1.79,1.79,0,0,0,.1-.62c0-.27-.14-.45-.37-.43s-.29.19-.3.43a.55.55,0,0,0,0,.22,1,1,0,0,1-.39,1.17c-.38.28-.42.54-.17,1a3.44,3.44,0,0,1,.36,1.77c0,.26,0,.53,0,.79h0v1.15a3.64,3.64,0,0,0,0,.57c.06.29.18.54.45.56s.41-.24.46-.54a4.17,4.17,0,0,0,.05-.71c0-.67,0-1.34,0-2a6.62,6.62,0,0,0-.28-2.39A1.41,1.41,0,0,1,397.47,73.17Z"/><path d="M437.1,74.86c-.07-.69-.38-1.37,0-2.07a.17.17,0,0,0,0-.07c0-.37-.13-.62-.36-.6s-.31.23-.29.58a.32.32,0,0,0,0,.14.89.89,0,0,1-.33,1.07c-.38.3-.43.53-.23,1a5.78,5.78,0,0,1,.32,2.23c0,.62,0,1.24,0,1.86s.26.8.54.78.41-.3.45-.8v-.29c0-.57,0-1.14,0-1.72S437.17,75.57,437.1,74.86Z"/><path d="M170.3,75.61a5.51,5.51,0,0,0-.36-1.41.51.51,0,0,0-.87-.24c-.34.24-.42.54-.18,1a3.84,3.84,0,0,1,.31,1.93c0,.54,0,1.09,0,1.64a3.39,3.39,0,0,0,.07.64c.07.3.23.5.49.5a.57.57,0,0,0,.56-.51,2.59,2.59,0,0,0,.05-.56c0-.48,0-1,0-1.44h0A13.71,13.71,0,0,0,170.3,75.61Z"/><path d="M344.22,78.63a3.65,3.65,0,0,0-.13.61c.06.38.11.75.19,1.12s.36.58.67.29a1.83,1.83,0,0,0,0-2.22C344.71,78.16,344.38,78.23,344.22,78.63Z"/><path d="M169.47,72.6c0,.24.13.42.32.39s.21-.18.42-.37c-.22-.18-.33-.34-.47-.37S169.46,72.37,169.47,72.6Z"/><line class="cls-4" x1="455.56" y1="31" x2="455.56" y2="82"/><path d="M502.45,33.32V65h-3.23V63.66H475.46V65h-3.13V33.32Zm-3.23,27.57V36.12H475.46V60.89Zm-1.37-16.31v2h-21v-2h8.89v-1.4h-5.62V37.56h14.26v5.62h-5.8v1.4ZM479,47.86h16.6V59.27H479Zm2.59,9.43h11.27V49.8H481.61Zm1.3-15.95h8.67V39.4h-8.67Zm.61,9.76H491V56h-7.45Zm1.94,3.27H489V52.68h-3.5Z"/><path d="M539.47,50v2.41H507.58V50h14.11V48.22H510.06V46.06h11.63V44.4H510.93V42.28h10.76V40.52H507.61V38.1h14.08V36.38H511.36V34.32h10.33V31.88h3.38v2.44h10.12V38.1h4.24v2.42h-4.24V44.4H525.07v1.66H537v2.16H525.07V50Zm-27.36,3.88h23.26V65.06H532V64H515.39V65.1h-3.28ZM515.39,56v1.8H532V56ZM532,61.79V59.88H515.39v1.91ZM525.07,38.1h6.81V36.38h-6.81Zm0,4.18h6.81V40.52h-6.81Z"/><path d="M565.69,37.38a4,4,0,0,1-.07.87c1.94,2,5.79,3.2,10.54,3.49a10,10,0,0,0-1.8,2.73c-4.1-.57-7.38-1.87-9.64-3.95-1.3,1.65-4.14,3.2-10.33,4.06a9.52,9.52,0,0,0-1.7-2.48h-9.14V39.47H554v2.38c7.81-1,8.64-3,8.64-4.57v-.47h-3A16.89,16.89,0,0,1,557,40.16a14.41,14.41,0,0,0-2.52-1.7,14.76,14.76,0,0,0,4.14-6.62l3,.65c-.22.61-.43,1.19-.68,1.8h11.23l.47-.15,2.3.76a32.75,32.75,0,0,1-3.13,5.33l-2.63-.94a26.85,26.85,0,0,0,1.51-2.48h-5ZM565.4,59.2a92.11,92.11,0,0,1,10.15,3.92l-3,1.84a70.15,70.15,0,0,0-9.69-4.07l2.09-1.69H554.17l3,1.36a48.85,48.85,0,0,1-11,4.5,28,28,0,0,0-2.48-2.52A39.25,39.25,0,0,0,554,59.2h-5.8V44.73H571.7V59.2ZM553.13,36.48h-8.82V34h8.82ZM551.47,48.9h16.88v-2H551.47Zm0,4h16.88v-2H551.47Zm0,4.14h16.88V55H551.47Z"/><path d="M585,49.66c-.72,4-2.23,9.07-4.32,11.66a18.37,18.37,0,0,0-1.58-3.89,23.54,23.54,0,0,0,3.53-8.64Zm4.83-.79c.75,1,3.35,5.76,3.89,6.87l-2.34,2.56a75.39,75.39,0,0,0-3-7.35V65h-3.13v-18h-5.58V43.94h5.58V32h3.13V43.94H594v3.13h-5.62V50ZM581.54,43a35.07,35.07,0,0,0-1.8-8.1l2.41-.61a33.87,33.87,0,0,1,2,8.06Zm12.67-8.17c-.9,2.74-2,6.09-2.92,8.14l-2.16-.65a61.39,61.39,0,0,0,2.2-8.14Zm14,20.3V65H605V55.67l-10.65,1.94-.54-3.09,11.19-2V32h3.14V51.93l4-.69.47,3.06Zm-7.74-5.18a28,28,0,0,0-5.94-4.36l1.58-2.41a30.2,30.2,0,0,1,6,4.07Zm1.44-8.71a26.17,26.17,0,0,0-5.62-4.64L598,34.29a28.91,28.91,0,0,1,5.69,4.35Z"/><path d="M646.6,38.28V55.49h-3.5V53.55h-9.36V65h-3.49V53.55h-9.32v2.12h-3.35V38.28h12.67V32h3.49v6.26Zm-16.35,12V41.56h-9.32v8.71Zm12.85,0V41.56h-9.36v8.71Z"/><path d="M658.23,45.09a79.32,79.32,0,0,1-3,14.43l-3.34-1.4a60.91,60.91,0,0,0,3-13.65Zm6.2-3V59.23c0,1.69.39,2,2.3,2h6.08c2.05,0,2.38-1.19,2.63-7.12a10.38,10.38,0,0,0,3.13,1.44c-.39,6.76-1.37,8.81-5.54,8.81h-6.66c-4.21,0-5.4-1.15-5.4-5.11V42.06Zm.28-9.1a65.19,65.19,0,0,1,9.83,7.7l-2.48,2.55a63.38,63.38,0,0,0-9.62-8ZM680.3,43.43a64.12,64.12,0,0,1,4.75,13.39l-3.35,1.41a64.15,64.15,0,0,0-4.5-13.58Z"/><path d="M470.7,68.66h1.62v9h4.37V79h-6Z"/><path d="M478.17,68.87a1,1,0,0,1,2,0,1,1,0,0,1-2,0Zm.2,2.41H480V79h-1.61Z"/><path d="M483.84,78.19h0l-.15.79h-1.26V67.82H484v3l-.06,1.31a3.72,3.72,0,0,1,2.3-1c1.95,0,3.05,1.56,3.05,3.93,0,2.64-1.58,4.16-3.32,4.16A3.3,3.3,0,0,1,483.84,78.19ZM487.63,75c0-1.61-.52-2.6-1.81-2.6a2.63,2.63,0,0,0-1.82.94v3.77a2.6,2.6,0,0,0,1.67.7C486.79,77.84,487.63,76.84,487.63,75Z"/><path d="M491.19,71.28h1.32l.13,1.39h0a2.65,2.65,0,0,1,2.18-1.59,2,2,0,0,1,.87.17l-.29,1.4a2.39,2.39,0,0,0-.77-.12c-.63,0-1.39.43-1.87,1.65V79h-1.61Z"/><path d="M496.08,76.94c0-1.65,1.4-2.51,4.61-2.86,0-.89-.34-1.68-1.47-1.68a4.24,4.24,0,0,0-2.23.79l-.6-1.1a5.92,5.92,0,0,1,3.11-1c1.92,0,2.8,1.22,2.8,3.27V79H501l-.12-.88h-.06a3.85,3.85,0,0,1-2.45,1.07A2.13,2.13,0,0,1,496.08,76.94Zm4.61.06V75.1c-2.29.27-3.06.86-3.06,1.73s.52,1.06,1.21,1.06A2.73,2.73,0,0,0,500.69,77Z"/><path d="M504.58,71.28h1.31l.13,1.39h0a2.67,2.67,0,0,1,2.19-1.59,2,2,0,0,1,.87.17l-.3,1.4a2.35,2.35,0,0,0-.77-.12c-.63,0-1.39.43-1.86,1.65V79h-1.61Z"/><path d="M510,82.05l.3-1.26a2.22,2.22,0,0,0,.56.11c.84,0,1.33-.61,1.61-1.44l.16-.53-3.06-7.65h1.66l1.43,4c.22.69.46,1.46.7,2.18h.07c.19-.7.4-1.48.6-2.18l1.23-4h1.57L514,79.45c-.6,1.65-1.41,2.76-3,2.76A2.63,2.63,0,0,1,510,82.05Z"/><path d="M524.14,76.94c0-1.65,1.4-2.51,4.61-2.86,0-.89-.34-1.68-1.47-1.68a4.24,4.24,0,0,0-2.23.79l-.6-1.1a5.92,5.92,0,0,1,3.11-1c1.92,0,2.8,1.22,2.8,3.27V79H529l-.12-.88h-.06a3.85,3.85,0,0,1-2.45,1.07A2.13,2.13,0,0,1,524.14,76.94Zm4.61.06V75.1c-2.29.27-3.06.86-3.06,1.73s.52,1.06,1.21,1.06A2.73,2.73,0,0,0,528.75,77Z"/><path d="M532.64,71.28H534l.13,1.06h0a3.71,3.71,0,0,1,2.55-1.26c1.64,0,2.37,1.1,2.37,3.06V79h-1.61V74.33c0-1.33-.39-1.86-1.3-1.86a2.56,2.56,0,0,0-1.88,1V79h-1.61Z"/><path d="M540.85,75.13c0-2.49,1.59-4,3.31-4a3,3,0,0,1,2.07.87l-.07-1.27V67.82h1.61V79h-1.31l-.13-.86h-.05a3.29,3.29,0,0,1-2.25,1C542.1,79.17,540.85,77.7,540.85,75.13Zm5.31,1.77V73.13a2.4,2.4,0,0,0-1.69-.7c-1.08,0-2,1-2,2.69s.69,2.72,1.89,2.72A2.27,2.27,0,0,0,546.16,76.9Z"/><path d="M556.69,68.66h1.63V79h-1.63Z"/><path d="M560.88,71.28h1.32l.12,1.06h0a3.71,3.71,0,0,1,2.55-1.26c1.64,0,2.37,1.1,2.37,3.06V79h-1.61V74.33c0-1.33-.39-1.86-1.3-1.86a2.56,2.56,0,0,0-1.88,1V79h-1.61Z"/><path d="M569.88,72.57h-1V71.36l1-.08v-1c0-1.58.72-2.67,2.44-2.67a3.79,3.79,0,0,1,1.36.25l-.32,1.22a2.07,2.07,0,0,0-.85-.2c-.68,0-1,.45-1,1.39v1h1.56v1.29h-1.56V79h-1.61Z"/><path d="M573.74,75.13a3.65,3.65,0,1,1,3.63,4A3.73,3.73,0,0,1,573.74,75.13Zm5.61,0c0-1.62-.76-2.71-2-2.71s-2,1.09-2,2.71.76,2.72,2,2.72S579.35,76.77,579.35,75.13Z"/><path d="M582.89,71.28h1.31l.13,1.39h0a2.67,2.67,0,0,1,2.19-1.59,2,2,0,0,1,.87.17l-.3,1.4a2.35,2.35,0,0,0-.77-.12c-.63,0-1.39.43-1.86,1.65V79h-1.61Z"/><path d="M588.61,71.28h1.32l.13,1.08h0a3.37,3.37,0,0,1,2.38-1.28,2.07,2.07,0,0,1,2.13,1.42,3.55,3.55,0,0,1,2.51-1.42c1.61,0,2.36,1.1,2.36,3.06V79h-1.61V74.33c0-1.33-.42-1.86-1.29-1.86a2.56,2.56,0,0,0-1.73,1V79h-1.61V74.33c0-1.33-.41-1.86-1.29-1.86a2.56,2.56,0,0,0-1.73,1V79h-1.61Z"/><path d="M601.35,76.94c0-1.65,1.4-2.51,4.61-2.86,0-.89-.34-1.68-1.47-1.68a4.27,4.27,0,0,0-2.23.79l-.6-1.1a6,6,0,0,1,3.11-1c1.92,0,2.8,1.22,2.8,3.27V79h-1.32l-.12-.88h-.06a3.83,3.83,0,0,1-2.45,1.07A2.13,2.13,0,0,1,601.35,76.94ZM606,77V75.1c-2.28.27-3.05.86-3.05,1.73s.52,1.06,1.2,1.06A2.73,2.73,0,0,0,606,77Z"/><path d="M609.86,76.46V72.57h-1.12V71.36l1.21-.08.18-2.13h1.35v2.13h2v1.29h-2v3.91c0,.92.32,1.4,1.12,1.4a2.45,2.45,0,0,0,.82-.18l.3,1.19a5,5,0,0,1-1.52.28C610.47,79.17,609.86,78.09,609.86,76.46Z"/><path d="M615,68.87a1,1,0,0,1,2,0,1,1,0,0,1-2,0Zm.2,2.41h1.61V79h-1.61Z"/><path d="M618.63,75.13a3.65,3.65,0,1,1,3.63,4A3.72,3.72,0,0,1,618.63,75.13Zm5.6,0c0-1.62-.76-2.71-2-2.71s-2,1.09-2,2.71.76,2.72,2,2.72S624.23,76.77,624.23,75.13Z"/><path d="M627.77,71.28h1.32l.12,1.06h0a3.71,3.71,0,0,1,2.55-1.26c1.64,0,2.37,1.1,2.37,3.06V79h-1.61V74.33c0-1.33-.39-1.86-1.3-1.86a2.56,2.56,0,0,0-1.88,1V79h-1.61Z"/><path d="M642.45,73.86c0-3.36,2-5.38,4.65-5.38a4,4,0,0,1,2.92,1.3l-.88,1a2.74,2.74,0,0,0-2-.93c-1.77,0-3,1.49-3,3.91s1.15,4,3,4a3,3,0,0,0,2.28-1.09l.87,1a4.06,4.06,0,0,1-3.2,1.49C644.43,79.17,642.45,77.23,642.45,73.86Z"/><path d="M651.36,75.13a3.75,3.75,0,0,1,3.52-4c2,0,3.15,1.47,3.15,3.65a4.27,4.27,0,0,1-.08.82h-5a2.33,2.33,0,0,0,2.38,2.36,3.23,3.23,0,0,0,1.83-.58l.56,1a4.62,4.62,0,0,1-2.6.82A3.71,3.71,0,0,1,651.36,75.13Zm5.27-.7c0-1.31-.6-2.09-1.72-2.09a2.1,2.1,0,0,0-2,2.09Z"/><path d="M659.82,71.28h1.32l.12,1.06h0a3.71,3.71,0,0,1,2.55-1.26c1.64,0,2.37,1.1,2.37,3.06V79h-1.61V74.33c0-1.33-.39-1.86-1.3-1.86a2.56,2.56,0,0,0-1.88,1V79h-1.61Z"/><path d="M668.81,76.46V72.57h-1.12V71.36l1.2-.08.18-2.13h1.35v2.13h2v1.29h-2v3.91c0,.92.32,1.4,1.12,1.4a2.51,2.51,0,0,0,.83-.18l.29,1.19a4.89,4.89,0,0,1-1.51.28C669.41,79.17,668.81,78.09,668.81,76.46Z"/><path d="M673.32,75.13a3.75,3.75,0,0,1,3.51-4c2,0,3.15,1.47,3.15,3.65a4.27,4.27,0,0,1-.08.82h-5a2.33,2.33,0,0,0,2.38,2.36,3.21,3.21,0,0,0,1.83-.58l.57,1a4.68,4.68,0,0,1-2.61.82A3.71,3.71,0,0,1,673.32,75.13Zm5.26-.7c0-1.31-.6-2.09-1.72-2.09a2.1,2.1,0,0,0-2,2.09Z"/><path d="M681.77,71.28h1.32l.12,1.39h0a2.65,2.65,0,0,1,2.18-1.59,2,2,0,0,1,.87.17l-.29,1.4a2.43,2.43,0,0,0-.77-.12c-.63,0-1.39.43-1.87,1.65V79h-1.61Z"/></g></svg>